<?xml version="1.0" encoding="utf-8"?>
<!-- Generator: Adobe Illustrator 27.2.0, SVG Export Plug-In . SVG Version: 6.00 Build 0)  -->
<svg version="1.1" id="Layer_1" xmlns="http://www.w3.org/2000/svg" xmlns:xlink="http://www.w3.org/1999/xlink" x="0px" y="0px"
	 viewBox="0 0 39.3 20.9" style="enable-background:new 0 0 39.3 20.9;" xml:space="preserve">
<style type="text/css">
	.st0{fill:#243C93;}
</style>
<g>
	<g>
		<g id="Logo_00000019661210702532845590000000006159673471381138_">
			<g>
				<path class="st0" d="M14.5,16.4c-2.5,0-4.5-2-4.5-4.5s2-4.5,4.5-4.5c1.5,0,2.8,0.7,3.6,1.8h1.5c-1-1.8-2.9-3.1-5.1-3.1
					c-3.2,0-5.7,2.6-5.7,5.7c0,3.2,2.6,5.7,5.7,5.7h19v-1.2H14.5"/>
				<polyline class="st0" points="19.8,5.8 19.8,3.4 18.4,3.4 18.4,4.4 14.5,0.4 5.9,9.3 8.2,9.3 14.5,2.8 20.8,9.3 23.1,9.3 
					19.8,5.8 				"/>
			</g>
		</g>
		<g>
			<g>
				<path class="st0" d="M16.6,10.2L16.2,11h-0.8c0,0,0.1,0.1,0.1,0.2c0,0.1,0.1,0.1,0.1,0.2h1l-0.4,0.8h-0.6c0,0.2-0.1,0.3-0.2,0.5
					c-0.1,0.1-0.2,0.3-0.3,0.4c-0.1,0.1-0.3,0.2-0.5,0.2c-0.2,0.1-0.4,0.1-0.6,0.1l2,2h-1.3l-1.9-2v-0.8h0.5c0.1,0,0.2,0,0.3,0
					c0.1,0,0.2,0,0.3-0.1c0.1,0,0.2-0.1,0.3-0.1c0.1-0.1,0.1-0.1,0.2-0.2h-1.8l0.4-0.8h1.4c0-0.1-0.1-0.2-0.2-0.2
					c-0.1-0.1-0.2-0.1-0.3-0.1c-0.1,0-0.2,0-0.4-0.1c-0.1,0-0.3,0-0.4,0h-0.5l0.4-0.8H16.6z"/>
			</g>
			<g>
				<polygon class="st0" points="18.2,13.1 18.1,13.1 18.1,15.3 18.5,15.3 18.5,14.5 19.5,14.5 19.5,14.1 18.5,14.1 18.5,13.5 
					19.7,13.5 19.7,13.1 18.5,13.1 				"/>
				<rect x="20" y="13.1" class="st0" width="0.5" height="2.2"/>
				<polygon class="st0" points="22.4,14.7 21.5,13.1 21,13.1 21,15.3 21.4,15.3 21.4,13.7 22.3,15.3 22.9,15.3 22.9,13.1 
					22.4,13.1 				"/>
				<path class="st0" d="M24.8,14.2c-0.1,0-0.2-0.1-0.3-0.1c-0.1,0-0.2,0-0.3-0.1c-0.1,0-0.2,0-0.2,0c-0.1,0-0.1,0-0.2-0.1
					c0,0-0.1-0.1-0.1-0.2v0c0-0.1,0-0.1,0.1-0.2c0.1,0,0.2-0.1,0.3-0.1c0.1,0,0.2,0,0.3,0c0.1,0,0.2,0.1,0.3,0.1l0.2-0.4
					c-0.1-0.1-0.2-0.1-0.4-0.2c-0.1,0-0.3-0.1-0.4-0.1c-0.3,0-0.5,0.1-0.7,0.2c-0.2,0.1-0.2,0.3-0.2,0.5v0c0,0.1,0,0.2,0.1,0.3
					c0,0.1,0.1,0.1,0.2,0.2c0.1,0,0.2,0.1,0.3,0.1c0.1,0,0.2,0,0.3,0c0.1,0,0.2,0,0.2,0c0.1,0,0.1,0,0.2,0.1c0,0,0.1,0.1,0.1,0.1v0
					c0,0.1,0,0.1-0.1,0.2c-0.1,0-0.2,0.1-0.4,0.1c-0.1,0-0.3,0-0.4-0.1c-0.1,0-0.2-0.1-0.3-0.2l-0.2,0.3c0.1,0.1,0.2,0.1,0.3,0.1
					c0.1,0,0.2,0.1,0.3,0.1c0.1,0,0.2,0,0.3,0c0.3,0,0.5-0.1,0.7-0.2c0.2-0.1,0.2-0.3,0.2-0.5v0c0-0.1,0-0.2-0.1-0.3
					C25,14.3,24.9,14.2,24.8,14.2z"/>
				<polygon class="st0" points="25.7,13.1 25.5,13.1 25.5,15.3 25.7,15.3 26,15.3 27.1,15.3 27.1,14.9 26,14.9 26,14.4 26.9,14.4 
					26.9,14 26,14 26,13.5 27.1,13.5 27.1,13.1 26,13.1 				"/>
				<path class="st0" d="M29,14.4c0.1-0.1,0.2-0.1,0.2-0.2c0.1-0.1,0.1-0.2,0.1-0.3c0-0.1,0-0.2-0.1-0.3c-0.1-0.1-0.1-0.2-0.2-0.2
					c-0.1-0.1-0.2-0.1-0.4-0.1H28h-0.3h-0.2v2.2H28v-0.9h0.3l0.6,0.9h0.6l-0.6-0.9C28.9,14.4,28.9,14.4,29,14.4z M28,13.5h0.6
					c0.1,0,0.1,0,0.2,0.1c0,0,0.1,0.1,0.1,0.2c0,0.1,0,0.1-0.1,0.2c0,0-0.1,0.1-0.2,0.1H28V13.5z"/>
				<polygon class="st0" points="30.5,14.6 30,13.1 29.5,13.1 30.3,15.3 30.7,15.3 31.5,13.1 31.1,13.1 				"/>
				<polygon class="st0" points="33.5,13.5 33.5,13.1 32.3,13.1 32,13.1 31.8,13.1 31.8,15.3 32,15.3 32.3,15.3 33.5,15.3 
					33.5,14.9 32.3,14.9 32.3,14.4 33.3,14.4 33.3,14 32.3,14 32.3,13.5 				"/>
				<path class="st0" d="M19.5,11.5c0.1-0.1,0.2-0.1,0.2-0.2c0.1-0.1,0.1-0.2,0.1-0.3c0-0.1,0-0.2-0.1-0.3c-0.1-0.1-0.1-0.2-0.2-0.2
					c-0.1-0.1-0.2-0.1-0.4-0.1h-0.6h-0.3h-0.2v2.2h0.5v-0.9h0.3l0.6,0.9h0.6l-0.6-0.9C19.4,11.5,19.5,11.5,19.5,11.5z M18.5,10.6
					h0.6c0.1,0,0.1,0,0.2,0.1c0,0,0.1,0.1,0.1,0.2c0,0.1,0,0.1-0.1,0.2c0,0-0.1,0.1-0.2,0.1h-0.6V10.6z"/>
				<polygon class="st0" points="21.5,12.4 22.7,12.4 22.7,12 21.5,12 21.5,11.5 22.5,11.5 22.5,11.1 21.5,11.1 21.5,10.6 
					22.7,10.6 22.7,10.2 21.5,10.2 21.2,10.2 21,10.2 21,12.4 21.2,12.4 				"/>
				<path class="st0" d="M24.8,10.2h-0.3l-0.9,2.2H24l0.1-0.4h0.9l0.1,0.4h0.5L24.8,10.2z M24.3,11.7l0.3-0.8l0.3,0.8H24.3z"/>
				<polygon class="st0" points="28.3,12 27.2,12 27.2,10.2 26.7,10.2 26.7,12.4 26.9,12.4 27.2,12.4 28.3,12.4 				"/>
				<polygon class="st0" points="29.6,12.4 30.1,12.4 30.1,10.6 30.7,10.6 30.7,10.2 28.9,10.2 28.9,10.6 29.6,10.6 				"/>
				<polygon class="st0" points="32.2,12.4 32.6,12.4 32.6,11.6 33.4,10.2 32.9,10.2 32.4,11.2 31.9,10.2 31.5,10.2 32.2,11.6 				
					"/>
			</g>
		</g>
	</g>
	<g>
		<path d="M14.1,19.6l-0.2-0.9h-0.2L14,20l0,0.2c0,0.1,0,0.1-0.1,0.1c0,0-0.1,0-0.2,0h0v0.2h0c0.1,0,0.2,0,0.3-0.1
			c0.1,0,0.1-0.1,0.1-0.2l0.4-1.6h-0.2L14.1,19.6z"/>
		<path d="M15,18.7c-0.1,0-0.2,0-0.3,0.1c-0.1,0.1-0.1,0.2-0.1,0.3v0.6c0,0.1,0,0.2,0.1,0.3C14.8,20,14.9,20,15,20s0.2,0,0.3-0.1
			c0.1-0.1,0.1-0.2,0.1-0.3V19c0-0.1,0-0.2-0.1-0.3C15.2,18.7,15.1,18.7,15,18.7z M15.2,19.6c0,0.1,0,0.1,0,0.1c0,0-0.1,0-0.1,0
			c-0.1,0-0.1,0-0.1,0c0,0,0-0.1,0-0.1V19c0-0.1,0-0.1,0-0.1s0.1,0,0.1,0c0.1,0,0.1,0,0.1,0c0,0,0,0.1,0,0.1V19.6z"/>
		<path d="M16.2,19.6c0,0.1,0,0.1,0,0.1c0,0-0.1,0-0.1,0c-0.1,0-0.1,0-0.1,0c0,0,0-0.1,0-0.1v-1h-0.2v1c0,0.1,0,0.2,0.1,0.3
			c0.1,0.1,0.1,0.1,0.2,0.1c0.1,0,0.1,0,0.2-0.1c0,0,0.1-0.1,0.1-0.1V20h0.2v-1.3h-0.2V19.6z"/>
		<path d="M16.9,18.9v-0.2h-0.2V20h0.2v-0.8c0-0.1,0-0.2,0.1-0.2s0.2-0.1,0.3-0.1c0,0,0,0,0,0c0,0,0,0,0,0v-0.2
			c-0.1,0-0.2,0-0.2,0.1C17,18.8,16.9,18.8,16.9,18.9z"/>
		<path d="M18.1,18.2c-0.1,0.1-0.1,0.1-0.1,0.3v0.2h-0.1v0.2H18V20h0.2v-1.1h0.3v-0.2h-0.3v-0.2c0,0,0-0.1,0-0.1c0,0,0.1,0,0.1,0
			h0.1v-0.2h-0.1C18.3,18.2,18.2,18.2,18.1,18.2z"/>
		<rect x="18.7" y="18.2" width="0.2" height="0.2"/>
		<rect x="18.7" y="18.7" width="0.2" height="1.3"/>
		<path d="M19.7,18.7c-0.1,0-0.1,0-0.2,0.1c0,0-0.1,0.1-0.1,0.1v-0.2h-0.2V20h0.2v-0.9c0-0.1,0-0.1,0-0.2c0,0,0.1-0.1,0.1-0.1
			c0.1,0,0.1,0,0.1,0.1c0,0,0,0.1,0,0.2V20H20v-1c0-0.1,0-0.2-0.1-0.3C19.9,18.7,19.8,18.7,19.7,18.7z"/>
		<path d="M20.7,18.7c-0.1,0-0.2,0-0.3,0.1c-0.1,0.1-0.1,0.2-0.1,0.3l0.2,0c0-0.1,0-0.1,0-0.1c0,0,0.1-0.1,0.1-0.1
			c0.1,0,0.1,0,0.1,0.1c0,0,0.1,0.1,0.1,0.1v0.2h-0.2c-0.1,0-0.2,0-0.3,0.1c-0.1,0.1-0.1,0.2-0.1,0.3c0,0.1,0,0.2,0.1,0.3
			c0.1,0.1,0.1,0.1,0.3,0.1c0.1,0,0.1,0,0.2,0c0,0,0.1-0.1,0.1-0.1c0,0,0,0,0,0V20h0.2v-1c0-0.1,0-0.2-0.1-0.3
			C20.9,18.7,20.8,18.7,20.7,18.7z M20.8,19.8c0,0-0.1,0.1-0.2,0.1c-0.1,0-0.1,0-0.1,0c0,0,0-0.1,0-0.1c0-0.1,0-0.2,0.1-0.2
			c0,0,0.1-0.1,0.2-0.1h0.2v0.2C20.9,19.7,20.9,19.8,20.8,19.8z"/>
		<path d="M21.9,18.7c-0.1,0-0.1,0-0.2,0.1c0,0-0.1,0.1-0.1,0.1v-0.2h-0.2V20h0.2v-0.9c0-0.1,0-0.1,0-0.2c0,0,0.1-0.1,0.1-0.1
			s0.1,0,0.1,0.1c0,0,0,0.1,0,0.2V20h0.2v-1c0-0.1,0-0.2-0.1-0.3C22,18.7,22,18.7,21.9,18.7z"/>
		<path d="M23,19.6c0,0.1,0,0.1,0,0.1c0,0-0.1,0.1-0.1,0.1c-0.1,0-0.1,0-0.1-0.1c0,0-0.1-0.1-0.1-0.1v-0.6c0-0.1,0-0.1,0.1-0.2
			c0,0,0.1-0.1,0.1-0.1c0.1,0,0.1,0,0.1,0.1c0,0,0.1,0.1,0.1,0.2v0h0.2v0c0-0.1,0-0.2-0.1-0.3c-0.1-0.1-0.2-0.1-0.3-0.1
			c-0.1,0-0.2,0-0.3,0.1c-0.1,0.1-0.1,0.2-0.1,0.3v0.6c0,0.1,0,0.2,0.1,0.3c0.1,0.1,0.2,0.1,0.3,0.1c0.1,0,0.2,0,0.3-0.1
			s0.1-0.2,0.1-0.3v0L23,19.6L23,19.6z"/>
		<rect x="23.4" y="18.2" width="0.2" height="0.2"/>
		<rect x="23.4" y="18.7" width="0.2" height="1.3"/>
		<path d="M24.3,18.7c-0.1,0-0.2,0-0.3,0.1C24,18.8,24,18.9,24,19l0.2,0c0-0.1,0-0.1,0-0.1c0,0,0.1-0.1,0.1-0.1c0.1,0,0.1,0,0.1,0.1
			c0,0,0.1,0.1,0.1,0.1v0.2h-0.2c-0.1,0-0.2,0-0.3,0.1c-0.1,0.1-0.1,0.2-0.1,0.3c0,0.1,0,0.2,0.1,0.3c0.1,0.1,0.1,0.1,0.3,0.1
			c0.1,0,0.1,0,0.2,0c0,0,0.1-0.1,0.1-0.1c0,0,0,0,0,0V20h0.2v-1c0-0.1,0-0.2-0.1-0.3C24.6,18.7,24.5,18.7,24.3,18.7z M24.5,19.8
			c0,0-0.1,0.1-0.2,0.1c-0.1,0-0.1,0-0.1,0c0,0,0-0.1,0-0.1c0-0.1,0-0.2,0.1-0.2c0,0,0.1-0.1,0.2-0.1h0.2v0.2
			C24.5,19.7,24.5,19.8,24.5,19.8z"/>
		<path d="M25.2,19.8c0,0,0-0.1,0-0.1v-1.5H25v1.5c0,0.1,0,0.2,0.1,0.3c0.1,0.1,0.1,0.1,0.2,0.1h0.1v-0.2L25.2,19.8
			C25.3,19.8,25.3,19.8,25.2,19.8z"/>
		<path d="M26.7,18.8c0,0-0.1-0.1-0.1-0.1c-0.1,0-0.1-0.1-0.2-0.1c-0.1,0-0.2,0-0.2,0.1c-0.1,0.1-0.1,0.2-0.1,0.3v0.6
			c0,0.1,0,0.2,0.1,0.3c0.1,0.1,0.1,0.1,0.2,0.1c0.1,0,0.1,0,0.2-0.1c0,0,0.1-0.1,0.1-0.1V20h0.2v-1.8h-0.2V18.8z M26.7,19.7
			C26.6,19.8,26.6,19.8,26.7,19.7c-0.1,0.1-0.1,0.1-0.2,0.1c-0.1,0-0.1,0-0.1-0.1c0,0,0-0.1,0-0.2v-0.5c0-0.1,0-0.1,0-0.2
			c0,0,0.1-0.1,0.1-0.1c0,0,0.1,0,0.1,0c0,0,0,0,0.1,0.1c0,0,0,0.1,0,0.1v0.5C26.7,19.7,26.7,19.7,26.7,19.7z"/>
		<path d="M27.7,19.6c0,0.1,0,0.1,0,0.1c0,0-0.1,0-0.1,0c-0.1,0-0.1,0-0.1-0.1c0,0-0.1-0.1-0.1-0.2v-0.2h0.6v-0.3
			c0-0.1,0-0.2-0.1-0.3c-0.1-0.1-0.2-0.1-0.3-0.1c-0.1,0-0.2,0-0.3,0.1c-0.1,0.1-0.1,0.2-0.1,0.3v0.5c0,0.1,0,0.2,0.1,0.3
			c0.1,0.1,0.2,0.1,0.3,0.1c0.1,0,0.2,0,0.3-0.1c0.1-0.1,0.1-0.2,0.1-0.3v0L27.7,19.6L27.7,19.6z M27.4,18.9c0,0,0.1-0.1,0.1-0.1
			c0.1,0,0.1,0,0.1,0.1c0,0,0,0.1,0,0.2v0.1h-0.4v-0.1C27.4,19,27.4,19,27.4,18.9z"/>
		<path d="M28.8,19.4c0,0-0.1,0-0.1-0.1c0,0-0.1,0-0.1,0c0,0-0.1,0-0.1,0c0,0-0.1,0-0.1-0.1c0,0,0-0.1,0-0.1c0-0.1,0-0.1,0-0.1
			c0,0,0.1,0,0.1,0s0.1,0,0.1,0c0,0,0,0.1,0,0.1v0h0.2v0c0-0.1,0-0.2-0.1-0.3c-0.1-0.1-0.2-0.1-0.3-0.1c-0.1,0-0.2,0-0.3,0.1
			c-0.1,0.1-0.1,0.2-0.1,0.3c0,0.1,0,0.1,0,0.2c0,0,0,0.1,0.1,0.1c0,0,0.1,0,0.1,0.1c0,0,0.1,0,0.1,0c0,0,0.1,0,0.1,0
			c0,0,0.1,0,0.1,0.1c0,0,0,0.1,0,0.1c0,0.1,0,0.1,0,0.1c0,0-0.1,0.1-0.1,0.1c-0.1,0-0.1,0-0.1-0.1c0,0,0-0.1,0-0.2v0h-0.2v0
			c0,0.1,0,0.2,0.1,0.3c0.1,0.1,0.2,0.1,0.3,0.1c0.1,0,0.2,0,0.3-0.1c0.1-0.1,0.1-0.2,0.1-0.3c0-0.1,0-0.1,0-0.2
			S28.8,19.4,28.8,19.4z"/>
		<rect x="29.1" y="18.2" width="0.2" height="0.2"/>
		<rect x="29.1" y="18.7" width="0.2" height="1.3"/>
		<path d="M30.2,18.8c0,0-0.1-0.1-0.1-0.1c-0.1,0-0.1-0.1-0.2-0.1c-0.1,0-0.2,0-0.2,0.1c-0.1,0.1-0.1,0.2-0.1,0.3v0.6
			c0,0.1,0,0.2,0.1,0.3c0.1,0.1,0.1,0.1,0.2,0.1c0.1,0,0.1,0,0.2-0.1c0,0,0.1-0.1,0.1-0.1v0.3c0,0.1,0,0.1,0,0.1c0,0-0.1,0-0.1,0
			s-0.1,0-0.1,0c0,0,0-0.1,0-0.1v0h-0.2v0c0,0.1,0,0.2,0.1,0.3c0.1,0.1,0.2,0.1,0.3,0.1c0.1,0,0.2,0,0.3-0.1
			c0.1-0.1,0.1-0.2,0.1-0.3v-1.5h-0.2V18.8z M30.2,19.7C30.2,19.8,30.1,19.8,30.2,19.7c-0.1,0.1-0.1,0.1-0.2,0.1
			c-0.1,0-0.1,0-0.1-0.1c0,0,0-0.1,0-0.2v-0.6c0-0.1,0-0.1,0-0.2c0,0,0.1-0.1,0.1-0.1c0,0,0.1,0,0.1,0c0,0,0,0,0.1,0.1
			c0,0,0,0.1,0,0.1v0.5C30.2,19.7,30.2,19.7,30.2,19.7z"/>
		<path d="M31.2,18.7c-0.1,0-0.1,0-0.2,0.1c0,0-0.1,0.1-0.1,0.1v-0.2h-0.2V20h0.2v-0.9c0-0.1,0-0.1,0-0.2c0,0,0.1-0.1,0.1-0.1
			s0.1,0,0.1,0.1c0,0,0,0.1,0,0.2V20h0.2v-1c0-0.1,0-0.2-0.1-0.3C31.4,18.7,31.3,18.7,31.2,18.7z"/>
		<path d="M32.3,19.6c0,0.1,0,0.1,0,0.1c0,0-0.1,0-0.1,0c-0.1,0-0.1,0-0.1-0.1c0,0-0.1-0.1-0.1-0.2v-0.2h0.6v-0.3
			c0-0.1,0-0.2-0.1-0.3c-0.1-0.1-0.2-0.1-0.3-0.1c-0.1,0-0.2,0-0.3,0.1c-0.1,0.1-0.1,0.2-0.1,0.3v0.5c0,0.1,0,0.2,0.1,0.3
			C31.9,20,32,20,32.2,20c0.1,0,0.2,0,0.3-0.1c0.1-0.1,0.1-0.2,0.1-0.3v0L32.3,19.6L32.3,19.6z M32,18.9c0,0,0.1-0.1,0.1-0.1
			c0.1,0,0.1,0,0.1,0.1c0,0,0,0.1,0,0.2v0.1H32v-0.1C32,19,32,19,32,18.9z"/>
		<path d="M33,18.9v-0.2h-0.2V20H33v-0.8c0-0.1,0-0.2,0.1-0.2c0.1-0.1,0.2-0.1,0.3-0.1c0,0,0,0,0,0c0,0,0,0,0,0v-0.2
			c-0.1,0-0.2,0-0.2,0.1C33.1,18.8,33.1,18.8,33,18.9z"/>
	</g>
</g>
</svg>
