<?xml version="1.0" encoding="UTF-8"?>
<!DOCTYPE svg PUBLIC "-//W3C//DTD SVG 1.1//EN" "http://www.w3.org/Graphics/SVG/1.1/DTD/svg11.dtd">
<!-- Creator: CorelDRAW -->
<svg xmlns="http://www.w3.org/2000/svg" xml:space="preserve" width="101.6mm" height="53.34mm" version="1.1" style="shape-rendering:geometricPrecision; text-rendering:geometricPrecision; image-rendering:optimizeQuality; fill-rule:evenodd; clip-rule:evenodd"
viewBox="0 0 10160 5334"
 xmlns:xlink="http://www.w3.org/1999/xlink"
 xmlns:xodm="http://www.corel.com/coreldraw/odm/2003">
 <defs>
  <style type="text/css">
   <![CDATA[
    .fil2 {fill:none}
    .fil0 {fill:black}
    .fil1 {fill:white}
   ]]>
  </style>
 </defs>
 <g id="Layer_x0020_1">
  <metadata id="CorelCorpID_0Corel-Layer"/>
  <g id="_3183618728784">
   <polygon class="fil0" points="472.62,1987.45 592.23,1884.15 728.14,1813.48 869.49,1769.99 1027.14,1759.12 9132.86,1759.12 9285.09,1769.99 9431.88,1813.48 9562.35,1884.15 9681.95,1987.45 9785.24,2107.05 9855.92,2237.53 9899.4,2384.31 9910.28,2536.53 9910.28,2895.33 9899.4,3052.99 9855.92,3194.34 9785.24,3330.25 9681.95,3449.85 9562.35,3547.7 9431.88,3618.39 9285.09,3661.87 9132.86,3678.18 1027.14,3678.18 869.49,3661.87 728.14,3618.39 592.23,3547.7 472.62,3449.85 374.76,3330.25 304.09,3194.34 260.6,3052.99 244.29,2895.33 244.29,2536.53 260.6,2384.31 304.09,2237.53 374.76,2107.05 472.62,1987.45 "/>
   <polygon class="fil0" points="450.88,1960.27 575.92,1856.98 711.83,1780.86 864.04,1737.37 1027.14,1721.06 9132.86,1721.06 9295.96,1737.37 9442.74,1780.86 9584.09,1856.98 9709.14,1960.27 9812.42,2090.74 9888.54,2226.65 9932.02,2378.88 9948.33,2536.53 9948.33,2895.33 9932.02,3058.42 9888.54,3210.65 9812.42,3346.56 9709.14,3471.6 9584.09,3580.32 9442.74,3651 9295.96,3699.93 9132.86,3710.8 1027.14,3710.8 864.04,3699.93 711.83,3651 575.92,3580.32 450.88,3471.6 347.59,3346.56 271.48,3210.65 227.98,3058.42 211.67,2895.33 211.67,2536.53 227.98,2378.88 271.48,2226.65 347.59,2090.74 450.88,1960.27 483.5,1992.89 385.64,2112.48 314.97,2242.96 271.48,2384.31 255.17,2536.53 255.17,2895.33 271.48,3052.99 314.97,3194.34 385.64,3324.82 483.5,3438.98 603.09,3542.27 733.57,3612.94 874.92,3651 1027.14,3667.31 9132.86,3667.31 9285.09,3651 9426.43,3612.94 9556.91,3542.27 9676.52,3438.98 9774.37,3324.82 9845.04,3194.34 9888.54,3052.99 9899.4,2895.33 9899.4,2536.53 9888.54,2384.31 9845.04,2242.96 9774.37,2112.48 9676.52,1992.89 9556.91,1895.03 9426.43,1824.36 9285.09,1780.86 9132.86,1769.99 1027.14,1769.99 874.92,1780.86 733.57,1824.36 603.09,1895.03 483.5,1992.89 450.88,1960.27 "/>
   <path class="fil0" d="M1309.84 1182.85l0 -81.54c-5.45,10.87 -16.31,21.75 -27.19,32.61 -16.31,5.45 -32.62,10.88 -48.93,10.88 0,-5.43 5.44,-10.88 5.44,-16.31 0,-5.43 0,-10.87 0,-16.31 0,-16.31 -10.87,-32.62 -16.31,-48.92 -10.87,-10.88 -27.18,-21.75 -43.49,-21.75 -16.3,0 -27.18,5.44 -32.61,16.31 -10.88,10.87 -16.31,27.18 -16.31,38.05 0,27.19 10.86,43.5 32.62,54.36 0,16.31 -5.45,32.62 -21.76,48.93 -10.86,10.88 -27.17,16.31 -43.48,16.31 -21.76,0 -32.62,-5.43 -43.5,-21.74 -10.88,-10.88 -16.31,-32.62 -16.31,-59.81 0,-32.61 16.31,-65.23 43.5,-103.28 10.86,-10.88 27.17,-21.74 43.48,-38.05l-59.79 -81.55 -27.19 16.31 21.74 21.74c-10.86,16.31 -27.17,27.19 -38.05,38.05 -21.74,32.62 -32.62,70.68 -32.62,114.17 0,43.49 10.88,86.99 32.62,114.16 21.74,32.62 54.36,43.5 92.43,43.5 32.62,0 65.23,-10.88 86.98,-38.05 10.87,-10.88 16.31,-21.76 27.18,-43.5 5.43,5.43 10.87,5.43 16.31,5.43 10.87,5.45 16.31,5.45 21.74,5.45 5.44,0 16.31,0 21.74,0 5.45,0 16.31,0 21.76,-5.45zm0 -228.33l0 347.94c0,21.74 10.86,43.49 27.17,59.79 21.76,21.76 38.07,27.19 59.81,27.19 10.87,0 27.18,-5.43 38.05,-16.31 5.44,0 10.88,-10.88 21.75,-16.31l-21.75 -70.67c0,5.44 0,10.87 0,10.87 -5.43,10.87 -10.87,16.31 -16.31,27.18 -5.43,5.44 -10.87,10.88 -21.74,21.75 0,0 -5.43,5.44 -10.88,5.44l0 -353.37 -76.1 -43.5zm-201.16 429.49l201.16 -108.73 0 -59.81 -239.21 108.73 38.05 59.81zm728.49 -184.85l-76.12 0 0 -54.36 -70.66 -59.8 -125.05 0c0,-5.44 0,-5.44 0,-5.44 -5.43,-16.3 -5.43,-27.18 -5.43,-27.18 0,-10.87 10.88,-21.74 32.62,-27.18 21.74,-5.44 48.93,-5.44 76.11,-5.44 21.75,0 43.49,0 59.8,0 10.87,5.44 21.75,5.44 21.75,5.44l-21.75 -97.85 -38.05 5.43 10.87 32.62c-5.44,0 -10.87,-5.43 -10.87,-5.43 -5.44,0 -10.88,0 -21.75,0 -38.06,0 -76.11,5.43 -103.3,10.86 -43.48,10.88 -59.79,27.19 -59.79,48.93 0,16.31 0,27.19 5.43,43.5 10.88,16.3 21.74,32.61 27.19,38.05 -10.88,5.44 -16.31,10.87 -21.75,16.31 -16.31,16.3 -27.18,38.06 -27.18,65.23 0,54.38 27.18,103.3 81.55,152.23 43.48,38.05 70.67,59.79 81.54,59.79l21.75 -21.74c-10.88,0 -27.19,-16.31 -59.81,-48.93 -38.05,-38.05 -59.79,-81.54 -59.79,-119.59 0,-16.31 5.43,-27.19 16.31,-43.5 10.86,-10.88 27.17,-16.31 43.48,-16.31l76.12 0 0 54.36 -48.93 0c-10.88,0 -16.31,5.45 -16.31,16.31 0,16.31 16.31,38.06 54.36,70.68 32.62,27.18 54.37,43.49 65.24,43.49 10.87,0 10.87,-5.44 10.87,-16.31l0 -48.93 86.98 0 0 38.06c0,21.74 5.45,43.49 27.19,59.79 16.31,21.76 38.05,27.19 59.8,27.19 10.87,0 21.74,-5.43 38.05,-16.31 5.44,0 10.88,-10.88 16.31,-16.31l-16.31 -70.67c-5.43,5.44 -5.43,10.87 -5.43,10.87 -5.44,10.87 -10.88,16.31 -16.31,27.18 0,5.44 -10.87,10.88 -16.31,21.75 -5.44,0 -10.87,5.44 -16.31,5.44l0 -353.37 -76.11 -43.5 0 244.64zm244.64 -108.72c-16.31,16.31 -27.19,27.18 -32.62,32.62 -27.19,27.17 -38.05,48.93 -38.05,70.67 0,27.19 10.86,54.36 27.17,76.11 21.76,21.75 48.93,32.62 76.12,32.62 5.43,0 16.31,0 27.18,-5.44 0,0 5.44,0 10.87,-5.43l38.06 103.28 43.48 -27.17 -48.92 -86.99c0,0 10.87,-5.43 21.75,-16.31 16.31,-10.87 21.74,-27.17 21.74,-38.05 0,-16.31 -5.43,-21.74 -10.87,-32.62 -10.87,-5.43 -16.31,-5.43 -27.18,-5.43 -16.31,0 -27.18,0 -38.06,10.86 -10.87,10.88 -16.31,21.76 -16.31,32.62 0,5.45 0,10.88 0,21.75 -10.87,5.44 -21.74,10.87 -32.62,10.87 -10.86,0 -21.74,-5.43 -32.62,-10.87 -10.86,-10.87 -10.86,-21.75 -10.86,-32.61 0,-21.76 10.86,-38.07 43.48,-65.24 10.88,-5.45 21.75,-16.31 43.5,-32.62 32.61,16.31 59.8,27.17 92.42,27.17 16.31,0 32.62,-5.43 48.93,-10.86l0 -70.68c-5.45,5.44 -16.31,10.87 -16.31,10.87 -21.76,10.88 -32.62,16.31 -38.07,21.75 -5.43,0 -10.86,0 -16.3,0 -5.44,0 -10.87,0 -21.75,0 -5.43,0 -5.43,0 -10.87,0 0,0 -5.44,0 -5.44,0 10.88,-5.44 21.75,-16.31 32.62,-32.62 10.88,-10.87 16.31,-21.74 16.31,-32.62 0,-27.17 -10.87,-48.93 -32.62,-65.24 -21.74,-21.74 -43.49,-27.17 -70.67,-27.17 -27.18,0 -43.49,5.43 -65.23,16.31 -16.31,16.31 -27.19,32.62 -27.19,54.36 0,16.31 10.88,38.05 21.74,54.36 16.31,16.31 21.76,21.75 27.19,21.75zm27.19 -16.31c-5.45,-5.44 -10.88,-10.87 -16.31,-21.75 -5.45,-10.87 -5.45,-16.31 -5.45,-27.18 0,-16.3 5.45,-27.18 10.88,-38.06 10.88,-10.86 21.74,-16.31 38.05,-10.86 5.44,0 16.31,0 21.75,10.86 5.44,5.45 10.87,16.31 10.87,21.76 0,16.3 -5.43,27.17 -27.18,43.48 -5.44,5.44 -16.31,16.31 -32.61,21.75zm173.95 -119.61l0 347.94c0,21.74 5.45,43.49 27.19,59.79 16.31,21.76 38.05,27.19 59.8,27.19 10.87,0 21.75,-5.43 38.06,-16.31 5.43,0 10.87,-10.88 16.3,-16.31l-16.3 -70.67c-5.44,5.44 -5.44,10.87 -5.44,10.87 -5.44,10.87 -5.44,16.31 -16.31,27.18 0,5.44 -5.44,10.88 -16.31,21.75 -5.44,0 -5.44,5.44 -10.87,5.44l0 -353.37 -76.12 -43.5zm320.76 -152.21c38.05,0 81.54,10.87 125.04,38.05 38.05,16.31 70.67,38.06 108.72,70.68 16.31,10.86 32.62,27.17 43.5,38.05l27.18 -21.74c0,-5.45 -16.31,-21.76 -54.37,-48.93 -43.48,-32.62 -86.98,-65.24 -130.48,-86.99 -59.79,-27.17 -114.16,-43.48 -157.64,-43.48 -43.5,0 -76.12,16.31 -87,43.48 -10.86,21.75 -16.3,59.8 -16.3,119.61l0 43.48 0 347.94c0,21.74 5.44,43.49 27.18,59.79 16.31,21.76 38.05,27.19 59.81,27.19 10.86,0 21.74,-5.43 38.05,-16.31 5.43,0 10.87,-10.88 16.31,-16.31l-16.31 -70.67c0,5.44 -5.43,10.87 -5.43,10.87 0,10.87 -5.45,16.31 -10.88,27.18 -5.43,5.44 -10.88,10.88 -21.74,21.75 0,0 -5.45,5.44 -10.88,5.44l0 -396.87c0,-10.86 0,-16.31 0,-27.17 0,-10.88 0,-16.31 0,-27.19 0,-32.62 0,-54.36 10.88,-70.67 10.86,-16.31 27.17,-27.18 54.36,-27.18zm130.47 521.89l168.53 -141.35 0 -65.23c-21.74,-21.75 -38.05,-38.06 -54.36,-48.93 -43.5,-27.18 -86.98,-43.49 -130.48,-43.49 -10.88,0 -27.18,5.44 -43.49,10.87 -16.31,5.44 -32.62,10.88 -43.49,16.31l27.18 70.68c10.87,-10.88 27.18,-21.75 43.49,-27.19 21.74,-10.87 38.05,-16.31 48.93,-16.31 21.74,0 48.93,5.44 70.67,16.31 32.62,10.88 54.37,27.19 65.24,38.05l-201.15 135.92 48.93 54.36zm168.53 -369.68l0 347.94c0,21.74 5.44,43.49 27.18,59.79 16.31,21.76 38.05,27.19 59.81,27.19 10.86,0 21.74,-5.43 38.05,-16.31 5.43,0 10.88,-10.88 16.31,-16.31l-16.31 -70.67c-5.43,5.44 -5.43,10.87 -5.43,10.87 -5.45,10.87 -5.45,16.31 -16.31,27.18 0,5.44 -5.45,10.88 -16.31,21.75 -5.45,0 -5.45,5.44 -10.88,5.44l0 -353.37 -76.11 -43.5zm190.28 32.62c5.43,0 5.43,0 10.87,0 16.31,0 27.18,5.45 32.62,16.31 5.43,5.45 10.87,21.75 10.87,38.06 0,27.18 -16.31,48.93 -38.05,59.8 -10.88,5.44 -21.75,10.87 -38.06,10.87 0,38.05 16.31,76.12 43.49,119.6 27.18,32.62 59.8,48.93 92.42,48.93 27.19,0 48.93,-5.43 70.67,-10.87 5.45,0 16.31,-5.44 32.62,-16.31l0 48.93c0,21.74 10.88,43.49 27.19,59.79 16.31,21.76 38.05,27.19 59.8,27.19 10.87,0 27.17,-5.43 38.05,-16.31 10.88,-10.88 16.31,-16.31 21.74,-16.31l-21.74 -70.67c-5.43,5.44 -5.43,10.87 -5.43,10.87 -5.45,10.87 -5.45,16.31 -10.88,27.18 -5.43,5.44 -16.31,16.31 -27.18,21.75 0,0 -5.44,5.44 -5.44,5.44l0 -353.37 -76.11 -43.5 0 206.59c-16.31,16.31 -38.05,32.62 -54.36,43.5 -21.74,10.86 -43.5,16.31 -59.81,16.31 -27.17,0 -48.92,-10.88 -59.79,-32.62 -5.44,-10.88 -10.88,-21.76 -10.88,-21.76 21.75,-5.43 38.06,-16.31 43.5,-21.74 32.62,-21.74 48.93,-54.36 48.93,-86.98 0,-38.06 -16.31,-65.23 -38.06,-81.54 -21.75,-16.31 -54.37,-21.76 -86.98,-21.76l0 32.62zm668.68 -184.83c38.05,0 81.54,10.87 125.04,38.05 38.05,16.31 70.67,38.06 108.72,70.68 16.31,10.86 32.62,27.17 43.5,38.05l27.18 -21.74c0,-5.45 -16.31,-21.76 -54.37,-48.93 -43.48,-32.62 -86.98,-65.24 -130.47,-86.99 -59.8,-27.17 -114.17,-43.48 -157.65,-43.48 -43.5,0 -76.12,16.31 -86.99,43.48 -10.87,21.75 -16.31,59.8 -16.31,119.61l0 43.48 0 347.94c0,21.74 5.44,43.49 27.18,59.79 16.31,21.76 38.05,27.19 59.81,27.19 10.86,0 21.74,-5.43 38.05,-16.31 5.43,0 10.88,-10.88 16.31,-16.31l-16.31 -70.67c0,5.44 -5.43,10.87 -5.43,10.87 0,10.87 -5.45,16.31 -10.88,27.18 -5.43,5.44 -10.88,10.88 -21.74,21.75 0,0 -5.45,5.44 -10.88,5.44l0 -396.87c0,-10.86 0,-16.31 0,-27.17 0,-10.88 0,-16.31 0,-27.19 0,-32.62 0,-54.36 10.88,-70.67 10.86,-16.31 27.17,-27.18 54.36,-27.18zm217.45 152.21l43.5 27.19 -81.55 86.98c21.74,16.31 38.05,27.18 48.93,32.62 32.62,27.18 48.93,48.92 48.93,65.23 0,16.31 -5.44,27.19 -10.88,32.62 -10.87,5.45 -21.74,10.88 -38.05,10.88 -27.19,0 -54.36,-16.31 -81.55,-43.5 -21.74,-21.74 -38.05,-38.05 -38.05,-43.48l16.31 -27.19 -70.68 -43.49c-5.43,0 -5.43,5.44 -10.87,21.75 -10.87,32.62 -16.31,65.24 -16.31,86.98 0,65.24 21.75,119.6 65.24,163.09 43.48,38.05 97.86,59.81 163.09,59.81 32.62,0 65.24,-5.45 97.86,-21.76 32.62,-16.3 48.93,-38.05 48.93,-59.79 0,-10.87 0,-21.75 -5.45,-27.18 -10.86,-10.88 -16.31,-10.88 -27.17,-10.88 -16.31,0 -27.19,0 -32.62,10.88 -10.88,10.87 -10.88,16.31 -10.88,32.61 0,10.88 0,16.31 10.88,27.19 -10.88,5.43 -16.31,5.43 -21.75,5.43 -16.31,5.44 -27.18,5.44 -38.05,5.44 -70.67,0 -119.6,-21.75 -152.22,-65.24 -16.31,-27.18 -27.19,-65.24 -27.19,-108.72 0,-10.88 0,-16.31 0,-21.76 0,10.88 16.31,27.19 54.36,59.81 43.5,38.05 81.55,54.36 114.17,54.36 16.31,0 38.06,-5.43 54.37,-16.31 16.31,-16.31 21.74,-32.62 21.74,-48.93 0,-21.74 -10.87,-48.93 -38.05,-76.1 -21.75,-21.75 -38.06,-32.62 -43.49,-32.62l76.11 -92.42 -92.42 -70.67 -27.19 27.17zm445.8 212.02l0 -81.54 -119.61 0c-27.18,0 -48.93,10.87 -65.24,32.62 -16.31,21.75 -27.17,48.92 -27.17,76.11 0,38.05 16.31,81.55 48.92,130.47 10.87,16.31 27.18,38.05 48.93,59.81l27.18 -16.31c-16.31,-16.31 -27.18,-32.62 -32.62,-43.5 -21.74,-32.61 -32.62,-65.23 -32.62,-92.42 0,-16.31 5.44,-32.62 16.31,-48.93 10.88,-10.86 21.75,-16.31 38.06,-16.31l97.86 0zm-5.45 -212.02l0 347.94c0,21.74 10.88,43.49 32.62,59.79 16.31,21.76 38.07,27.19 59.81,27.19 10.87,0 21.74,-5.43 38.05,-16.31 5.44,0 10.87,-10.88 16.31,-16.31l-16.31 -70.67c-5.43,5.44 -5.43,10.87 -5.43,10.87 -5.44,10.87 -10.88,16.31 -16.31,27.18 0,5.44 -10.88,10.88 -16.31,21.75 -5.44,0 -5.44,5.44 -10.88,5.44l0 -353.37 -81.55 -43.5zm-157.65 -212.02l16.31 70.68c10.87,0 21.75,0 27.18,0 21.75,-5.44 38.06,-5.44 48.93,-5.44 21.75,0 48.92,21.75 70.68,70.68 21.74,38.05 32.62,65.24 32.62,76.1l38.05 0c-21.74,-48.93 -38.05,-81.54 -48.93,-103.29 -38.05,-70.67 -70.67,-108.73 -86.98,-108.73l-97.86 0zm619.76 527.34l0 -81.54c-5.45,5.43 -21.76,16.31 -48.93,27.17 -16.31,10.88 -32.62,16.31 -43.5,16.31 -10.87,0 -21.74,-5.43 -32.61,-10.86 -10.88,-5.45 -16.31,-10.88 -27.19,-21.76 10.88,0 27.19,-10.86 48.93,-32.62 27.18,-32.62 43.49,-65.23 43.49,-103.28 0,-32.62 -16.31,-59.81 -38.05,-81.55 -27.18,-21.74 -54.37,-38.05 -81.54,-38.05 -16.31,0 -32.62,5.43 -48.93,10.86 -27.19,5.45 -43.5,10.88 -54.37,21.76l54.37 59.79c0,0 10.86,-10.87 27.17,-16.31 16.31,-16.31 38.07,-21.74 54.37,-21.74 10.87,0 21.75,5.43 27.18,10.88 5.44,5.43 10.88,16.3 10.88,21.74 0,27.18 -10.88,54.36 -38.06,76.11 -16.3,21.74 -32.61,27.17 -38.06,27.17 -5.43,0 -10.86,-5.43 -16.31,-10.86 -10.86,-5.44 -16.31,-5.44 -27.17,-5.44 -16.31,0 -27.19,5.44 -38.07,10.87 -10.86,5.43 -16.3,16.31 -16.3,32.62 0,16.31 5.44,32.62 16.3,43.5 16.31,10.86 32.62,10.86 48.93,10.86 10.88,0 16.31,0 27.19,0 5.43,10.88 27.19,27.19 65.24,48.93 27.18,16.31 54.36,21.75 76.11,21.75 5.43,0 16.31,0 32.62,-5.44 5.43,-5.43 10.86,-5.43 16.31,-10.87zm59.79 -337.06l10.88 27.19c-21.74,5.43 -43.5,16.31 -54.36,32.62 -16.31,16.31 -21.76,38.05 -21.76,59.79 0,21.75 5.45,48.93 21.76,76.11 10.86,21.74 21.74,32.62 27.17,38.05 -5.43,5.45 -10.86,5.45 -10.86,10.88 -16.31,16.31 -21.76,38.05 -21.76,65.24 0,48.93 16.31,81.54 54.38,108.73 27.17,27.17 65.23,38.05 108.72,38.05 70.68,0 130.47,-27.19 179.4,-86.98 48.93,-54.37 76.11,-125.04 76.11,-201.15 0,-43.49 -10.87,-76.11 -27.18,-103.29 -21.75,-32.62 -48.93,-48.93 -92.41,-48.93 -27.19,0 -54.38,10.88 -70.69,27.19 -21.74,21.74 -32.62,48.92 -32.62,76.1 0,38.06 16.31,70.68 38.07,97.85 38.05,38.07 65.24,59.81 86.98,59.81 0,10.88 -16.31,32.62 -54.36,65.24 -43.5,38.05 -86.99,59.8 -130.48,59.8 -27.18,0 -48.93,-5.44 -65.23,-10.88 -16.31,-10.87 -27.19,-32.61 -27.19,-54.36 0,-27.18 21.74,-54.37 54.36,-70.68 32.62,-21.74 54.37,-27.17 65.24,-21.74l-43.49 -65.24c-10.87,0 -21.75,5.44 -32.62,10.88 -10.87,5.43 -21.75,16.31 -32.61,21.74 -5.45,-10.88 -10.88,-16.31 -16.31,-27.18 0,-10.87 -5.45,-21.75 -5.45,-32.62 0,-21.74 10.88,-38.05 27.19,-48.93 27.18,-21.74 43.49,-27.17 65.24,-27.17l-48.93 -92.43 -27.19 16.31zm309.88 130.48c0,21.74 0,43.49 -5.43,65.23 0,16.31 -5.44,32.62 -16.31,48.93 -16.31,-5.43 -32.62,-16.31 -48.93,-38.05 -10.88,-21.75 -21.74,-43.5 -21.74,-76.11 0,-16.31 5.43,-38.06 16.31,-48.93 5.43,-16.31 16.31,-21.74 32.61,-21.74 16.31,0 27.18,5.43 32.62,21.74 10.87,10.87 10.87,27.18 10.87,48.93zm119.61 407.73c0,-32.62 -10.88,-54.36 -32.62,-70.67 -16.31,-16.31 -43.5,-27.19 -70.68,-27.19 -21.74,0 -43.49,5.43 -65.24,10.88 -10.86,5.43 -21.74,10.86 -32.62,16.31l27.19 59.79c16.31,-5.43 21.74,-10.86 32.62,-10.86 21.74,-10.88 38.05,-16.31 48.92,-16.31 32.62,0 48.93,10.86 48.93,32.62 0,16.31 -10.87,32.61 -38.05,38.05 -16.31,10.87 -38.06,10.87 -65.24,10.87 -38.06,0 -76.11,-10.87 -108.73,-32.61 -43.49,-27.19 -70.67,-54.38 -76.11,-76.12l-32.62 10.88c0,5.43 10.88,21.74 32.62,48.93 27.18,27.17 54.37,54.36 86.99,76.1 38.05,27.18 76.1,38.06 114.16,38.06 38.05,0 70.67,-10.88 92.41,-27.19 27.19,-21.74 38.07,-48.92 38.07,-81.54zm233.76 -440.35c0,-5.44 5.43,-5.44 16.31,-10.88 21.74,-16.31 48.93,-21.74 70.67,-21.74 16.31,0 27.19,0 38.06,5.43 5.44,5.45 10.87,16.31 10.87,21.75 0,21.75 -16.31,38.06 -38.05,54.36 -10.88,5.44 -32.62,16.31 -70.67,32.62 -38.07,21.74 -65.24,38.05 -81.55,54.36 -16.31,16.31 -27.19,43.5 -27.19,70.69 0,38.05 16.31,70.66 43.5,97.85 32.62,27.17 65.24,38.05 108.72,38.05 21.75,0 43.5,-5.43 70.68,-10.88 32.62,-10.86 59.79,-21.74 76.1,-32.61l-54.36 -65.24c-16.31,10.88 -27.18,21.75 -38.05,27.19 -32.62,21.74 -65.23,27.18 -97.85,27.18 -16.31,0 -32.62,-5.44 -43.5,-16.31 -10.88,-10.87 -21.74,-21.75 -21.74,-43.49 0,-27.19 21.74,-48.93 54.36,-65.24 21.74,-5.43 38.05,-16.31 59.8,-21.74 43.49,-27.19 70.67,-43.5 81.55,-59.81 10.87,-16.31 16.31,-38.05 16.31,-65.23 0,-27.19 -10.88,-54.36 -32.62,-76.12 -27.18,-21.74 -54.37,-32.62 -81.54,-32.62 -21.76,0 -43.5,5.45 -65.24,10.88 -27.19,5.43 -38.07,10.88 -43.5,16.31l48.93 65.24zm-48.93 478.4l32.62 32.62 125.04 -114.17 135.91 130.48 54.36 -48.93 -179.4 -130.48 -168.53 130.48zm625.19 -326.19l0 -76.1c-10.87,5.43 -21.74,16.31 -38.05,21.74 -10.88,0 -21.74,5.43 -38.05,5.43 -10.88,0 -16.31,0 -21.76,0 5.45,-16.3 5.45,-27.17 5.45,-38.05 0,-38.05 -10.88,-70.67 -32.62,-103.28 -27.19,-27.19 -54.37,-43.5 -92.42,-43.5 -16.31,0 -32.62,0 -48.93,5.43 -16.31,5.45 -21.74,5.45 -27.19,10.88l32.62 70.67c0,0 5.44,-5.43 16.31,-10.87 21.75,-10.87 43.49,-16.3 59.8,-16.3 21.75,0 32.62,5.43 43.5,21.74 0,5.43 5.43,21.74 5.43,38.05 0,27.18 -16.31,48.93 -38.05,70.68 -5.44,5.43 -16.31,10.86 -32.62,21.74 -5.44,-5.43 -10.87,-10.88 -21.75,-16.31 -10.87,-5.43 -16.31,-10.88 -27.18,-10.88 -16.3,0 -21.75,5.45 -32.61,16.31 -5.45,10.88 -5.45,27.19 -5.45,38.07 0,21.74 5.45,38.05 21.76,48.93 10.86,5.43 32.61,10.86 54.36,10.86 0,10.88 10.87,32.62 27.18,65.24 27.18,43.49 54.36,65.23 81.55,70.68 5.43,0 10.86,0 16.31,0 10.86,0 21.74,0 38.05,0 0,0 5.43,-5.45 10.88,-5.45l-21.76 -86.97c-10.86,5.43 -16.31,10.87 -21.74,10.87 -16.31,5.43 -32.62,10.87 -38.05,10.87 -16.31,-5.44 -32.62,-16.31 -43.5,-38.05 -5.43,-10.88 -10.87,-21.75 -16.31,-38.05 16.31,-5.45 32.62,-16.31 48.93,-27.19 10.88,-16.31 21.74,-27.19 32.62,-43.5 0,0 5.43,5.45 16.31,10.88 10.88,5.43 21.74,10.88 32.62,10.88 0,5.43 5.43,5.43 10.88,5.43 10.86,0 21.74,-5.43 38.05,-5.43 0,0 5.43,-5.45 5.43,-5.45zm65.24 -152.21c5.44,-5.44 10.87,-5.44 16.31,-10.88 27.18,-16.31 48.92,-21.74 76.11,-21.74 16.31,0 27.19,0 32.62,5.43 10.88,5.45 10.88,16.31 10.88,21.75 0,21.75 -10.88,38.06 -32.62,54.36 -10.88,5.44 -32.62,16.31 -70.69,32.62 -38.05,21.74 -65.23,38.05 -81.54,54.36 -16.31,16.31 -27.18,43.5 -27.18,70.69 0,38.05 16.31,70.66 43.49,97.85 32.62,27.17 65.23,38.05 108.73,38.05 21.74,0 43.5,-5.43 70.67,-10.88 32.62,-10.86 59.8,-21.74 76.11,-32.61l-54.36 -65.24c-16.31,10.88 -27.18,21.75 -38.06,27.19 -32.62,21.74 -65.24,27.18 -97.86,27.18 -16.3,0 -32.61,-5.44 -43.48,-16.31 -16.31,-10.87 -21.75,-21.75 -21.75,-43.49 0,-27.19 21.75,-48.93 54.37,-65.24 21.74,-5.43 38.05,-16.31 59.79,-21.74 43.5,-27.19 65.24,-43.5 81.55,-59.81 10.88,-16.31 16.31,-38.05 16.31,-65.23 0,-27.19 -10.87,-54.36 -38.05,-76.12 -21.74,-21.74 -48.93,-32.62 -76.12,-32.62 -21.74,0 -43.48,5.45 -70.67,10.88 -21.74,5.43 -38.05,10.88 -38.05,16.31l43.49 65.24zm511.03 114.16l0 -70.67 -228.33 0c-5.45,0 -10.88,0 -10.88,5.43 -5.43,5.44 -5.43,10.88 -5.43,16.31 0,16.31 16.31,38.05 43.48,76.12 27.19,38.05 48.93,59.79 59.81,59.79 0,0 5.43,0 10.88,-5.43 5.43,-5.43 5.43,-5.43 5.43,-10.88l0 -70.67 125.04 0zm0 -190.28l0 347.94c0,21.74 10.86,43.49 32.62,59.79 16.31,21.76 38.05,27.19 59.79,27.19 10.88,0 21.75,-5.43 38.06,-16.31 5.44,0 10.87,-10.88 16.31,-16.31l-16.31 -70.67c-5.44,5.44 -5.44,10.87 -5.44,10.87 -5.43,10.87 -5.43,16.31 -16.31,27.18 0,5.44 -5.43,10.88 -16.31,21.75 -5.43,0 -5.43,5.44 -10.86,5.44l0 -353.37 -81.55 -43.5zm163.09 516.47c0,-32.62 -5.44,-54.36 -27.18,-70.67 -21.75,-16.31 -43.5,-27.19 -70.67,-27.19 -21.76,0 -43.5,5.43 -70.69,10.88 -5.43,5.43 -16.3,10.86 -32.61,16.31l32.61 59.79c10.88,-5.43 21.76,-10.86 27.19,-10.86 21.74,-10.88 38.05,-16.31 54.36,-16.31 27.19,0 43.5,10.86 43.5,32.62 0,16.31 -10.88,32.61 -32.62,38.05 -16.31,10.87 -38.05,10.87 -65.24,10.87 -38.05,0 -76.11,-10.87 -108.73,-32.61 -43.48,-27.19 -70.67,-54.38 -76.1,-76.12l-32.62 10.88c0,5.43 10.86,21.74 32.62,48.93 21.74,27.17 54.36,54.36 81.54,76.1 38.05,27.18 76.1,38.06 114.17,38.06 38.05,0 70.67,-10.88 97.85,-27.19 21.75,-21.74 32.62,-48.92 32.62,-81.54zm-114.16 -706.73c-16.31,0 -27.19,5.43 -38.07,16.3 -10.86,10.87 -16.31,21.75 -16.31,38.06 0,16.3 5.45,32.61 16.31,43.49 10.88,10.87 21.76,16.31 38.07,16.31 21.74,0 32.62,-5.44 43.48,-16.31 10.88,-16.31 16.31,-27.19 16.31,-43.49 0,-16.31 -5.43,-27.19 -16.31,-38.06 -10.86,-10.87 -21.74,-16.3 -43.48,-16.3zm511.02 402.28l-76.12 48.93 -54.36 -48.93 0 -141.34c0,-21.75 -5.43,-43.49 -21.74,-59.8 -21.75,-10.88 -38.06,-21.74 -65.23,-21.74 -10.88,0 -21.76,5.43 -32.62,10.86l0 97.86c0,-10.87 0,-21.74 10.86,-38.05 10.88,-16.31 21.76,-21.74 32.62,-27.19l0 152.23 97.86 92.41 -125.03 76.11 43.48 59.81 190.28 -130.47 0 65.23c0,21.74 10.88,43.49 27.18,59.79 16.31,21.76 38.06,27.19 59.8,27.19 10.87,0 27.18,-5.43 38.06,-16.31 10.87,-10.88 16.31,-16.31 16.31,-16.31l-16.31 -70.67c-5.44,5.44 -5.44,10.87 -5.44,10.87 -5.44,10.87 -5.44,16.31 -10.87,27.18 -5.44,5.44 -16.31,16.31 -27.19,21.75 0,0 -5.43,5.44 -5.43,5.44l0 -353.37 -76.11 -43.5 0 212.02zm288.13 -233.76l27.18 27.19c-5.43,0 -21.74,10.86 -43.49,27.17 -27.18,27.19 -38.06,48.93 -38.06,70.68 0,16.31 5.45,38.05 16.31,54.36 16.31,21.74 32.62,32.62 48.93,38.05l-103.29 43.5 54.36 65.24 103.3 -59.81c10.87,5.45 16.31,10.88 16.31,16.31 10.86,10.88 16.31,27.19 16.31,43.5 0,27.18 -10.88,48.92 -32.62,59.8 -16.31,16.31 -43.49,21.74 -70.68,21.74 -21.74,0 -43.48,-5.43 -76.1,-10.87 -5.45,-5.44 -21.76,-10.87 -38.07,-16.31l0 32.62c10.88,10.87 32.62,21.75 70.69,32.61 32.61,10.88 59.79,16.31 86.97,16.31 32.62,0 59.81,-10.86 81.55,-27.17 27.19,-16.31 38.05,-43.5 38.05,-76.11 0,-21.75 -5.43,-43.5 -27.17,-70.67 -5.45,-10.88 -16.31,-21.76 -27.19,-38.07l86.98 -38.05 -59.79 -59.8 -92.43 48.92c-5.43,-5.43 -10.87,-10.86 -10.87,-16.3 -10.87,-16.31 -16.31,-27.18 -16.31,-32.62 0,-21.74 16.31,-43.49 38.06,-59.8 21.74,-16.3 32.62,-21.75 43.48,-21.75l-65.23 -86.98 -27.18 16.31zm228.33 21.74l0 347.94c0,21.74 5.44,43.49 27.18,59.79 16.31,21.76 38.06,27.19 59.8,27.19 10.88,0 27.19,-5.43 38.05,-16.31 5.45,0 10.88,-10.88 16.31,-16.31l-16.31 -70.67c0,5.44 -5.43,10.87 -5.43,10.87 0,10.87 -5.43,16.31 -10.88,27.18 -5.43,5.44 -10.86,10.88 -21.74,21.75 0,0 -5.43,5.44 -10.87,5.44l0 -353.37 -76.11 -43.5zm304.44 179.4c0,16.31 -10.87,27.19 -21.75,38.07 -5.43,10.86 -16.3,16.31 -27.18,21.74 -10.87,-16.31 -21.74,-21.74 -43.48,-21.74 -10.88,0 -21.76,5.43 -32.62,10.86 -10.88,10.88 -16.31,21.76 -16.31,32.62 0,27.19 10.86,43.5 38.05,54.37 21.74,5.44 32.62,5.44 38.05,5.44 0,5.43 10.88,27.18 32.62,54.36 27.18,38.06 48.93,54.37 70.68,54.37 16.31,0 27.17,0 38.05,0 16.31,0 27.19,0 38.05,0l-27.17 -76.12c-10.88,0 -16.31,5.44 -27.19,5.44 -10.88,5.44 -21.74,5.44 -27.19,5.44 -16.3,0 -32.61,-10.88 -43.48,-27.18 -5.44,-5.44 -10.88,-16.31 -16.31,-27.19 27.18,-10.87 54.36,-32.62 76.1,-65.24 27.19,-32.62 38.07,-76.1 38.07,-125.03 0,-32.62 -10.88,-65.23 -27.19,-92.42 -21.74,-27.19 -48.93,-43.5 -81.55,-43.5 -27.18,0 -48.92,10.88 -65.23,27.19 -16.31,16.31 -27.19,32.62 -27.19,59.8 0,32.62 16.31,59.8 54.37,81.55 32.62,21.74 48.93,27.17 59.8,27.17zm16.31 -21.74c-16.31,0 -32.62,-10.87 -43.49,-27.18 -10.87,-16.31 -16.31,-32.62 -16.31,-48.93 0,-16.31 5.44,-27.17 10.87,-38.05 5.44,-10.88 16.31,-10.88 32.62,-10.88 10.87,0 21.75,5.45 27.18,10.88 5.43,10.88 10.88,21.74 10.88,32.62 0,21.74 0,38.05 -10.88,54.36 -5.43,16.31 -5.43,21.75 -10.87,27.18zm135.92 -157.66l0 347.94c0,21.74 10.86,43.49 32.61,59.79 16.31,21.76 32.62,27.19 54.36,27.19 16.31,0 27.19,-5.43 43.5,-16.31 0,0 5.43,-10.88 16.31,-16.31l-21.76 -70.67c0,5.44 0,10.87 0,10.87 -5.43,10.87 -10.86,21.75 -16.3,27.18 -5.44,5.44 -10.87,10.88 -16.31,21.75 -5.44,0 -10.87,5.44 -16.31,5.44l0 -353.37 -76.1 -43.5zm418.59 190.28l0 -70.67 -233.76 0c-5.43,0 -5.43,0 -10.88,5.43 -5.43,5.44 -5.43,10.88 -5.43,16.31 0,16.31 16.31,38.05 43.5,76.12 27.17,38.05 48.92,59.79 59.79,59.79 5.44,0 5.44,0 10.88,-5.43 5.43,-5.43 5.43,-5.43 5.43,-10.88l0 -70.67 130.47 0zm0 -190.28l0 347.94c0,21.74 5.45,43.49 27.19,59.79 16.31,21.76 38.05,27.19 59.8,27.19 10.87,0 27.18,-5.43 38.05,-16.31 5.44,0 10.88,-10.88 16.31,-16.31l-16.31 -70.67c0,5.44 -5.43,10.87 -5.43,10.87 0,10.87 -5.44,16.31 -10.87,27.18 -5.44,5.44 -10.88,10.88 -21.75,21.75 0,0 -5.44,5.44 -10.87,5.44l0 -353.37 -76.12 -43.5z"/>
   <path class="fil1" d="M1163.06 2792.04l43.48 -157.66 -119.6 0 21.74 -92.41 -163.09 0 -70.67 277.26c-5.43,21.74 -16.31,43.48 -38.05,65.24 -21.76,16.31 -43.5,27.17 -70.68,27.17 -48.93,0 -76.1,-38.05 -76.1,-119.6 0,-32.62 5.43,-65.23 16.3,-108.73 10.87,-59.79 38.06,-114.17 76.11,-163.09 43.49,-48.93 86.99,-76.11 135.92,-76.11 27.17,0 48.92,0 76.1,5.44 27.18,5.43 38.06,10.87 43.49,10.87l32.62 -146.78c-16.31,-5.44 -32.62,-10.88 -54.36,-16.31 -27.19,0 -48.93,-5.44 -76.11,-5.44 -86.98,0 -168.53,38.06 -244.64,108.73 -76.12,76.11 -130.48,168.52 -157.66,277.26 -5.44,38.05 -10.87,81.54 -10.87,125.04 0,81.55 16.31,146.78 54.36,195.71 38.05,54.36 97.86,81.55 173.97,81.55 59.79,0 114.17,-21.76 173.96,-65.24 54.37,-48.93 92.42,-103.3 103.3,-168.54l16.31 -54.36 114.17 0zm146.78 -483.84l-179.4 744.79 184.83 0 179.4 -744.79 -184.83 0zm-516.47 831.77l48.93 119.61 342.5 -277.26 27.18 -125.04 -418.61 282.69zm1413.48 -826.33c-21.75,-5.44 -43.49,-10.88 -54.37,-16.31 -43.48,-10.88 -81.55,-16.31 -108.72,-16.31 -59.81,0 -114.17,16.31 -163.1,38.05 -59.8,27.19 -97.85,70.67 -108.73,125.04 -5.43,16.31 -5.43,27.18 -5.43,32.62 0,16.31 0,32.62 10.86,48.93 0,0 5.45,5.43 10.88,16.31 -43.49,16.31 -76.11,32.62 -97.85,48.93 -65.24,54.36 -114.17,130.47 -135.91,222.88 -5.45,38.07 -10.88,70.69 -10.88,97.86 0,92.42 32.62,163.09 92.43,217.47 59.79,54.36 135.9,81.54 228.33,81.54 65.23,0 130.47,-16.31 190.26,-43.49l32.62 -146.79c-21.74,10.88 -43.48,21.74 -65.24,27.19 -48.92,16.31 -86.97,27.17 -119.59,27.17 -54.36,0 -97.86,-16.31 -135.91,-54.36 -32.62,-38.05 -48.93,-86.98 -48.93,-141.35 0,-16.31 0,-38.05 5.43,-59.79 16.31,-59.81 43.5,-108.73 76.12,-146.79 43.48,-43.49 92.41,-65.23 146.78,-65.23 21.74,0 32.62,5.43 43.49,16.31 5.44,5.43 10.87,16.31 5.44,32.62l-16.31 54.36c-10.88,0 -21.75,5.43 -32.62,5.43 -48.93,16.31 -81.54,54.37 -97.85,114.16 -5.45,10.88 -5.45,21.76 -5.45,32.62 0,32.62 10.88,59.81 32.62,76.12 21.75,21.74 54.37,27.18 92.42,27.18 48.93,0 86.98,-16.31 119.6,-54.37 10.88,-16.31 16.31,-32.62 27.19,-59.79l114.16 0 -48.93 201.14 184.84 0 179.4 -744.79 -184.83 0 -97.86 407.73 -114.16 -5.43 27.18 -114.17c5.43,-10.88 5.43,-21.74 5.43,-32.62 0,-21.74 -5.43,-38.05 -10.87,-48.93 -10.87,-10.87 -21.74,-16.31 -43.49,-16.31l-130.47 0c-21.75,0 -38.06,-5.43 -48.93,-10.87 -10.87,-5.43 -16.31,-16.31 -10.87,-32.62 5.43,-21.74 16.3,-32.62 32.61,-38.05 21.75,-5.43 48.93,-5.43 81.55,-5.43 21.74,0 48.93,0 76.11,5.43 27.18,5.43 48.93,10.88 54.36,16.31l27.19 -119.6zm467.53 135.91c0,10.87 -5.44,27.18 -5.44,38.05 0,16.31 5.44,27.18 10.88,38.06 0,5.43 0,10.87 5.43,16.31l146.79 0c-5.43,-5.44 -5.43,-16.31 -5.43,-21.75 0,-10.87 0,-27.18 5.43,-43.49 5.43,-21.75 16.31,-38.06 38.05,-54.37 16.31,-10.86 38.06,-21.74 59.8,-21.74 16.31,0 32.62,5.43 48.93,21.74 10.88,10.88 21.74,27.19 21.74,43.5 0,5.43 -5.43,10.87 -5.43,21.74 -5.43,27.18 -27.19,54.37 -59.8,70.68 -27.18,16.31 -65.24,27.17 -125.03,43.48 -70.69,16.31 -125.05,38.07 -163.1,59.81 -54.37,32.62 -92.42,86.98 -108.73,157.66 -5.43,10.86 -5.43,21.74 -10.88,32.62 0,16.31 0,21.74 0,27.17 0,59.81 32.62,103.3 103.3,135.92 48.93,16.31 103.29,27.17 163.1,27.17 21.74,0 32.62,0 38.05,-5.43l48.93 184.84 152.21 -108.72 -76.1 -97.86c21.74,0 43.48,-16.31 70.67,-43.5 16.31,-21.74 32.62,-48.92 43.49,-86.97 0,-10.88 5.44,-21.76 5.44,-32.62 0,-21.76 -10.88,-38.07 -27.19,-54.38 -16.31,-10.86 -32.62,-21.74 -59.79,-21.74 -27.19,0 -59.81,10.88 -86.99,32.62 -27.18,21.74 -48.93,48.93 -54.36,81.55 -10.88,5.43 -21.74,10.88 -27.19,10.88 -21.74,5.43 -38.05,5.43 -48.93,5.43 -16.31,-5.43 -32.62,-10.88 -43.48,-16.31 -5.45,-10.88 -10.88,-21.74 -10.88,-43.5 0,-5.43 0,-16.31 5.43,-43.48 5.45,-21.75 43.5,-43.5 114.17,-70.68 27.19,-10.87 65.24,-21.74 103.3,-32.62 16.31,-5.43 27.17,-10.87 32.62,-10.87l266.38 0 38.05 -135.92 -190.27 0c10.87,-10.86 21.75,-16.3 27.18,-21.74 21.75,-21.74 38.06,-48.92 43.49,-76.11 5.44,-16.31 5.44,-27.17 5.44,-38.05 0,-43.5 -16.31,-76.12 -48.93,-97.86 -38.05,-21.74 -86.98,-38.05 -157.65,-38.05 -70.68,0 -130.47,16.31 -173.97,38.05 -54.36,27.19 -92.42,70.67 -108.73,130.48zm695.86 -141.35l-179.4 744.79 184.84 0 179.4 -744.79 -184.84 0zm994.87 -70.67l173.97 -54.36c-16.31,-59.81 -59.8,-119.61 -125.04,-168.54 -70.67,-48.93 -157.66,-70.67 -266.38,-70.67 -103.3,0 -195.71,32.62 -271.83,97.85 -76.11,65.24 -130.47,157.66 -152.21,266.39l-179.41 744.79 179.41 0 179.4 -744.79c21.74,-43.49 38.05,-76.11 48.93,-103.29 48.93,-65.24 103.29,-103.29 173.96,-103.29 81.54,0 152.22,21.74 195.71,70.67 16.31,16.31 32.62,38.05 43.49,65.24zm-141.35 59.8c-59.79,0 -130.47,32.62 -201.14,97.86 -59.81,48.92 -92.43,86.98 -97.86,103.28l65.24 141.36c32.62,-38.07 59.8,-65.24 76.11,-87 59.8,-59.79 97.86,-92.41 119.6,-92.41 27.19,0 48.93,38.05 59.81,114.17 0,21.74 5.43,59.79 10.86,108.72l-315.31 168.54 81.55 141.34 391.42 -228.33 38.05 -163.1 -48.93 21.76c0,-5.45 0,-10.88 0,-16.31 0,-5.45 0,-16.31 0,-27.19 0,-65.24 -5.43,-125.04 -27.17,-173.97 -27.19,-70.67 -81.55,-108.72 -152.23,-108.72zm331.63 10.87l-179.4 744.79 179.4 0 179.4 -744.79 -179.4 0zm320.74 157.66l157.66 0c16.31,0 27.19,5.43 38.06,10.87 10.87,10.87 16.3,21.74 16.3,38.05 0,5.44 0,10.88 -5.43,16.31 -5.43,21.74 -16.31,38.05 -32.62,48.93 -16.31,10.88 -38.05,16.31 -54.36,16.31l-130.47 0c-21.76,0 -38.06,5.43 -54.37,21.74 -16.31,10.88 -32.62,32.62 -38.05,54.37 -5.44,27.18 -5.44,48.93 -5.44,76.11 0,70.68 21.74,130.47 76.1,179.4 48.93,48.93 108.74,70.68 184.85,70.68 43.49,0 92.41,-10.88 146.79,-32.62 16.31,-5.44 38.05,-16.31 65.23,-27.18l-32.62 114.16 190.27 0 179.4 -744.79 -190.26 0 -103.3 445.79c-27.18,16.31 -43.49,27.18 -59.8,38.05 -54.37,27.19 -103.3,38.05 -152.22,38.05 -32.62,0 -65.24,-5.43 -92.42,-21.74 -27.18,-16.31 -38.06,-32.62 -32.61,-54.36 5.43,-16.31 16.31,-27.18 38.05,-27.18 5.43,0 16.31,0 21.74,0 10.88,0 16.31,0 21.75,0 10.87,0 21.74,0 27.18,0 48.92,-10.88 92.42,-32.62 130.47,-65.24 38.06,-32.62 65.24,-81.55 81.55,-146.79 0,-10.87 5.44,-21.74 5.44,-27.18 0,-5.43 0,-16.31 0,-27.18 0,-43.49 -10.88,-81.54 -32.62,-108.73 -21.75,-27.19 -54.37,-43.49 -92.42,-43.49l-233.76 0 -38.07 157.66zm2033.24 -228.33l168.52 -54.36c-16.31,-59.81 -54.36,-119.61 -125.03,-168.54 -70.68,-48.93 -157.66,-70.67 -266.39,-70.67 -103.29,0 -195.71,32.62 -271.82,97.85 -76.11,65.24 -125.04,157.66 -152.22,266.39l-179.41 744.79 184.85 0 179.4 -744.79c16.31,-43.49 32.62,-76.11 43.49,-103.29 48.92,-65.24 108.73,-103.29 173.97,-103.29 86.97,0 152.21,21.74 195.71,70.67 16.31,16.31 32.62,38.05 48.93,65.24zm-195.72 244.64c-54.36,16.3 -103.28,48.92 -157.66,97.85 -48.93,48.93 -81.54,114.17 -92.41,184.84 -10.88,32.61 -10.88,59.8 -10.88,86.99 0,92.41 32.62,163.09 97.86,217.45 65.24,43.5 141.35,65.24 239.21,65.24 92.41,0 173.96,-16.31 250.07,-54.36l43.5 -168.54c-27.19,16.31 -54.38,27.19 -70.69,32.62 -65.23,27.18 -135.9,38.06 -206.57,38.06 -43.5,0 -81.55,-16.31 -114.17,-43.49 -27.18,-27.19 -43.49,-65.24 -43.49,-119.6 0,-5.45 0,-16.31 5.43,-32.62 0,-10.88 5.44,-27.19 5.44,-38.06 10.87,-48.93 38.05,-86.98 76.11,-119.6 16.3,-5.43 38.06,-16.31 54.37,-27.19l108.72 16.31c27.18,5.45 43.49,10.88 54.37,16.31 21.74,5.45 32.62,21.76 32.62,38.06 0,5.44 -5.45,10.87 -5.45,21.75 0,10.87 -10.86,16.31 -27.17,21.74 -16.31,5.44 -38.06,5.44 -59.8,5.44 -21.75,0 -43.5,0 -65.24,-10.87 -10.88,0 -16.31,-5.44 -27.19,-10.88l-38.05 163.09c16.31,5.45 32.62,10.88 43.5,10.88 32.62,5.43 65.23,5.43 92.41,5.43 59.8,0 114.16,-10.86 152.23,-32.62 54.36,-27.17 86.98,-81.54 108.72,-152.21 0,-16.31 0,-27.19 0,-38.05 0,-48.93 -16.31,-81.55 -54.36,-114.17 -32.62,-21.75 -65.24,-32.62 -103.29,-38.06 -48.93,-5.44 -81.55,-10.87 -97.86,-10.87 -21.75,-5.44 -27.18,-16.31 -21.75,-32.62 0,-16.31 10.88,-27.18 21.75,-32.61 16.31,-5.45 43.49,-10.88 81.55,-10.88 21.74,0 48.93,5.43 86.98,10.88 10.88,5.43 27.19,10.86 43.49,16.3l38.06 -146.78c-10.88,0 -32.62,-5.44 -76.12,-16.31 -43.48,-5.44 -70.67,-5.44 -81.55,-5.44 -92.41,0 -163.09,16.31 -212.02,48.92 -48.92,32.62 -70.67,81.55 -70.67,141.36 0,5.43 0,10.87 0,10.87 0,5.44 0,5.44 0,5.44zm1032.92 125.04l38.07 -163.1 -228.33 0c-65.24,0 -130.48,32.62 -195.72,86.98 -59.8,59.81 -103.3,125.05 -119.61,206.59 -10.86,38.05 -16.31,70.67 -16.31,103.29 0,86.98 32.62,146.78 97.86,179.4 38.06,27.19 86.99,38.05 135.92,38.05 10.86,-5.43 16.31,-5.43 21.74,-5.43l86.98 -173.97c-5.43,0 -21.74,5.45 -48.93,5.45 -27.17,0 -54.36,-5.45 -70.67,-16.31 -27.18,-16.31 -38.05,-38.07 -38.05,-70.69 0,-16.3 0,-32.61 10.87,-59.79 5.44,-32.62 21.75,-59.8 54.37,-86.99 27.17,-27.17 59.79,-43.48 92.41,-43.48l179.4 0zm119.61 -299.01l-179.4 744.79 184.84 0 179.4 -744.79 -184.84 0zm-179.4 -369.67l233.76 369.67 184.84 0 -163.1 -369.67 -255.5 0zm945.94 994.86l48.93 -195.71c-27.19,27.18 -59.81,48.93 -108.73,76.1 -43.5,21.76 -76.12,32.62 -97.86,32.62 -43.5,0 -70.67,-10.86 -92.42,-27.17 -10.87,-10.88 -16.31,-32.62 -27.18,-70.68 43.49,16.31 97.86,0 173.96,-48.93 54.37,-38.05 92.42,-97.86 108.73,-173.96 5.43,-27.19 10.88,-48.93 10.88,-65.24 0,-43.49 -10.88,-76.11 -32.62,-108.73 -21.75,-27.19 -54.37,-43.49 -92.42,-43.49l-250.07 0 -38.07 152.22 184.85 0c16.31,0 27.17,5.44 32.62,16.31 10.86,10.87 10.86,21.74 10.86,38.05 0,16.31 -5.43,38.05 -16.31,54.36 -16.31,10.88 -32.62,21.76 -54.36,21.76l-228.33 0 -38.05 157.65 70.67 0c0,10.87 0,21.75 0,32.62 0,54.37 10.88,97.85 32.62,135.91 38.05,54.36 97.86,81.55 184.83,81.55 32.62,0 70.69,-5.44 108.74,-16.31 38.05,-10.88 76.11,-27.18 108.73,-48.93zm434.91 -625.19l-179.41 0c-38.05,0 -70.66,16.3 -108.72,54.37 -38.06,32.62 -59.8,76.1 -70.68,119.6 -5.43,27.18 -10.86,38.05 -10.86,43.49 0,5.43 0,10.87 0,16.31 0,38.05 10.86,65.24 32.62,86.98 10.86,5.43 21.74,16.31 38.05,21.74 -21.74,16.31 -38.05,32.62 -48.93,43.5 -38.05,32.62 -59.81,70.67 -65.24,114.16 -5.43,10.88 -5.43,21.74 -5.43,27.19 -5.45,10.86 -5.45,16.31 -5.45,32.62 0,70.67 38.07,119.59 103.31,152.21 54.36,27.19 125.03,38.05 217.45,38.05 119.6,0 222.9,-38.05 309.88,-108.72 86.97,-76.11 146.78,-173.97 179.4,-299.01 16.31,-65.24 21.74,-119.6 21.74,-163.09 0,-65.24 -10.86,-108.72 -38.05,-141.34 -27.19,-32.62 -59.81,-48.93 -108.73,-48.93 -54.36,0 -108.72,27.17 -163.1,76.1 -48.92,54.38 -81.54,114.17 -97.85,179.4 -5.44,16.31 -5.44,32.62 -10.87,43.5 0,16.31 0,27.19 0,38.05 0,54.37 16.31,86.99 48.93,108.73 21.74,16.31 54.36,27.19 92.41,27.19 10.88,0 21.76,-5.44 32.62,-5.44 5.45,0 16.31,0 21.75,-5.44 -27.18,32.62 -54.37,59.81 -70.68,76.12 -59.79,43.48 -119.6,70.67 -179.4,70.67 -54.36,0 -92.41,-5.43 -125.03,-16.31 -32.62,-10.88 -48.93,-32.62 -48.93,-65.24 0,0 0,-10.88 0,-21.74 5.43,-21.75 16.31,-38.06 27.18,-54.37 10.87,-10.87 27.18,-16.31 48.92,-16.31l59.81 0 38.05 -163.1 -97.86 0c-27.17,0 -38.05,-10.86 -38.05,-38.05 0,-16.31 5.44,-32.62 21.74,-43.49 10.88,-16.31 27.19,-27.18 43.5,-27.18l97.86 0 38.05 -152.22zm179.4 337.06c-16.31,0 -27.17,-5.43 -32.62,-16.31 -10.86,-5.43 -10.86,-21.74 -10.86,-38.05 0,-5.45 0,-10.88 0,-21.76 0,-10.86 5.43,-21.74 5.43,-27.17 5.43,-21.75 16.31,-48.93 32.62,-65.24 10.87,-21.75 32.62,-32.62 48.93,-32.62 32.61,0 48.92,21.75 48.92,65.24 0,32.62 -5.43,65.24 -21.74,86.98 -21.75,32.62 -43.49,48.93 -70.68,48.93zm233.77 581.7c0,-16.31 5.44,-38.06 5.44,-54.37 0,-43.48 -16.31,-76.1 -48.93,-103.29 -32.62,-27.19 -70.67,-38.05 -114.17,-38.05 -43.49,0 -86.97,5.43 -130.47,16.31 -59.81,16.31 -97.86,27.17 -103.29,38.05l43.48 130.47c16.31,-10.87 27.19,-21.74 32.62,-27.18 32.62,-16.31 54.38,-27.18 76.12,-27.18 27.18,0 43.49,5.44 54.36,10.87 5.44,10.88 10.87,21.75 10.87,32.62 0,10.87 0,21.75 -5.43,38.06 0,16.31 -16.31,32.62 -38.06,48.93 -27.17,16.31 -59.79,21.74 -103.29,21.74 -65.24,0 -125.04,-16.31 -168.52,-48.93 -48.93,-32.62 -76.12,-76.11 -81.55,-119.59l-163.09 54.36c16.31,70.66 54.36,130.47 119.59,184.83 65.24,54.37 146.79,81.55 244.64,81.55 81.55,0 157.66,-16.31 217.46,-54.36 81.54,-43.5 130.47,-103.29 152.22,-184.84z"/>
   <path class="fil0" d="M722.7 4151.15l0 -54.36c-5.44,5.43 -10.87,5.43 -16.31,10.87 -10.87,0 -16.3,0 -21.75,0 -16.31,0 -38.05,-10.87 -70.67,-32.61 -32.62,-21.76 -59.8,-27.19 -76.11,-27.19 -32.62,0 -54.36,5.43 -76.11,27.19 -16.3,16.31 -27.18,38.05 -27.18,65.23 0,32.62 16.31,59.8 43.49,76.1 16.31,5.45 38.05,10.88 65.24,10.88 5.43,0 10.87,0 16.31,0 10.86,0 16.31,0 16.31,0 10.86,0 21.74,0 27.17,5.43 5.45,0 5.45,5.45 5.45,10.88 0,16.31 -10.88,27.19 -32.62,32.62 -27.19,10.88 -38.06,10.88 -43.5,10.88 0,-5.45 -5.43,-10.88 -5.43,-10.88 -10.88,-10.88 -21.75,-16.31 -32.62,-16.31 -16.31,0 -32.62,0 -38.06,10.88 -10.86,5.43 -16.31,16.31 -16.31,32.62 0,16.31 16.31,32.61 38.06,43.48 10.87,0 21.75,0 43.49,5.44 5.44,16.31 16.31,27.18 21.75,32.62 16.31,27.18 38.05,38.05 59.79,38.05 5.45,0 21.76,-5.43 38.07,-10.87 5.43,0 16.31,-5.44 21.74,-10.87l-27.19 -43.49c-5.43,10.87 -16.31,10.87 -32.62,10.87 -21.74,0 -38.05,-5.44 -48.92,-21.75 21.75,-5.43 43.49,-16.31 65.23,-38.05 16.31,-16.31 27.19,-38.05 27.19,-65.24 0,-27.19 -16.31,-48.93 -43.5,-59.8 -21.74,-10.87 -48.92,-16.31 -81.54,-16.31 -16.31,0 -27.18,-5.44 -38.05,-10.87 -5.44,-5.44 -10.88,-16.31 -10.88,-27.18 0,-10.88 0,-16.31 10.88,-21.75 10.87,-10.87 21.74,-16.3 32.61,-16.3 10.88,0 27.19,5.43 38.06,16.3 16.3,5.44 27.18,10.87 38.06,21.75 5.43,0 21.74,10.87 43.48,27.18 16.31,10.87 32.62,16.31 48.93,16.31 5.45,0 10.88,-5.44 21.75,-5.44 5.44,-5.44 16.31,-10.87 16.31,-16.31zm0 -114.17l0 309.88c0,16.31 10.87,38.06 27.18,54.37 21.75,16.31 38.06,21.74 59.8,21.74 10.88,0 27.19,-5.43 38.05,-16.31 5.45,0 10.88,-5.43 16.31,-10.87l-16.31 -65.24c0,5.44 0,5.44 -5.43,10.88 0,5.43 -5.43,16.31 -10.88,21.74 -5.43,5.44 -10.86,10.88 -21.74,21.75 0,0 -5.43,0 -10.87,5.44l0 -315.31 -76.11 -38.07zm168.53 0l0 309.88c0,16.31 10.88,38.06 27.19,54.37 21.74,16.31 38.05,21.74 59.79,21.74 10.87,0 27.18,-5.43 38.06,-16.31 5.43,0 10.87,-5.43 16.31,-10.87l-16.31 -65.24c0,5.44 -5.44,5.44 -5.44,10.88 0,5.43 -5.44,16.31 -10.87,21.74 -5.44,5.44 -10.88,10.88 -21.75,21.75 0,0 -5.43,0 -10.87,5.44l0 -315.31 -76.11 -38.07zm320.75 -135.9c32.62,0 76.1,10.87 119.6,32.61 32.62,16.31 70.67,38.06 108.73,65.24 10.87,10.88 27.18,21.74 43.49,32.62l27.18 -16.31c0,-5.43 -21.74,-21.74 -54.36,-43.49 -43.49,-32.62 -86.99,-59.8 -130.47,-76.11 -59.81,-27.18 -108.73,-43.49 -152.23,-43.49 -48.93,0 -76.1,16.31 -92.41,38.05 -5.45,21.75 -10.88,54.37 -10.88,108.73l0 38.05 0 309.88c0,16.31 5.43,38.06 27.19,54.37 16.31,16.31 38.05,21.74 54.36,21.74 16.31,0 27.18,-5.43 43.49,-16.31 0,0 5.44,-5.43 16.31,-10.87l-21.75 -65.24c0,5.44 0,5.44 0,10.88 -5.43,5.43 -10.87,16.31 -16.31,21.74 -5.43,5.44 -10.86,10.88 -16.31,21.75 -5.43,0 -10.86,0 -16.31,5.44l0 -353.38c0,-10.86 0,-16.31 0,-21.74 0,-10.88 0,-16.31 0,-27.19 0,-27.17 5.45,-48.92 10.88,-59.79 10.88,-16.31 32.62,-27.18 59.8,-27.18zm239.2 320.75l0 -70.68 -119.6 0c-27.19,0 -48.93,10.87 -65.24,27.18 -16.31,21.75 -21.74,43.5 -21.74,70.67 0,32.62 10.87,70.69 43.48,114.17 10.88,16.31 27.19,32.62 48.93,54.37l21.76 -10.88c-10.88,-16.3 -21.76,-32.61 -27.19,-38.05 -21.74,-32.62 -32.62,-59.8 -32.62,-86.99 0,-16.31 5.43,-27.17 16.31,-38.05 5.43,-16.31 21.74,-21.74 32.62,-21.74l103.29 0zm0 -184.85l0 309.88c0,16.31 5.44,38.06 27.18,54.37 16.31,16.31 38.06,21.74 59.81,21.74 10.86,0 21.74,-5.43 38.05,-16.31 0,0 5.43,-5.43 16.31,-10.87l-21.74 -65.24c0,5.44 0,5.44 0,10.88 -5.45,5.43 -10.88,16.31 -16.31,21.74 0,5.44 -10.88,10.88 -16.31,21.75 -5.45,0 -10.88,0 -16.31,5.44l0 -315.31 -70.68 -38.07zm407.73 168.54l0 -59.8 -228.33 0c-5.43,0 -10.86,0 -10.86,5.43 -5.45,5.44 -5.45,5.44 -5.45,10.87 0,10.88 16.31,38.06 43.5,70.67 27.18,32.62 43.49,48.93 54.36,48.93 5.44,0 10.87,0 16.31,-5.43 0,0 5.44,-5.43 5.44,-10.88l0 -59.79 125.03 0zm-10.86 -168.54l0 309.88c0,16.31 10.86,38.06 27.17,54.37 21.75,16.31 38.06,21.74 59.81,21.74 10.87,0 27.18,-5.43 38.05,-16.31 5.44,0 10.87,-5.43 16.31,-10.87l-16.31 -65.24c0,5.44 -5.44,5.44 -5.44,10.88 0,5.43 -5.43,16.31 -10.87,21.74 -5.44,5.44 -10.87,10.88 -21.74,21.75 0,0 -5.44,0 -10.88,5.44l0 -315.31 -76.1 -38.07zm179.4 0l0 309.88c0,16.31 5.43,38.06 27.17,54.37 16.31,16.31 38.07,21.74 59.81,21.74 10.87,0 21.74,-5.43 38.05,-16.31 0,0 5.44,-5.43 16.31,-10.87l-21.74 -65.24c0,5.44 0,5.44 0,10.88 -5.44,5.43 -10.88,16.31 -16.31,21.74 0,5.44 -10.88,10.88 -16.31,21.75 -5.43,0 -10.88,0 -10.88,5.44l0 -315.31 -76.1 -38.07zm679.54 201.16l0 -65.24c-10.86,5.43 -27.17,10.87 -38.05,16.31 -10.87,5.43 -27.18,5.43 -38.05,5.43 -10.87,0 -16.31,0 -21.75,0 5.44,-10.87 5.44,-21.74 5.44,-32.62 0,-32.61 -10.87,-65.23 -32.61,-92.42 -21.76,-21.74 -54.38,-38.05 -87,-38.05 -21.74,0 -32.61,0 -48.92,5.43 -16.31,5.45 -27.18,5.45 -27.18,10.88l27.18 65.24c0,-5.44 5.44,-5.44 16.31,-10.88 27.18,-10.86 48.92,-16.31 65.23,-16.31 16.31,0 32.62,5.45 38.07,16.31 0,10.88 5.43,21.75 5.43,38.06 0,21.74 -10.88,43.49 -38.05,59.8 -5.45,5.44 -16.31,10.87 -32.62,21.75 -5.45,-10.88 -10.88,-16.31 -21.76,-16.31 -5.43,-5.44 -16.3,-10.88 -27.17,-10.88 -10.88,0 -21.75,5.44 -27.19,16.31 -5.43,10.88 -10.87,21.74 -10.87,32.62 0,21.74 10.87,32.62 21.75,43.5 16.31,5.43 32.62,10.86 54.36,10.86 0,10.88 10.88,27.19 32.62,59.81 21.74,38.05 48.93,54.36 76.11,59.8 5.44,0 10.87,0 16.31,0 10.87,0 21.75,0 38.05,0 0,0 5.44,0 10.88,-5.44l-27.18 -76.11c-5.44,5.44 -10.88,5.44 -16.31,10.87 -16.31,5.44 -32.62,5.44 -38.05,5.44 -16.31,0 -27.19,-10.87 -43.5,-32.61 -5.43,-5.45 -10.88,-16.31 -16.31,-32.62 16.31,-5.45 32.62,-10.88 48.93,-21.76 10.88,-16.31 21.74,-27.17 32.62,-43.48 0,5.43 5.43,5.43 16.31,10.86 10.87,5.45 21.74,10.88 32.61,16.31 0,0 5.44,0 10.88,0 10.87,0 21.74,-5.43 38.05,-5.43 0,0 0,0 5.43,-5.43zm0 -201.16l0 309.88c0,16.31 10.88,38.06 27.19,54.37 16.31,16.31 38.05,21.74 59.81,21.74 10.86,0 21.74,-5.43 38.05,-16.31 5.43,0 10.87,-5.43 16.31,-10.87l-16.31 -65.24c-5.43,5.44 -5.43,5.44 -5.43,10.88 -5.45,5.43 -10.88,16.31 -16.31,21.74 0,5.44 -5.45,10.88 -16.31,21.75 -5.45,0 -5.45,0 -10.88,5.44l0 -315.31 -76.12 -38.07zm347.95 48.93c0,0 -5.45,0 -16.31,0 -5.45,0 -10.88,-5.43 -16.31,-5.43 -38.07,0 -70.69,10.88 -92.43,21.74 -38.05,16.31 -54.36,48.93 -54.36,92.42 0,38.05 10.87,65.24 43.49,92.43 27.18,27.17 54.37,38.05 86.99,38.05 16.31,0 38.05,0 59.79,-5.43 10.88,-5.45 21.75,-10.88 32.62,-10.88l0 38.05c0,16.31 5.44,38.06 27.18,54.37 16.31,16.31 32.62,21.74 54.37,21.74 10.87,0 27.18,-5.43 38.06,-16.31 5.43,0 10.86,-5.43 16.31,-10.87l-16.31 -65.24c0,5.44 -5.45,5.44 -5.45,10.88 0,5.43 -5.43,16.31 -10.86,21.74 -5.45,5.44 -10.88,10.88 -21.75,21.75 0,0 -5.44,0 -10.87,5.44l0 -315.31 -76.11 -38.07 0 201.16c0,0 -10.88,5.43 -32.62,10.86 -27.19,10.88 -48.93,16.31 -65.24,16.31 -21.74,0 -43.5,-5.43 -59.8,-16.31 -16.31,-10.86 -21.75,-27.17 -21.75,-43.48 0,-21.75 10.88,-38.06 32.62,-48.93 16.31,-10.87 38.05,-16.31 70.67,-16.31 21.76,0 38.07,5.44 54.37,10.87l-16.3 -65.24zm212.02 -48.93l0 309.88c0,16.31 5.43,38.06 27.17,54.37 16.31,16.31 38.06,21.74 59.81,21.74 10.87,0 21.74,-5.43 38.05,-16.31 0,0 10.87,-5.43 16.31,-10.87l-16.31 -65.24c-5.44,5.44 -5.44,5.44 -5.44,10.88 -5.43,5.43 -10.87,16.31 -16.31,21.74 0,5.44 -10.87,10.88 -16.3,21.75 -5.44,0 -5.44,0 -10.88,5.44l0 -315.31 -76.1 -38.07zm48.92 0l21.75 0c-5.44,-5.43 -10.88,-10.86 -16.31,-32.62 -10.88,-21.74 -16.31,-48.92 -16.31,-70.67 0,-27.18 5.43,-43.49 27.18,-48.92 16.31,-10.88 32.62,-10.88 54.36,-10.88 10.88,0 21.75,0 21.75,0 5.44,0 5.44,0 10.87,0l0 -27.17c-21.74,-5.45 -38.05,-5.45 -54.36,-5.45 -32.62,0 -54.37,5.45 -70.68,16.31 -21.74,10.88 -32.62,32.62 -32.62,59.8 0,16.31 5.45,43.5 21.76,76.12 16.31,27.17 27.17,43.48 32.61,43.48zm76.11 -125.03c-10.87,0 -21.75,5.43 -27.18,10.87 -5.44,5.44 -5.44,16.31 -5.44,21.75 0,10.87 0,16.31 5.44,21.74 5.43,10.88 16.31,10.88 27.18,10.88 10.87,0 16.31,0 27.18,-10.88 5.43,-5.43 5.43,-10.87 5.43,-21.74 0,-5.44 0,-16.31 -5.43,-21.75 -10.87,-5.44 -16.31,-10.87 -27.18,-10.87zm114.16 195.71c10.88,-10.87 16.31,-16.3 21.76,-16.3 16.3,-16.31 32.61,-21.76 43.48,-21.76 21.75,0 32.62,10.88 43.49,27.19 10.88,10.87 16.31,27.18 16.31,48.93 0,27.18 -5.43,48.92 -21.74,65.23 -10.88,21.74 -27.18,27.19 -54.37,27.19 -16.31,0 -32.62,-10.88 -54.36,-32.62 -5.43,-5.44 -10.88,-16.31 -21.74,-32.62l-27.19 10.87c0,10.87 10.88,32.61 38.05,59.8 32.62,38.05 59.81,59.81 86.99,59.81 32.62,0 54.36,-10.88 76.11,-38.07 16.3,-21.74 21.75,-54.36 21.75,-92.41 0,-38.06 -10.88,-76.11 -32.62,-103.3 -27.19,-38.05 -59.8,-54.36 -97.86,-54.36 -16.3,0 -32.61,5.43 -48.92,10.88 -16.31,10.86 -27.19,16.31 -27.19,16.31l38.05 65.23zm233.78 -70.68l0 309.88c0,16.31 5.43,38.06 27.17,54.37 16.31,16.31 38.06,21.74 59.81,21.74 10.87,0 21.74,-5.43 38.05,-16.31 0,0 5.44,-5.43 16.31,-10.87l-21.75 -65.24c0,5.44 0,5.44 0,10.88 -5.43,5.43 -10.87,16.31 -16.31,21.74 0,5.44 -10.87,10.88 -16.3,21.75 -5.44,0 -10.88,0 -10.88,5.44l0 -315.31 -76.1 -38.07zm-5.45 0l65.24 32.62c-5.43,-10.86 -10.87,-16.31 -16.31,-27.17 -10.86,-21.76 -16.31,-48.93 -16.31,-70.68 0,-21.75 5.45,-38.06 21.75,-48.93 10.87,-16.31 27.18,-21.74 43.49,-21.74 21.75,0 38.06,10.87 54.37,27.18 16.31,21.74 27.17,59.79 27.17,108.72l0 309.88c0,16.31 10.88,38.06 27.19,54.37 21.74,16.31 38.05,21.74 59.81,21.74 10.86,0 27.17,-5.43 38.05,-16.31 5.43,0 10.87,-5.43 16.31,-10.87l-16.31 -65.24c0,5.44 -5.44,5.44 -5.44,10.88 0,5.43 -5.44,16.31 -10.87,21.74 -5.44,5.44 -10.88,10.88 -21.74,21.75 0,0 -5.45,0 -10.88,5.44l0 -353.38c0,-38.05 -16.31,-70.67 -43.5,-108.72 -32.62,-43.49 -70.67,-65.24 -114.16,-65.24 -43.49,0 -76.1,10.87 -97.86,27.18 -21.74,16.31 -32.62,43.49 -32.62,81.55 0,10.87 5.45,27.18 16.31,43.49 5.45,10.88 10.88,16.31 16.31,21.74zm712.18 -135.9c38.05,0 81.55,10.87 125.04,32.61 32.62,16.31 70.67,38.06 103.29,65.24 16.31,10.88 32.62,21.74 43.5,32.62l27.17 -16.31c0,-5.43 -16.31,-21.74 -54.36,-43.49 -43.5,-32.62 -86.98,-59.8 -125.04,-76.11 -59.8,-27.18 -114.17,-43.49 -157.65,-43.49 -43.5,0 -70.68,16.31 -86.99,38.05 -10.87,21.75 -16.31,54.37 -16.31,108.73l0 38.05 0 309.88c0,16.31 10.87,38.06 27.18,54.37 21.75,16.31 38.05,21.74 59.81,21.74 10.86,0 27.17,-5.43 38.05,-16.31 5.43,0 10.88,-5.43 16.31,-10.87l-16.31 -65.24c0,5.44 -5.43,5.44 -5.43,10.88 0,5.43 -5.45,16.31 -10.88,21.74 -5.43,5.44 -10.88,10.88 -21.74,21.75 0,0 -5.45,0 -10.88,5.44l0 -353.38c0,-10.86 0,-16.31 0,-21.74 0,-10.88 0,-16.31 0,-27.19 0,-27.17 5.43,-48.92 10.88,-59.79 10.86,-16.31 27.17,-27.18 54.36,-27.18zm212.02 184.83c-5.43,0 -10.88,0 -16.31,0 -5.43,0 -10.88,-5.43 -16.31,-5.43 -38.05,0 -70.67,10.88 -97.85,21.74 -32.62,16.31 -54.36,48.93 -54.36,92.42 0,38.05 16.31,65.24 43.48,92.43 27.19,27.17 59.8,38.05 92.42,38.05 16.31,0 32.62,0 54.36,-5.43 16.31,-5.45 27.19,-10.88 32.62,-10.88l0 38.05c0,16.31 10.88,38.06 27.19,54.37 16.31,16.31 38.05,21.74 59.8,21.74 10.87,0 21.74,-5.43 38.05,-16.31 0,0 10.88,-5.43 16.31,-10.87l-21.74 -65.24c0,5.44 0,5.44 0,10.88 -5.44,5.43 -10.88,16.31 -16.31,21.74 0,5.44 -10.88,10.88 -16.31,21.75 -5.44,0 -5.44,0 -10.87,5.44l0 -315.31 -76.12 -38.07 0 201.16c-5.43,0 -16.31,5.43 -32.62,10.86 -27.17,10.88 -48.93,16.31 -70.67,16.31 -21.74,0 -38.05,-5.43 -54.36,-16.31 -16.31,-10.86 -27.18,-27.17 -27.18,-43.48 0,-21.75 10.87,-38.06 32.62,-48.93 21.74,-10.87 43.49,-16.31 70.66,-16.31 21.76,0 43.5,5.44 59.81,10.87l-16.31 -65.24zm320.75 -70.67l27.18 27.19c-5.43,0 -21.74,5.43 -43.48,27.17 -27.19,21.76 -38.07,38.06 -38.07,54.37 0,21.75 5.45,38.05 16.31,48.93 16.31,21.74 32.62,32.62 48.93,38.05l-103.29 38.05 54.36 54.38 103.3 -48.93c5.43,5.43 10.87,10.86 16.31,10.86 10.87,10.88 16.31,27.19 16.31,38.07 0,27.17 -10.88,43.48 -32.62,59.79 -16.31,10.88 -43.49,16.31 -70.68,16.31 -21.74,0 -43.48,-5.43 -70.67,-10.87 -10.88,-5.44 -21.74,-5.44 -38.05,-16.31l-5.45 27.18c10.88,10.88 32.62,21.75 76.12,32.62 27.19,10.87 54.36,16.31 81.55,16.31 32.61,0 59.8,-10.87 81.54,-21.75 21.74,-16.3 38.05,-43.49 38.05,-70.67 0,-16.3 -10.86,-38.06 -27.17,-65.23 -5.45,-5.45 -16.31,-16.31 -27.19,-32.62l81.55 -32.62 -54.36 -48.93 -92.42 38.05c-5.44,-5.43 -10.88,-10.87 -16.31,-16.31 -5.44,-10.87 -10.88,-21.74 -10.88,-27.18 0,-16.31 16.31,-38.05 38.06,-54.36 21.74,-10.88 32.62,-16.31 43.49,-16.31l-65.24 -76.12 -27.18 10.88zm228.33 21.74l0 309.88c0,16.31 10.87,38.06 27.18,54.37 21.75,16.31 38.06,21.74 59.8,21.74 10.88,0 27.19,-5.43 38.05,-16.31 5.45,0 10.88,-5.43 16.31,-10.87l-16.31 -65.24c0,5.44 0,5.44 -5.43,10.88 0,5.43 -5.43,16.31 -10.87,21.74 -5.44,5.44 -10.87,10.88 -21.75,21.75 0,0 -5.43,0 -10.87,5.44l0 -315.31 -76.11 -38.07zm467.53 201.16l0 -65.24c-10.86,5.43 -27.17,10.87 -38.05,16.31 -10.88,5.43 -27.19,5.43 -38.05,5.43 -10.88,0 -16.31,0 -21.76,0 5.45,-10.87 5.45,-21.74 5.45,-32.62 0,-32.61 -10.88,-65.23 -32.62,-92.42 -21.75,-21.74 -54.37,-38.05 -86.99,-38.05 -21.74,0 -38.05,0 -48.93,5.43 -16.31,5.45 -27.17,5.45 -27.17,10.88l27.17 65.24c0,-5.44 5.45,-5.44 16.31,-10.88 27.19,-10.86 48.93,-16.31 65.24,-16.31 16.31,0 32.62,5.45 38.06,16.31 0,10.88 5.43,21.75 5.43,38.06 0,21.74 -10.87,43.49 -38.05,59.8 -5.44,5.44 -16.31,10.87 -32.62,21.75 -5.44,-10.88 -10.87,-16.31 -21.75,-16.31 -5.43,-5.44 -16.31,-10.88 -27.17,-10.88 -10.88,0 -21.76,5.44 -27.19,16.31 -5.43,10.88 -10.88,21.74 -10.88,32.62 0,21.74 10.88,32.62 21.76,43.5 16.31,5.43 32.62,10.86 54.36,10.86 0,10.88 10.87,27.19 32.62,59.81 21.74,38.05 48.92,54.36 76.11,59.8 5.43,0 10.86,0 16.31,0 10.86,0 21.74,0 38.05,0 0,0 5.43,0 10.88,-5.44l-27.19 -76.11c-5.43,5.44 -10.88,5.44 -16.31,10.87 -16.31,5.44 -32.62,5.44 -38.05,5.44 -16.31,0 -27.19,-10.87 -43.5,-32.61 -5.43,-5.45 -10.87,-16.31 -16.3,-32.62 16.3,-5.45 32.61,-10.88 48.92,-21.76 10.88,-16.31 21.74,-27.17 32.62,-43.48 0,5.43 5.43,5.43 16.31,10.86 10.88,5.45 21.74,10.88 32.62,16.31 0,0 5.43,0 10.88,0 10.86,0 21.74,-5.43 38.05,-5.43 0,0 0,0 5.43,-5.43zm0 -201.16l0 309.88c0,16.31 10.88,38.06 27.19,54.37 16.31,16.31 38.05,21.74 59.8,21.74 10.87,0 21.74,-5.43 38.05,-16.31 5.43,0 10.88,-5.43 16.31,-10.87l-16.31 -65.24c-5.43,5.44 -5.43,5.44 -5.43,10.88 -5.44,5.43 -10.88,16.31 -16.31,21.74 0,5.44 -10.88,10.88 -16.31,21.75 -5.44,0 -5.44,0 -10.88,5.44l0 -315.31 -76.11 -38.07zm375.11 38.07l48.93 59.79c0,-16.31 5.45,-27.18 21.76,-43.48 10.86,-10.88 21.74,-21.76 38.05,-27.19l0 135.91 -59.81 0c-10.86,0 -16.31,5.44 -16.31,21.75 0,5.43 16.31,27.17 48.93,59.79 38.06,38.07 59.81,54.37 76.12,48.93 10.87,0 16.3,0 16.3,-10.86l0 -54.38 119.6 0 0 81.55c0,16.31 10.88,38.06 27.19,54.37 21.74,16.31 38.05,21.74 59.8,21.74 10.87,0 21.74,-5.43 38.05,-16.31 5.44,0 10.88,-5.43 16.31,-10.87l-16.31 -65.24c-5.43,5.44 -5.43,5.44 -5.43,10.88 -5.44,10.87 -10.88,16.31 -10.88,21.74 -5.43,5.44 -10.87,10.88 -21.74,21.75 0,0 -5.44,0 -10.87,5.44l0 -315.31 -76.12 -38.07 0 163.1 -119.6 0 0 -108.72c0,-16.31 -5.43,-27.19 -21.74,-38.07 -16.31,-16.31 -38.06,-21.74 -54.37,-21.74 -16.31,0 -32.62,5.43 -48.93,16.31 -21.74,10.88 -32.62,16.31 -48.93,27.19zm467.54 -38.07l0 309.88c0,16.31 10.88,38.06 32.62,54.37 16.31,16.31 38.05,21.74 54.36,21.74 16.31,0 27.19,-5.43 38.06,-16.31 5.44,0 10.87,-5.43 21.75,-10.87l-21.75 -65.24c0,5.44 0,5.44 0,10.88 -5.44,5.43 -10.87,16.31 -16.3,21.74 -5.45,5.44 -10.88,10.88 -21.76,21.75 0,0 -5.43,0 -10.86,5.44l0 -315.31 -76.12 -38.07zm250.07 65.24c5.45,0 10.88,-5.43 16.31,-10.86 27.19,-10.88 48.93,-16.31 76.12,-16.31 16.31,0 27.18,0 32.62,5.43 5.43,5.43 10.87,10.88 10.87,21.74 0,16.31 -10.87,32.62 -32.62,43.5 -10.87,5.43 -32.61,16.3 -70.68,32.61 -38.05,16.31 -65.23,32.62 -81.54,43.5 -16.31,16.31 -27.18,38.05 -27.18,65.24 0,38.05 16.31,65.23 43.49,86.98 32.61,21.74 65.23,32.61 108.73,32.61 16.31,0 43.49,0 65.24,-10.87 32.61,-10.87 59.8,-16.31 76.11,-27.18l-54.37 -59.8c-10.87,10.88 -27.18,21.74 -38.05,27.18 -27.19,16.31 -59.81,27.18 -92.43,27.18 -16.31,0 -32.62,-5.43 -43.48,-16.31 -10.88,-10.87 -21.75,-21.74 -21.75,-38.05 0,-21.74 21.75,-43.5 54.37,-59.81 21.74,-5.43 38.05,-16.31 59.79,-21.74 38.06,-21.74 65.24,-38.05 76.11,-54.36 10.88,-10.88 16.31,-32.62 16.31,-54.37 0,-27.17 -10.87,-48.93 -32.61,-65.24 -21.75,-21.74 -48.93,-32.62 -81.55,-32.62 -16.31,0 -38.05,5.45 -59.81,10.88 -27.17,5.43 -38.05,10.88 -43.48,16.31l43.48 54.36zm-70.67 -250.07l21.75 59.8c10.87,0 16.31,0 21.75,0 21.74,-5.44 38.05,-5.44 48.93,-5.44 21.74,0 48.93,21.75 70.67,65.24 21.74,32.61 32.62,54.37 32.62,65.23l38.05 0c-21.74,-43.48 -38.05,-70.67 -54.36,-92.41 -38.05,-65.24 -65.24,-92.42 -81.55,-92.42l-97.86 0zm576.26 353.37l0 -59.8 -228.33 0c-5.43,0 -5.43,0 -10.86,5.43 -5.45,5.44 -5.45,5.44 -5.45,10.87 0,10.88 16.31,38.06 43.5,70.67 27.19,32.62 48.93,48.93 59.8,48.93 0,0 5.44,0 10.87,-5.43 5.44,0 5.44,-5.43 5.44,-10.88l0 -59.79 125.03 0zm0 -168.54l0 309.88c0,16.31 10.88,38.06 27.19,54.37 16.31,16.31 38.05,21.74 59.8,21.74 10.87,0 21.75,-5.43 38.05,-16.31 5.44,0 10.88,-5.43 16.31,-10.87l-16.31 -65.24c-5.43,5.44 -5.43,5.44 -5.43,10.88 -5.44,5.43 -10.87,16.31 -16.31,21.74 0,5.44 -10.87,10.88 -16.31,21.75 -5.44,0 -5.44,0 -10.87,5.44l0 -315.31 -76.12 -38.07zm157.66 456.66c0,-27.17 -10.87,-48.92 -27.18,-65.23 -21.74,-10.87 -43.49,-21.75 -70.67,-21.75 -21.74,0 -43.5,5.44 -70.67,10.88 -5.45,5.43 -16.31,5.43 -27.19,10.87l27.19 59.8c10.86,-5.43 21.74,-10.88 27.17,-16.31 21.76,-5.43 38.07,-10.88 54.37,-10.88 27.18,0 43.49,10.88 43.49,27.19 0,16.31 -10.87,27.19 -32.62,38.05 -16.31,5.45 -38.05,10.88 -65.24,10.88 -38.05,0 -76.1,-10.88 -108.72,-32.62 -43.49,-27.19 -65.24,-48.93 -70.68,-70.67l-32.62 10.87c0,5.44 10.88,21.75 27.19,43.49 27.18,27.19 54.36,48.93 86.98,70.67 38.06,21.75 76.11,32.62 108.73,32.62 38.05,0 70.67,-5.43 92.42,-27.17 27.18,-16.31 38.05,-38.07 38.05,-70.69zm-103.28 -625.18c-21.76,0 -32.62,5.43 -43.5,10.87 -10.88,10.87 -10.88,21.75 -10.88,38.05 0,16.31 0,27.19 10.88,38.06 10.88,5.44 21.74,10.87 43.5,10.87 16.3,0 27.17,-5.43 38.05,-10.87 10.87,-10.87 16.31,-21.75 16.31,-38.06 0,-16.3 -5.44,-27.18 -16.31,-38.05 -10.88,-5.44 -21.75,-10.87 -38.05,-10.87zm342.49 206.59l43.48 59.79c0,-16.31 10.88,-27.18 21.76,-43.48 10.86,-10.88 21.74,-21.76 38.05,-27.19l0 135.91 -59.81 0c-10.86,0 -10.86,5.44 -10.86,21.75 0,5.43 10.86,27.17 43.48,59.79 38.07,38.07 59.81,54.37 76.12,48.93 10.87,0 16.31,0 16.31,-10.86l0 -54.38 119.59 0 0 81.55c0,16.31 10.88,38.06 27.19,54.37 21.74,16.31 38.05,21.74 59.81,21.74 10.86,0 21.74,-5.43 38.05,-16.31 5.43,0 10.87,-5.43 16.31,-10.87l-16.31 -65.24c-5.44,5.44 -5.44,5.44 -5.44,10.88 -5.44,10.87 -5.44,16.31 -10.87,21.74 -5.44,5.44 -10.88,10.88 -21.74,21.75 0,0 -5.45,0 -10.88,5.44l0 -315.31 -76.12 -38.07 0 163.1 -119.59 0 0 -108.72c0,-16.31 -5.44,-27.19 -21.75,-38.07 -16.3,-16.31 -38.06,-21.74 -54.37,-21.74 -16.31,0 -32.62,5.43 -48.93,16.31 -21.74,10.88 -32.61,16.31 -43.48,27.19zm445.78 418.59c0,-27.17 -5.43,-48.92 -27.18,-65.23 -16.31,-10.87 -43.48,-21.75 -70.67,-21.75 -16.31,0 -43.5,5.44 -65.24,10.88 -10.88,5.43 -21.74,5.43 -32.62,10.87l32.62 59.8c10.88,-5.43 21.74,-10.88 27.19,-16.31 21.74,-5.43 38.05,-10.88 48.93,-10.88 32.61,0 43.48,10.88 43.48,27.19 0,16.31 -10.87,27.19 -32.62,38.05 -16.31,5.45 -38.05,10.88 -65.24,10.88 -38.05,0 -70.67,-10.88 -103.28,-32.62 -43.5,-27.19 -70.67,-48.93 -76.12,-70.67l-32.62 10.87c0,5.44 10.88,21.75 32.62,43.49 27.19,27.19 54.37,48.93 81.55,70.67 38.06,21.75 76.11,32.62 114.16,32.62 38.07,0 65.24,-5.43 92.43,-27.17 21.74,-16.31 32.61,-38.07 32.61,-70.69zm5.44 -456.66l0 86.99c0,-10.87 5.44,-21.75 10.87,-32.61 10.88,-10.88 21.75,-21.76 32.62,-27.19l0 135.91c0,27.18 10.88,54.37 38.05,70.68 21.76,16.31 48.93,27.17 81.55,27.17 27.19,0 54.37,-10.86 76.11,-32.62 10.88,-5.43 21.75,-16.31 32.62,-32.62 5.44,5.45 16.31,5.45 21.74,10.88 10.88,0 16.31,5.43 21.76,5.43 5.43,0 16.31,-5.43 32.62,-5.43 0,0 5.43,0 5.43,-5.43l0 108.72c0,16.31 10.88,38.06 27.19,54.37 21.74,16.31 38.05,21.74 59.79,21.74 10.88,0 27.18,-5.43 38.06,-16.31 5.43,0 10.87,-5.43 16.31,-10.87l-16.31 -65.24c0,5.44 -5.44,5.44 -5.44,10.88 0,5.43 -5.44,16.31 -10.87,21.74 -5.44,5.44 -10.87,10.88 -21.75,21.75 0,0 -5.43,0 -10.87,5.44l0 -315.31 -76.11 -38.07 0 130.48c-5.43,10.87 -16.31,21.75 -27.19,27.18 -16.31,5.44 -27.17,10.88 -43.48,10.88 0,-5.44 0,-5.44 0,-10.88 5.43,-10.87 5.43,-16.31 5.43,-16.31 0,-16.31 -5.43,-32.61 -16.31,-43.49 -5.43,-10.87 -21.74,-16.31 -38.05,-16.31 -16.31,0 -27.18,5.44 -38.06,16.31 -10.87,10.88 -16.31,21.75 -16.31,38.06 0,16.31 10.88,32.62 27.19,38.05 5.43,5.43 -5.44,21.74 -27.19,38.05 -10.86,10.88 -27.17,16.31 -38.05,16.31 -5.43,0 -10.88,0 -16.31,-5.43 -5.43,-5.43 -5.43,-16.31 -5.43,-21.74l0 -135.92c0,-21.74 -5.45,-38.05 -27.19,-54.36 -16.31,-10.88 -32.62,-16.31 -54.36,-16.31 -16.31,0 -27.19,0 -38.06,5.43zm750.23 255.52l0 -76.12c0,5.45 -5.44,10.88 -27.18,21.76 -16.31,16.31 -38.06,27.17 -54.37,27.17 -16.31,0 -21.74,-5.43 -32.62,-10.86 -5.43,-5.45 -10.86,-10.88 -10.86,-27.19l0 -125.04c0,-21.74 -5.45,-38.05 -21.76,-54.36 -21.74,-10.88 -38.05,-16.31 -59.79,-16.31 -16.31,0 -27.19,0 -38.06,5.43l0 86.99c0,-10.87 5.44,-21.75 16.3,-32.61 5.45,-10.88 16.31,-21.76 27.19,-27.19l0 130.47c0,27.19 21.74,54.36 54.36,81.55 32.62,21.74 59.81,32.62 86.99,32.62 16.31,0 32.62,-5.43 43.49,-5.43 5.44,-5.45 10.87,-5.45 16.31,-10.88zm0 -255.52l0 309.88c0,16.31 10.87,38.06 27.18,54.37 16.31,16.31 38.05,21.74 59.81,21.74 10.86,0 21.74,-5.43 38.05,-16.31 5.43,0 10.87,-5.43 16.31,-10.87l-16.31 -65.24c-5.43,5.44 -5.43,5.44 -5.43,10.88 -5.45,5.43 -5.45,16.31 -10.88,21.74 -5.43,5.44 -10.88,10.88 -21.74,21.75 -5.45,0 -5.45,0 -10.88,5.44l0 -315.31 -76.11 -38.07zm266.39 331.63l168.52 -130.47 0 -59.81c-21.74,-16.31 -38.05,-27.18 -54.36,-38.05 -43.49,-27.18 -86.99,-38.06 -130.47,-38.06 -10.88,0 -21.75,0 -38.06,5.44 -21.75,5.44 -32.62,10.87 -43.49,16.31l27.18 65.24c10.87,-10.88 21.75,-21.75 43.49,-27.19 16.31,-10.87 32.62,-10.87 43.5,-10.87 21.74,0 48.93,0 70.67,10.87 32.62,10.88 54.36,21.75 65.24,38.06l-195.72 114.16 43.5 54.37zm163.09 -331.63l0 309.88c0,16.31 10.87,38.06 27.18,54.37 21.75,16.31 38.06,21.74 59.8,21.74 10.88,0 21.74,-5.43 38.05,-16.31 5.45,0 10.88,-5.43 16.31,-10.87l-16.31 -65.24c0,5.44 -5.43,5.44 -5.43,10.88 0,5.43 -5.43,16.31 -10.88,21.74 -5.43,5.44 -10.86,10.88 -21.74,21.75 0,0 -5.43,0 -10.88,5.44l0 -315.31 -76.1 -38.07z"/>
  </g>
  <rect class="fil2" x="-0.01" y="-0" width="10160" height="5334"/>
 </g>
</svg>
