<?xml version="1.0" encoding="UTF-8"?>
<!DOCTYPE svg PUBLIC "-//W3C//DTD SVG 1.1//EN" "http://www.w3.org/Graphics/SVG/1.1/DTD/svg11.dtd">
<!-- Creator: CorelDRAW -->
<svg xmlns="http://www.w3.org/2000/svg" xml:space="preserve" width="75.819mm" height="29.972mm" version="1.1" style="shape-rendering:geometricPrecision; text-rendering:geometricPrecision; image-rendering:optimizeQuality; fill-rule:evenodd; clip-rule:evenodd"
viewBox="0 0 5169.7 2043.63"
 xmlns:xlink="http://www.w3.org/1999/xlink"
 xmlns:xodm="http://www.corel.com/coreldraw/odm/2003">
 <defs>
  <style type="text/css">
   <![CDATA[
    .fil0 {fill:black}
    .fil1 {fill:white}
   ]]>
  </style>
 </defs>
 <g id="Layer_x0020_1">
  <metadata id="CorelCorpID_0Corel-Layer"/>
  <g id="_3183320483216">
   <polygon class="fil0" points="138.55,661.01 202.06,606.16 274.22,568.64 349.27,545.55 432.97,539.78 4736.73,539.78 4817.55,545.55 4895.49,568.64 4964.76,606.16 5028.26,661.01 5083.11,724.51 5120.63,793.79 5143.72,871.72 5149.5,952.54 5149.5,1143.05 5143.72,1226.76 5120.63,1301.81 5083.11,1373.97 5028.26,1437.47 4964.76,1489.43 4895.49,1526.96 4817.55,1550.04 4736.73,1558.7 432.97,1558.7 349.27,1550.04 274.22,1526.96 202.06,1489.43 138.55,1437.47 86.59,1373.97 49.07,1301.81 25.98,1226.76 17.32,1143.05 17.32,952.54 25.98,871.72 49.07,793.79 86.59,724.51 138.55,661.01 "/>
   <polygon class="fil0" points="127.01,646.58 193.4,591.73 265.56,551.32 346.38,528.23 432.97,519.57 4736.73,519.57 4823.32,528.23 4901.26,551.32 4976.31,591.73 5042.7,646.58 5097.54,715.85 5137.95,788.01 5161.04,868.84 5169.7,952.54 5169.7,1143.05 5161.04,1229.64 5137.95,1310.47 5097.54,1382.63 5042.7,1449.02 4976.31,1506.75 4901.26,1544.28 4823.32,1570.25 4736.73,1576.02 432.97,1576.02 346.38,1570.25 265.56,1544.28 193.4,1506.75 127.01,1449.02 72.17,1382.63 31.75,1310.47 8.66,1229.64 -0,1143.05 -0,952.54 8.66,868.84 31.75,788.01 72.17,715.85 127.01,646.58 144.33,663.89 92.37,727.4 54.85,796.67 31.75,871.72 23.09,952.54 23.09,1143.05 31.75,1226.76 54.85,1301.81 92.37,1371.09 144.33,1431.7 207.83,1486.54 277.1,1524.07 352.15,1544.28 432.97,1552.94 4736.73,1552.94 4817.55,1544.28 4892.6,1524.07 4961.87,1486.54 5025.38,1431.7 5077.34,1371.09 5114.86,1301.81 5137.95,1226.76 5143.72,1143.05 5143.72,952.54 5137.95,871.72 5114.86,796.67 5077.34,727.4 5025.38,663.89 4961.87,611.94 4892.6,574.42 4817.55,551.32 4736.73,545.55 432.97,545.55 352.15,551.32 277.1,574.42 207.83,611.94 144.33,663.89 127.01,646.58 "/>
   <path class="fil0" d="M583.08 233.81l0 -43.3c-2.89,5.78 -8.66,11.55 -14.43,17.32 -8.66,2.89 -17.32,5.78 -25.98,5.78 0,-2.88 2.88,-5.78 2.88,-8.66 0,-2.88 0,-5.78 0,-8.66 0,-8.66 -5.77,-17.32 -8.66,-25.98 -5.77,-5.78 -14.43,-11.54 -23.09,-11.54 -8.66,0 -14.43,2.88 -17.32,8.66 -5.78,5.77 -8.66,14.43 -8.66,20.2 0,14.43 5.77,23.09 17.32,28.86 0,8.66 -2.89,17.32 -11.55,25.98 -5.77,5.78 -14.43,8.66 -23.09,8.66 -11.55,0 -17.32,-2.88 -23.09,-11.54 -5.78,-5.78 -8.66,-17.32 -8.66,-31.75 0,-17.32 8.66,-34.64 23.09,-54.84 5.77,-5.78 14.43,-11.54 23.09,-20.2l-31.75 -43.3 -14.43 8.66 11.54 11.54c-5.77,8.66 -14.43,14.43 -20.2,20.2 -11.54,17.32 -17.32,37.53 -17.32,60.62 0,23.09 5.78,46.19 17.32,60.62 11.54,17.32 28.86,23.09 49.07,23.09 17.32,0 34.64,-5.78 46.18,-20.2 5.78,-5.78 8.66,-11.55 14.43,-23.09 2.88,2.88 5.77,2.88 8.66,2.88 5.77,2.89 8.66,2.89 11.54,2.89 2.88,0 8.66,0 11.54,0 2.89,0 8.66,0 11.55,-2.89zm0 -121.23l0 184.74c0,11.54 5.77,23.09 14.43,31.75 11.55,11.55 20.21,14.43 31.75,14.43 5.78,0 14.43,-2.88 20.2,-8.66 2.89,0 5.78,-5.78 11.55,-8.66l-11.55 -37.52c0,2.88 0,5.77 0,5.77 -2.88,5.78 -5.77,8.66 -8.66,14.43 -2.88,2.88 -5.77,5.78 -11.54,11.54 0,0 -2.88,2.89 -5.78,2.89l0 -187.62 -40.41 -23.09zm-106.8 228.04l106.8 -57.73 0 -31.75 -127.01 57.73 20.2 31.75zm386.79 -98.15l-40.41 0 0 -28.86 -37.52 -31.75 -66.39 0c0,-2.88 0,-2.88 0,-2.88 -2.88,-8.66 -2.88,-14.43 -2.88,-14.43 0,-5.77 5.78,-11.54 17.32,-14.43 11.54,-2.89 25.98,-2.89 40.41,-2.89 11.54,0 23.09,0 31.75,0 5.78,2.89 11.55,2.89 11.55,2.89l-11.55 -51.96 -20.2 2.88 5.78 17.32c-2.89,0 -5.78,-2.88 -5.78,-2.88 -2.88,0 -5.78,0 -11.54,0 -20.21,0 -40.41,2.88 -54.85,5.77 -23.09,5.78 -31.75,14.43 -31.75,25.98 0,8.66 0,14.43 2.88,23.09 5.78,8.66 11.54,17.32 14.43,20.2 -5.78,2.89 -8.66,5.78 -11.55,8.66 -8.66,8.66 -14.43,20.21 -14.43,34.64 0,28.87 14.43,54.85 43.3,80.83 23.09,20.2 37.52,31.75 43.3,31.75l11.54 -11.54c-5.78,0 -14.43,-8.66 -31.75,-25.98 -20.2,-20.2 -31.75,-43.3 -31.75,-63.5 0,-8.66 2.88,-14.43 8.66,-23.09 5.77,-5.78 14.43,-8.66 23.09,-8.66l40.41 0 0 28.86 -25.98 0c-5.78,0 -8.66,2.89 -8.66,8.66 0,8.66 8.66,20.21 28.86,37.53 17.32,14.43 28.87,23.09 34.64,23.09 5.78,0 5.78,-2.88 5.78,-8.66l0 -25.98 46.18 0 0 20.21c0,11.54 2.89,23.09 14.43,31.75 8.66,11.55 20.2,14.43 31.75,14.43 5.77,0 11.54,-2.88 20.2,-8.66 2.88,0 5.78,-5.78 8.66,-8.66l-8.66 -37.52c-2.88,2.88 -2.88,5.77 -2.88,5.77 -2.89,5.78 -5.78,8.66 -8.66,14.43 0,2.88 -5.78,5.78 -8.66,11.54 -2.89,0 -5.78,2.89 -8.66,2.89l0 -187.62 -40.41 -23.09 0 129.89zm129.89 -57.73c-8.66,8.66 -14.43,14.43 -17.32,17.32 -14.43,14.43 -20.2,25.98 -20.2,37.52 0,14.43 5.77,28.86 14.43,40.41 11.55,11.54 25.98,17.32 40.41,17.32 2.88,0 8.66,0 14.43,-2.89 0,0 2.88,0 5.77,-2.88l20.21 54.84 23.09 -14.43 -25.98 -46.19c0,0 5.78,-2.88 11.55,-8.66 8.66,-5.77 11.54,-14.43 11.54,-20.2 0,-8.66 -2.88,-11.54 -5.78,-17.32 -5.77,-2.88 -8.66,-2.88 -14.43,-2.88 -8.66,0 -14.43,0 -20.21,5.77 -5.77,5.78 -8.66,11.55 -8.66,17.32 0,2.89 0,5.78 0,11.55 -5.77,2.88 -11.54,5.77 -17.32,5.77 -5.77,0 -11.54,-2.88 -17.32,-5.77 -5.77,-5.78 -5.77,-11.55 -5.77,-17.32 0,-11.55 5.77,-20.21 23.09,-34.64 5.78,-2.89 11.55,-8.66 23.09,-17.32 17.32,8.66 31.75,14.43 49.07,14.43 8.66,0 17.32,-2.88 25.98,-5.77l0 -37.53c-2.89,2.89 -8.66,5.78 -8.66,5.78 -11.55,5.78 -17.32,8.66 -20.21,11.54 -2.88,0 -5.77,0 -8.66,0 -2.88,0 -5.77,0 -11.54,0 -2.88,0 -2.88,0 -5.78,0 0,0 -2.88,0 -2.88,0 5.78,-2.88 11.54,-8.66 17.32,-17.32 5.78,-5.77 8.66,-11.54 8.66,-17.32 0,-14.43 -5.78,-25.98 -17.32,-34.64 -11.54,-11.54 -23.09,-14.43 -37.52,-14.43 -14.43,0 -23.09,2.88 -34.64,8.66 -8.66,8.66 -14.43,17.32 -14.43,28.86 0,8.66 5.78,20.2 11.54,28.86 8.66,8.66 11.55,11.55 14.43,11.55zm14.43 -8.66c-2.89,-2.89 -5.78,-5.78 -8.66,-11.55 -2.89,-5.77 -2.89,-8.66 -2.89,-14.43 0,-8.66 2.89,-14.43 5.78,-20.21 5.78,-5.77 11.54,-8.66 20.2,-5.77 2.89,0 8.66,0 11.55,5.77 2.88,2.89 5.77,8.66 5.77,11.55 0,8.66 -2.88,14.43 -14.43,23.09 -2.89,2.89 -8.66,8.66 -17.32,11.55zm92.36 -63.51l0 184.74c0,11.54 2.89,23.09 14.43,31.75 8.66,11.55 20.2,14.43 31.75,14.43 5.77,0 11.54,-2.88 20.2,-8.66 2.88,0 5.78,-5.78 8.66,-8.66l-8.66 -37.52c-2.88,2.88 -2.88,5.77 -2.88,5.77 -2.89,5.78 -2.89,8.66 -8.66,14.43 0,2.88 -2.89,5.78 -8.66,11.54 -2.89,0 -2.89,2.89 -5.78,2.89l0 -187.62 -40.41 -23.09zm170.31 -80.82c20.2,0 43.3,5.78 66.39,20.2 20.2,8.66 37.52,20.21 57.73,37.53 8.66,5.77 17.32,14.43 23.09,20.2l14.43 -11.54c0,-2.89 -8.66,-11.55 -28.87,-25.98 -23.09,-17.32 -46.18,-34.64 -69.28,-46.19 -31.75,-14.43 -60.62,-23.09 -83.7,-23.09 -23.09,0 -40.41,8.66 -46.19,23.09 -5.77,11.55 -8.66,31.75 -8.66,63.51l0 23.09 0 184.74c0,11.54 2.89,23.09 14.43,31.75 8.66,11.55 20.2,14.43 31.75,14.43 5.77,0 11.54,-2.88 20.2,-8.66 2.88,0 5.78,-5.78 8.66,-8.66l-8.66 -37.52c0,2.88 -2.88,5.77 -2.88,5.77 0,5.78 -2.89,8.66 -5.78,14.43 -2.88,2.88 -5.78,5.78 -11.54,11.54 0,0 -2.89,2.89 -5.78,2.89l0 -210.72c0,-5.77 0,-8.66 0,-14.43 0,-5.78 0,-8.66 0,-14.43 0,-17.32 0,-28.86 5.78,-37.52 5.77,-8.66 14.43,-14.43 28.86,-14.43zm69.28 277.1l89.48 -75.05 0 -34.64c-11.54,-11.54 -20.2,-20.2 -28.86,-25.98 -23.09,-14.43 -46.18,-23.09 -69.28,-23.09 -5.78,0 -14.43,2.88 -23.09,5.77 -8.66,2.89 -17.32,5.78 -23.09,8.66l14.43 37.53c5.78,-5.78 14.43,-11.55 23.09,-14.43 11.54,-5.78 20.2,-8.66 25.98,-8.66 11.54,0 25.98,2.88 37.52,8.66 17.32,5.78 28.87,14.43 34.64,20.2l-106.8 72.17 25.98 28.86zm89.48 -196.28l0 184.74c0,11.54 2.89,23.09 14.43,31.75 8.66,11.55 20.2,14.43 31.75,14.43 5.77,0 11.54,-2.88 20.2,-8.66 2.88,0 5.78,-5.78 8.66,-8.66l-8.66 -37.52c-2.88,2.88 -2.88,5.77 -2.88,5.77 -2.89,5.78 -2.89,8.66 -8.66,14.43 0,2.88 -2.89,5.78 -8.66,11.54 -2.89,0 -2.89,2.89 -5.78,2.89l0 -187.62 -40.41 -23.09zm101.03 17.32c2.88,0 2.88,0 5.78,0 8.66,0 14.43,2.89 17.32,8.66 2.88,2.89 5.77,11.55 5.77,20.21 0,14.43 -8.66,25.98 -20.2,31.75 -5.78,2.89 -11.54,5.78 -20.2,5.78 0,20.2 8.66,40.41 23.09,63.5 14.43,17.32 31.75,25.98 49.07,25.98 14.43,0 25.98,-2.88 37.52,-5.77 2.89,0 8.66,-2.89 17.32,-8.66l0 25.98c0,11.54 5.78,23.09 14.43,31.75 8.66,11.55 20.2,14.43 31.75,14.43 5.77,0 14.43,-2.88 20.2,-8.66 5.78,-5.78 8.66,-8.66 11.54,-8.66l-11.54 -37.52c-2.88,2.88 -2.88,5.77 -2.88,5.77 -2.89,5.78 -2.89,8.66 -5.78,14.43 -2.88,2.88 -8.66,8.66 -14.43,11.54 0,0 -2.88,2.89 -2.88,2.89l0 -187.62 -40.41 -23.09 0 109.69c-8.66,8.66 -20.2,17.32 -28.86,23.09 -11.54,5.77 -23.09,8.66 -31.75,8.66 -14.43,0 -25.98,-5.78 -31.75,-17.32 -2.89,-5.78 -5.78,-11.55 -5.78,-11.55 11.54,-2.88 20.2,-8.66 23.09,-11.54 17.32,-11.54 25.98,-28.86 25.98,-46.18 0,-20.21 -8.66,-34.64 -20.21,-43.3 -11.54,-8.66 -28.86,-11.55 -46.18,-11.55l0 17.32zm355.04 -98.14c20.2,0 43.3,5.78 66.39,20.2 20.2,8.66 37.52,20.21 57.73,37.53 8.66,5.77 17.32,14.43 23.09,20.2l14.43 -11.54c0,-2.89 -8.66,-11.55 -28.87,-25.98 -23.09,-17.32 -46.18,-34.64 -69.28,-46.19 -31.75,-14.43 -60.62,-23.09 -83.7,-23.09 -23.09,0 -40.41,8.66 -46.19,23.09 -5.77,11.55 -8.66,31.75 -8.66,63.51l0 23.09 0 184.74c0,11.54 2.89,23.09 14.43,31.75 8.66,11.55 20.2,14.43 31.75,14.43 5.77,0 11.54,-2.88 20.2,-8.66 2.88,0 5.78,-5.78 8.66,-8.66l-8.66 -37.52c0,2.88 -2.88,5.77 -2.88,5.77 0,5.78 -2.89,8.66 -5.78,14.43 -2.88,2.88 -5.78,5.78 -11.54,11.54 0,0 -2.89,2.89 -5.78,2.89l0 -210.72c0,-5.77 0,-8.66 0,-14.43 0,-5.78 0,-8.66 0,-14.43 0,-17.32 0,-28.86 5.78,-37.52 5.77,-8.66 14.43,-14.43 28.86,-14.43zm115.46 80.82l23.09 14.43 -43.3 46.18c11.54,8.66 20.2,14.43 25.98,17.32 17.32,14.43 25.98,25.98 25.98,34.64 0,8.66 -2.88,14.43 -5.78,17.32 -5.77,2.89 -11.54,5.78 -20.2,5.78 -14.43,0 -28.86,-8.66 -43.3,-23.09 -11.54,-11.54 -20.2,-20.2 -20.2,-23.09l8.66 -14.43 -37.53 -23.09c-2.88,0 -2.88,2.89 -5.77,11.55 -5.78,17.32 -8.66,34.64 -8.66,46.18 0,34.64 11.54,63.5 34.64,86.59 23.09,20.2 51.96,31.75 86.59,31.75 17.32,0 34.64,-2.89 51.96,-11.55 17.32,-8.66 25.98,-20.2 25.98,-31.75 0,-5.78 0,-11.55 -2.89,-14.43 -5.77,-5.78 -8.66,-5.78 -14.43,-5.78 -8.66,0 -14.43,0 -17.32,5.78 -5.78,5.78 -5.78,8.66 -5.78,17.32 0,5.78 0,8.66 5.78,14.43 -5.78,2.88 -8.66,2.88 -11.55,2.88 -8.66,2.88 -14.43,2.88 -20.2,2.88 -37.52,0 -63.5,-11.54 -80.82,-34.64 -8.66,-14.43 -14.43,-34.64 -14.43,-57.73 0,-5.78 0,-8.66 0,-11.55 0,5.78 8.66,14.43 28.86,31.75 23.09,20.2 43.3,28.86 60.62,28.86 8.66,0 20.21,-2.88 28.87,-8.66 8.66,-8.66 11.54,-17.32 11.54,-25.98 0,-11.54 -5.78,-25.98 -20.2,-40.41 -11.55,-11.55 -20.21,-17.32 -23.09,-17.32l40.41 -49.07 -49.07 -37.52 -14.43 14.43zm236.7 112.57l0 -43.3 -63.51 0c-14.43,0 -25.98,5.78 -34.64,17.32 -8.66,11.55 -14.43,25.98 -14.43,40.41 0,20.2 8.66,43.3 25.98,69.28 5.77,8.66 14.43,20.2 25.98,31.75l14.43 -8.66c-8.66,-8.66 -14.43,-17.32 -17.32,-23.09 -11.54,-17.32 -17.32,-34.64 -17.32,-49.07 0,-8.66 2.89,-17.32 8.66,-25.98 5.78,-5.77 11.55,-8.66 20.21,-8.66l51.96 0zm-2.89 -112.57l0 184.74c0,11.54 5.78,23.09 17.32,31.75 8.66,11.55 20.21,14.43 31.75,14.43 5.78,0 11.54,-2.88 20.2,-8.66 2.89,0 5.78,-5.78 8.66,-8.66l-8.66 -37.52c-2.88,2.88 -2.88,5.77 -2.88,5.77 -2.88,5.78 -5.78,8.66 -8.66,14.43 0,2.88 -5.78,5.78 -8.66,11.54 -2.88,0 -2.88,2.89 -5.78,2.89l0 -187.62 -43.3 -23.09zm-83.7 -112.57l8.66 37.53c5.77,0 11.54,0 14.43,0 11.55,-2.89 20.21,-2.89 25.98,-2.89 11.55,0 25.98,11.55 37.53,37.53 11.54,20.2 17.32,34.64 17.32,40.41l20.2 0c-11.54,-25.98 -20.2,-43.3 -25.98,-54.84 -20.2,-37.52 -37.52,-57.73 -46.18,-57.73l-51.96 0zm329.06 279.99l0 -43.3c-2.89,2.88 -11.55,8.66 -25.98,14.43 -8.66,5.78 -17.32,8.66 -23.09,8.66 -5.78,0 -11.54,-2.88 -17.32,-5.77 -5.78,-2.89 -8.66,-5.78 -14.43,-11.55 5.78,0 14.43,-5.77 25.98,-17.32 14.43,-17.32 23.09,-34.64 23.09,-54.84 0,-17.32 -8.66,-31.75 -20.2,-43.3 -14.43,-11.54 -28.87,-20.2 -43.3,-20.2 -8.66,0 -17.32,2.88 -25.98,5.77 -14.43,2.89 -23.09,5.78 -28.87,11.55l28.87 31.75c0,0 5.77,-5.77 14.43,-8.66 8.66,-8.66 20.21,-11.54 28.87,-11.54 5.77,0 11.54,2.88 14.43,5.78 2.89,2.88 5.78,8.66 5.78,11.54 0,14.43 -5.78,28.86 -20.2,40.41 -8.66,11.54 -17.32,14.43 -20.21,14.43 -2.88,0 -5.77,-2.88 -8.66,-5.77 -5.77,-2.89 -8.66,-2.89 -14.43,-2.89 -8.66,0 -14.43,2.89 -20.21,5.78 -5.77,2.88 -8.66,8.66 -8.66,17.32 0,8.66 2.89,17.32 8.66,23.09 8.66,5.77 17.32,5.77 25.98,5.77 5.78,0 8.66,0 14.43,0 2.88,5.78 14.43,14.43 34.64,25.98 14.43,8.66 28.86,11.55 40.41,11.55 2.88,0 8.66,0 17.32,-2.89 2.88,-2.88 5.77,-2.88 8.66,-5.77zm31.75 -178.96l5.78 14.43c-11.54,2.88 -23.09,8.66 -28.86,17.32 -8.66,8.66 -11.55,20.2 -11.55,31.75 0,11.55 2.89,25.98 11.55,40.41 5.77,11.54 11.54,17.32 14.43,20.2 -2.88,2.89 -5.77,2.89 -5.77,5.78 -8.66,8.66 -11.55,20.2 -11.55,34.64 0,25.98 8.66,43.3 28.87,57.73 14.43,14.43 34.64,20.2 57.73,20.2 37.53,0 69.28,-14.43 95.25,-46.18 25.98,-28.87 40.41,-66.39 40.41,-106.8 0,-23.09 -5.78,-40.41 -14.43,-54.84 -11.54,-17.32 -25.98,-25.98 -49.07,-25.98 -14.43,0 -28.87,5.78 -37.53,14.43 -11.54,11.54 -17.32,25.98 -17.32,40.41 0,20.21 8.66,37.53 20.21,51.96 20.2,20.21 34.64,31.75 46.18,31.75 0,5.78 -8.66,17.32 -28.86,34.64 -23.09,20.2 -46.19,31.75 -69.28,31.75 -14.43,0 -25.98,-2.89 -34.64,-5.78 -8.66,-5.78 -14.43,-17.32 -14.43,-28.86 0,-14.43 11.54,-28.87 28.86,-37.53 17.32,-11.54 28.87,-14.43 34.64,-11.54l-23.09 -34.64c-5.78,0 -11.55,2.88 -17.32,5.78 -5.78,2.88 -11.55,8.66 -17.32,11.54 -2.89,-5.78 -5.78,-8.66 -8.66,-14.43 0,-5.77 -2.89,-11.54 -2.89,-17.32 0,-11.54 5.78,-20.2 14.43,-25.98 14.43,-11.54 23.09,-14.43 34.64,-14.43l-25.98 -49.07 -14.43 8.66zm164.53 69.28c0,11.54 0,23.09 -2.88,34.64 0,8.66 -2.88,17.32 -8.66,25.98 -8.66,-2.88 -17.32,-8.66 -25.98,-20.2 -5.78,-11.55 -11.54,-23.09 -11.54,-40.41 0,-8.66 2.88,-20.2 8.66,-25.98 2.88,-8.66 8.66,-11.54 17.32,-11.54 8.66,0 14.43,2.88 17.32,11.54 5.77,5.78 5.77,14.43 5.77,25.98zm63.51 216.49c0,-17.32 -5.78,-28.86 -17.32,-37.52 -8.66,-8.66 -23.09,-14.43 -37.53,-14.43 -11.54,0 -23.09,2.88 -34.64,5.78 -5.77,2.88 -11.54,5.77 -17.32,8.66l14.43 31.75c8.66,-2.88 11.54,-5.77 17.32,-5.77 11.54,-5.78 20.2,-8.66 25.98,-8.66 17.32,0 25.98,5.77 25.98,17.32 0,8.66 -5.78,17.32 -20.2,20.2 -8.66,5.78 -20.21,5.78 -34.64,5.78 -20.21,0 -40.41,-5.78 -57.73,-17.32 -23.09,-14.43 -37.52,-28.87 -40.41,-40.41l-17.32 5.78c0,2.88 5.78,11.54 17.32,25.98 14.43,14.43 28.87,28.86 46.19,40.41 20.2,14.43 40.41,20.21 60.62,20.21 20.2,0 37.52,-5.78 49.07,-14.43 14.43,-11.54 20.21,-25.98 20.21,-43.3zm124.12 -233.81c0,-2.88 2.88,-2.88 8.66,-5.78 11.54,-8.66 25.98,-11.54 37.52,-11.54 8.66,0 14.43,0 20.21,2.88 2.88,2.89 5.77,8.66 5.77,11.55 0,11.54 -8.66,20.2 -20.2,28.86 -5.78,2.88 -17.32,8.66 -37.52,17.32 -20.21,11.54 -34.64,20.2 -43.3,28.86 -8.66,8.66 -14.43,23.09 -14.43,37.53 0,20.2 8.66,37.52 23.09,51.96 17.32,14.43 34.64,20.2 57.73,20.2 11.55,0 23.09,-2.88 37.53,-5.78 17.32,-5.77 31.75,-11.54 40.41,-17.32l-28.86 -34.64c-8.66,5.78 -14.43,11.55 -20.2,14.43 -17.32,11.54 -34.64,14.43 -51.96,14.43 -8.66,0 -17.32,-2.89 -23.09,-8.66 -5.78,-5.78 -11.54,-11.55 -11.54,-23.09 0,-14.43 11.54,-25.98 28.86,-34.64 11.54,-2.88 20.2,-8.66 31.75,-11.54 23.09,-14.43 37.52,-23.09 43.3,-31.75 5.77,-8.66 8.66,-20.2 8.66,-34.64 0,-14.43 -5.78,-28.86 -17.32,-40.41 -14.43,-11.54 -28.87,-17.32 -43.3,-17.32 -11.55,0 -23.09,2.89 -34.64,5.78 -14.43,2.88 -20.21,5.78 -23.09,8.66l25.98 34.64zm-25.98 254.01l17.32 17.32 66.39 -60.62 72.16 69.28 28.86 -25.98 -95.25 -69.28 -89.48 69.28zm331.94 -173.19l0 -40.41c-5.77,2.88 -11.54,8.66 -20.2,11.54 -5.78,0 -11.54,2.88 -20.2,2.88 -5.78,0 -8.66,0 -11.55,0 2.89,-8.66 2.89,-14.43 2.89,-20.2 0,-20.2 -5.78,-37.52 -17.32,-54.84 -14.43,-14.43 -28.87,-23.09 -49.07,-23.09 -8.66,0 -17.32,0 -25.98,2.88 -8.66,2.89 -11.54,2.89 -14.43,5.78l17.32 37.52c0,0 2.89,-2.88 8.66,-5.77 11.55,-5.78 23.09,-8.66 31.75,-8.66 11.54,0 17.32,2.88 23.09,11.54 0,2.88 2.88,11.54 2.88,20.2 0,14.43 -8.66,25.98 -20.2,37.53 -2.89,2.88 -8.66,5.77 -17.32,11.54 -2.89,-2.88 -5.78,-5.78 -11.55,-8.66 -5.77,-2.88 -8.66,-5.78 -14.43,-5.78 -8.66,0 -11.55,2.89 -17.32,8.66 -2.89,5.78 -2.89,14.43 -2.89,20.21 0,11.54 2.89,20.2 11.55,25.98 5.77,2.88 17.32,5.77 28.86,5.77 0,5.78 5.78,17.32 14.43,34.64 14.43,23.09 28.86,34.64 43.3,37.53 2.88,0 5.77,0 8.66,0 5.77,0 11.54,0 20.2,0 0,0 2.88,-2.89 5.78,-2.89l-11.55 -46.18c-5.77,2.88 -8.66,5.78 -11.54,5.78 -8.66,2.88 -17.32,5.77 -20.2,5.77 -8.66,-2.88 -17.32,-8.66 -23.09,-20.2 -2.88,-5.78 -5.78,-11.54 -8.66,-20.2 8.66,-2.89 17.32,-8.66 25.98,-14.43 5.78,-8.66 11.54,-14.43 17.32,-23.09 0,0 2.88,2.89 8.66,5.78 5.78,2.88 11.54,5.78 17.32,5.78 0,2.88 2.88,2.88 5.78,2.88 5.77,0 11.54,-2.88 20.2,-2.88 0,0 2.88,-2.89 2.88,-2.89zm34.64 -80.82c2.89,-2.88 5.78,-2.88 8.66,-5.78 14.43,-8.66 25.98,-11.54 40.41,-11.54 8.66,0 14.43,0 17.32,2.88 5.78,2.89 5.78,8.66 5.78,11.55 0,11.54 -5.78,20.2 -17.32,28.86 -5.78,2.88 -17.32,8.66 -37.53,17.32 -20.2,11.54 -34.64,20.2 -43.3,28.86 -8.66,8.66 -14.43,23.09 -14.43,37.53 0,20.2 8.66,37.52 23.09,51.96 17.32,14.43 34.64,20.2 57.73,20.2 11.54,0 23.09,-2.88 37.52,-5.78 17.32,-5.77 31.75,-11.54 40.41,-17.32l-28.86 -34.64c-8.66,5.78 -14.43,11.55 -20.21,14.43 -17.32,11.54 -34.64,14.43 -51.96,14.43 -8.66,0 -17.32,-2.89 -23.09,-8.66 -8.66,-5.78 -11.55,-11.55 -11.55,-23.09 0,-14.43 11.55,-25.98 28.87,-34.64 11.54,-2.88 20.2,-8.66 31.75,-11.54 23.09,-14.43 34.64,-23.09 43.3,-31.75 5.78,-8.66 8.66,-20.2 8.66,-34.64 0,-14.43 -5.77,-28.86 -20.2,-40.41 -11.54,-11.54 -25.98,-17.32 -40.41,-17.32 -11.54,0 -23.09,2.89 -37.52,5.78 -11.54,2.88 -20.2,5.78 -20.2,8.66l23.09 34.64zm271.33 60.62l0 -37.52 -121.23 0c-2.89,0 -5.78,0 -5.78,2.88 -2.88,2.88 -2.88,5.78 -2.88,8.66 0,8.66 8.66,20.2 23.09,40.41 14.43,20.2 25.98,31.75 31.75,31.75 0,0 2.88,0 5.78,-2.88 2.88,-2.88 2.88,-2.88 2.88,-5.78l0 -37.52 66.39 0zm0 -101.03l0 184.74c0,11.54 5.77,23.09 17.32,31.75 8.66,11.55 20.2,14.43 31.75,14.43 5.78,0 11.55,-2.88 20.21,-8.66 2.88,0 5.77,-5.78 8.66,-8.66l-8.66 -37.52c-2.89,2.88 -2.89,5.77 -2.89,5.77 -2.88,5.78 -2.88,8.66 -8.66,14.43 0,2.88 -2.88,5.78 -8.66,11.54 -2.88,0 -2.88,2.89 -5.77,2.89l0 -187.62 -43.3 -23.09zm86.59 274.22c0,-17.32 -2.89,-28.86 -14.43,-37.52 -11.54,-8.66 -23.09,-14.43 -37.52,-14.43 -11.55,0 -23.09,2.88 -37.53,5.78 -2.88,2.88 -8.66,5.77 -17.32,8.66l17.32 31.75c5.78,-2.88 11.55,-5.77 14.43,-5.77 11.54,-5.78 20.2,-8.66 28.86,-8.66 14.43,0 23.09,5.77 23.09,17.32 0,8.66 -5.78,17.32 -17.32,20.2 -8.66,5.78 -20.2,5.78 -34.64,5.78 -20.2,0 -40.41,-5.78 -57.73,-17.32 -23.09,-14.43 -37.52,-28.87 -40.41,-40.41l-17.32 5.78c0,2.88 5.77,11.54 17.32,25.98 11.54,14.43 28.86,28.86 43.3,40.41 20.2,14.43 40.41,20.21 60.62,20.21 20.2,0 37.52,-5.78 51.96,-14.43 11.54,-11.54 17.32,-25.98 17.32,-43.3zm-60.62 -375.24c-8.66,0 -14.43,2.88 -20.21,8.66 -5.77,5.77 -8.66,11.54 -8.66,20.2 0,8.66 2.89,17.32 8.66,23.09 5.78,5.77 11.55,8.66 20.21,8.66 11.54,0 17.32,-2.89 23.09,-8.66 5.78,-8.66 8.66,-14.43 8.66,-23.09 0,-8.66 -2.88,-14.43 -8.66,-20.2 -5.77,-5.78 -11.54,-8.66 -23.09,-8.66zm271.33 213.6l-40.41 25.98 -28.86 -25.98 0 -75.04c0,-11.55 -2.88,-23.09 -11.54,-31.75 -11.55,-5.78 -20.21,-11.54 -34.64,-11.54 -5.78,0 -11.55,2.88 -17.32,5.77l0 51.96c0,-5.77 0,-11.54 5.77,-20.2 5.78,-8.66 11.55,-11.54 17.32,-14.43l0 80.83 51.96 49.07 -66.38 40.41 23.09 31.75 101.03 -69.28 0 34.64c0,11.54 5.78,23.09 14.43,31.75 8.66,11.55 20.2,14.43 31.75,14.43 5.78,0 14.43,-2.88 20.21,-8.66 5.77,-5.78 8.66,-8.66 8.66,-8.66l-8.66 -37.52c-2.89,2.88 -2.89,5.77 -2.89,5.77 -2.88,5.78 -2.88,8.66 -5.77,14.43 -2.89,2.88 -8.66,8.66 -14.43,11.54 0,0 -2.88,2.89 -2.88,2.89l0 -187.62 -40.41 -23.09 0 112.57zm152.99 -124.12l14.43 14.43c-2.88,0 -11.54,5.77 -23.09,14.43 -14.43,14.43 -20.21,25.98 -20.21,37.53 0,8.66 2.89,20.2 8.66,28.86 8.66,11.54 17.32,17.32 25.98,20.2l-54.84 23.09 28.86 34.64 54.85 -31.75c5.77,2.89 8.66,5.78 8.66,8.66 5.77,5.78 8.66,14.43 8.66,23.09 0,14.43 -5.78,25.98 -17.32,31.75 -8.66,8.66 -23.09,11.54 -37.53,11.54 -11.54,0 -23.09,-2.88 -40.41,-5.78 -2.89,-2.88 -11.55,-5.77 -20.21,-8.66l0 17.32c5.78,5.78 17.32,11.55 37.53,17.32 17.32,5.78 31.75,8.66 46.18,8.66 17.32,0 31.75,-5.77 43.3,-14.43 14.43,-8.66 20.2,-23.09 20.2,-40.41 0,-11.54 -2.88,-23.09 -14.43,-37.52 -2.89,-5.78 -8.66,-11.55 -14.43,-20.21l46.18 -20.2 -31.75 -31.75 -49.07 25.98c-2.88,-2.88 -5.78,-5.77 -5.78,-8.66 -5.77,-8.66 -8.66,-14.43 -8.66,-17.32 0,-11.54 8.66,-23.09 20.21,-31.75 11.54,-8.66 17.32,-11.55 23.09,-11.55l-34.64 -46.18 -14.43 8.66zm121.23 11.54l0 184.74c0,11.54 2.88,23.09 14.43,31.75 8.66,11.55 20.21,14.43 31.75,14.43 5.78,0 14.43,-2.88 20.2,-8.66 2.89,0 5.78,-5.78 8.66,-8.66l-8.66 -37.52c0,2.88 -2.88,5.77 -2.88,5.77 0,5.78 -2.88,8.66 -5.78,14.43 -2.88,2.88 -5.77,5.78 -11.54,11.54 0,0 -2.88,2.89 -5.78,2.89l0 -187.62 -40.41 -23.09zm161.64 95.25c0,8.66 -5.77,14.43 -11.54,20.21 -2.88,5.77 -8.66,8.66 -14.43,11.54 -5.77,-8.66 -11.54,-11.54 -23.09,-11.54 -5.78,0 -11.55,2.88 -17.32,5.77 -5.78,5.78 -8.66,11.55 -8.66,17.32 0,14.43 5.77,23.09 20.2,28.87 11.54,2.88 17.32,2.88 20.2,2.88 0,2.88 5.78,14.43 17.32,28.86 14.43,20.21 25.98,28.87 37.53,28.87 8.66,0 14.43,0 20.2,0 8.66,0 14.43,0 20.2,0l-14.43 -40.41c-5.78,0 -8.66,2.88 -14.43,2.88 -5.78,2.89 -11.54,2.89 -14.43,2.89 -8.66,0 -17.32,-5.78 -23.09,-14.43 -2.89,-2.88 -5.78,-8.66 -8.66,-14.43 14.43,-5.77 28.86,-17.32 40.41,-34.64 14.43,-17.32 20.21,-40.41 20.21,-66.38 0,-17.32 -5.78,-34.64 -14.43,-49.07 -11.54,-14.43 -25.98,-23.09 -43.3,-23.09 -14.43,0 -25.98,5.78 -34.64,14.43 -8.66,8.66 -14.43,17.32 -14.43,31.75 0,17.32 8.66,31.75 28.87,43.3 17.32,11.54 25.98,14.43 31.75,14.43zm8.66 -11.54c-8.66,0 -17.32,-5.78 -23.09,-14.43 -5.78,-8.66 -8.66,-17.32 -8.66,-25.98 0,-8.66 2.88,-14.43 5.77,-20.2 2.89,-5.78 8.66,-5.78 17.32,-5.78 5.78,0 11.55,2.89 14.43,5.78 2.88,5.78 5.78,11.54 5.78,17.32 0,11.54 0,20.2 -5.78,28.86 -2.88,8.66 -2.88,11.55 -5.78,14.43zm72.17 -83.71l0 184.74c0,11.54 5.77,23.09 17.32,31.75 8.66,11.55 17.32,14.43 28.86,14.43 8.66,0 14.43,-2.88 23.09,-8.66 0,0 2.88,-5.78 8.66,-8.66l-11.55 -37.52c0,2.88 0,5.77 0,5.77 -2.88,5.78 -5.77,11.55 -8.66,14.43 -2.88,2.88 -5.77,5.78 -8.66,11.54 -2.88,0 -5.77,2.89 -8.66,2.89l0 -187.62 -40.41 -23.09zm222.26 101.03l0 -37.52 -124.12 0c-2.88,0 -2.88,0 -5.78,2.88 -2.88,2.88 -2.88,5.78 -2.88,8.66 0,8.66 8.66,20.2 23.09,40.41 14.43,20.2 25.98,31.75 31.75,31.75 2.89,0 2.89,0 5.78,-2.88 2.88,-2.88 2.88,-2.88 2.88,-5.78l0 -37.52 69.28 0zm0 -101.03l0 184.74c0,11.54 2.89,23.09 14.43,31.75 8.66,11.55 20.2,14.43 31.75,14.43 5.77,0 14.43,-2.88 20.2,-8.66 2.88,0 5.78,-5.78 8.66,-8.66l-8.66 -37.52c0,2.88 -2.88,5.77 -2.88,5.77 0,5.78 -2.89,8.66 -5.78,14.43 -2.88,2.88 -5.78,5.78 -11.54,11.54 0,0 -2.89,2.89 -5.78,2.89l0 -187.62 -40.41 -23.09z"/>
   <path class="fil1" d="M505.14 1088.21l23.09 -83.71 -63.5 0 11.54 -49.07 -86.59 0 -37.52 147.21c-2.88,11.54 -8.66,23.09 -20.2,34.64 -11.55,8.66 -23.09,14.43 -37.53,14.43 -25.98,0 -40.41,-20.2 -40.41,-63.5 0,-17.32 2.88,-34.64 8.66,-57.73 5.77,-31.75 20.2,-60.62 40.41,-86.59 23.09,-25.98 46.19,-40.41 72.17,-40.41 14.43,0 25.98,0 40.41,2.88 14.43,2.88 20.21,5.78 23.09,5.78l17.32 -77.94c-8.66,-2.89 -17.32,-5.78 -28.86,-8.66 -14.43,0 -25.98,-2.89 -40.41,-2.89 -46.18,0 -89.48,20.21 -129.89,57.73 -40.41,40.41 -69.28,89.48 -83.71,147.21 -2.88,20.2 -5.77,43.3 -5.77,66.39 0,43.3 8.66,77.94 28.86,103.91 20.2,28.86 51.96,43.3 92.37,43.3 31.75,0 60.62,-11.55 92.36,-34.64 28.87,-25.98 49.07,-54.85 54.85,-89.49l8.66 -28.86 60.62 0zm77.94 -256.9l-95.25 395.45 98.14 0 95.25 -395.45 -98.14 0zm-274.22 441.63l25.98 63.51 181.85 -147.21 14.43 -66.39 -222.26 150.1zm750.49 -438.74c-11.55,-2.89 -23.09,-5.78 -28.87,-8.66 -23.09,-5.78 -43.3,-8.66 -57.73,-8.66 -31.75,0 -60.62,8.66 -86.59,20.2 -31.75,14.43 -51.96,37.52 -57.73,66.39 -2.88,8.66 -2.88,14.43 -2.88,17.32 0,8.66 0,17.32 5.77,25.98 0,0 2.89,2.88 5.78,8.66 -23.09,8.66 -40.41,17.32 -51.96,25.98 -34.64,28.86 -60.62,69.28 -72.16,118.34 -2.89,20.21 -5.78,37.53 -5.78,51.96 0,49.07 17.32,86.59 49.07,115.46 31.75,28.86 72.16,43.3 121.23,43.3 34.64,0 69.28,-8.66 101.02,-23.09l17.32 -77.94c-11.54,5.78 -23.09,11.54 -34.64,14.43 -25.98,8.66 -46.18,14.43 -63.5,14.43 -28.86,0 -51.96,-8.66 -72.16,-28.86 -17.32,-20.2 -25.98,-46.18 -25.98,-75.05 0,-8.66 0,-20.2 2.88,-31.75 8.66,-31.75 23.09,-57.73 40.41,-77.94 23.09,-23.09 49.07,-34.64 77.94,-34.64 11.54,0 17.32,2.88 23.09,8.66 2.89,2.88 5.78,8.66 2.89,17.32l-8.66 28.86c-5.78,0 -11.55,2.88 -17.32,2.88 -25.98,8.66 -43.3,28.87 -51.96,60.62 -2.89,5.78 -2.89,11.55 -2.89,17.32 0,17.32 5.78,31.75 17.32,40.41 11.55,11.54 28.87,14.43 49.07,14.43 25.98,0 46.18,-8.66 63.5,-28.87 5.78,-8.66 8.66,-17.32 14.43,-31.75l60.62 0 -25.98 106.8 98.14 0 95.25 -395.45 -98.14 0 -51.96 216.49 -60.62 -2.88 14.43 -60.62c2.88,-5.78 2.88,-11.54 2.88,-17.32 0,-11.54 -2.88,-20.2 -5.78,-25.98 -5.77,-5.78 -11.54,-8.66 -23.09,-8.66l-69.28 0c-11.55,0 -20.21,-2.88 -25.98,-5.78 -5.78,-2.88 -8.66,-8.66 -5.78,-17.32 2.88,-11.54 8.66,-17.32 17.32,-20.2 11.54,-2.88 25.98,-2.88 43.3,-2.88 11.54,0 25.98,0 40.41,2.88 14.43,2.88 25.98,5.78 28.86,8.66l14.43 -63.5zm248.23 72.16c0,5.78 -2.88,14.43 -2.88,20.2 0,8.66 2.88,14.43 5.78,20.21 0,2.88 0,5.77 2.88,8.66l77.94 0c-2.88,-2.89 -2.88,-8.66 -2.88,-11.55 0,-5.77 0,-14.43 2.88,-23.09 2.88,-11.55 8.66,-20.21 20.2,-28.87 8.66,-5.77 20.21,-11.54 31.75,-11.54 8.66,0 17.32,2.88 25.98,11.54 5.78,5.78 11.54,14.43 11.54,23.09 0,2.88 -2.88,5.78 -2.88,11.54 -2.88,14.43 -14.43,28.87 -31.75,37.53 -14.43,8.66 -34.64,14.43 -66.38,23.09 -37.53,8.66 -66.39,20.21 -86.59,31.75 -28.87,17.32 -49.07,46.18 -57.73,83.71 -2.88,5.77 -2.88,11.54 -5.78,17.32 0,8.66 0,11.54 0,14.43 0,31.75 17.32,54.85 54.85,72.17 25.98,8.66 54.84,14.43 86.59,14.43 11.54,0 17.32,0 20.2,-2.88l25.98 98.14 80.82 -57.73 -40.41 -51.96c11.54,0 23.09,-8.66 37.52,-23.09 8.66,-11.54 17.32,-25.98 23.09,-46.18 0,-5.78 2.88,-11.55 2.88,-17.32 0,-11.55 -5.78,-20.21 -14.43,-28.87 -8.66,-5.77 -17.32,-11.54 -31.75,-11.54 -14.43,0 -31.75,5.78 -46.19,17.32 -14.43,11.54 -25.98,25.98 -28.86,43.3 -5.78,2.88 -11.54,5.78 -14.43,5.78 -11.54,2.88 -20.2,2.88 -25.98,2.88 -8.66,-2.88 -17.32,-5.78 -23.09,-8.66 -2.89,-5.78 -5.78,-11.54 -5.78,-23.09 0,-2.88 0,-8.66 2.88,-23.09 2.89,-11.55 23.09,-23.09 60.62,-37.53 14.43,-5.77 34.64,-11.54 54.85,-17.32 8.66,-2.88 14.43,-5.77 17.32,-5.77l141.44 0 20.2 -72.17 -101.02 0c5.77,-5.77 11.54,-8.66 14.43,-11.54 11.55,-11.54 20.21,-25.98 23.09,-40.41 2.88,-8.66 2.88,-14.43 2.88,-20.2 0,-23.09 -8.66,-40.41 -25.98,-51.96 -20.2,-11.54 -46.18,-20.2 -83.7,-20.2 -37.53,0 -69.28,8.66 -92.37,20.2 -28.86,14.43 -49.07,37.52 -57.73,69.28zm369.47 -75.05l-95.25 395.45 98.14 0 95.25 -395.45 -98.14 0zm528.23 -37.52l92.37 -28.86c-8.66,-31.75 -31.75,-63.51 -66.39,-89.49 -37.52,-25.98 -83.71,-37.52 -141.44,-37.52 -54.85,0 -103.91,17.32 -144.33,51.96 -40.41,34.64 -69.28,83.71 -80.82,141.44l-95.25 395.45 95.25 0 95.25 -395.45c11.54,-23.09 20.2,-40.41 25.98,-54.84 25.98,-34.64 54.84,-54.84 92.36,-54.84 43.3,0 80.83,11.54 103.91,37.52 8.66,8.66 17.32,20.2 23.09,34.64zm-75.05 31.75c-31.75,0 -69.28,17.32 -106.8,51.96 -31.75,25.98 -49.07,46.18 -51.96,54.84l34.64 75.05c17.32,-20.21 31.75,-34.64 40.41,-46.19 31.75,-31.75 51.96,-49.07 63.5,-49.07 14.43,0 25.98,20.2 31.75,60.62 0,11.54 2.88,31.75 5.77,57.73l-167.41 89.49 43.3 75.04 207.83 -121.23 20.2 -86.59 -25.98 11.55c0,-2.89 0,-5.78 0,-8.66 0,-2.89 0,-8.66 0,-14.43 0,-34.64 -2.88,-66.39 -14.43,-92.37 -14.43,-37.52 -43.3,-57.73 -80.83,-57.73zm176.08 5.77l-95.25 395.45 95.25 0 95.25 -395.45 -95.25 0zm170.3 83.71l83.71 0c8.66,0 14.43,2.88 20.2,5.78 5.78,5.77 8.66,11.54 8.66,20.2 0,2.88 0,5.78 -2.88,8.66 -2.88,11.54 -8.66,20.2 -17.32,25.98 -8.66,5.78 -20.2,8.66 -28.86,8.66l-69.28 0c-11.55,0 -20.21,2.88 -28.87,11.54 -8.66,5.78 -17.32,17.32 -20.2,28.87 -2.88,14.43 -2.88,25.98 -2.88,40.41 0,37.53 11.54,69.28 40.41,95.25 25.98,25.98 57.73,37.53 98.15,37.53 23.09,0 49.07,-5.78 77.94,-17.32 8.66,-2.89 20.2,-8.66 34.64,-14.43l-17.32 60.62 101.02 0 95.25 -395.45 -101.02 0 -54.85 236.7c-14.43,8.66 -23.09,14.43 -31.75,20.2 -28.87,14.43 -54.85,20.2 -80.83,20.2 -17.32,0 -34.64,-2.88 -49.07,-11.54 -14.43,-8.66 -20.21,-17.32 -17.32,-28.86 2.88,-8.66 8.66,-14.43 20.2,-14.43 2.88,0 8.66,0 11.54,0 5.78,0 8.66,0 11.55,0 5.77,0 11.54,0 14.43,0 25.98,-5.78 49.07,-17.32 69.28,-34.64 20.21,-17.32 34.64,-43.3 43.3,-77.94 0,-5.78 2.89,-11.54 2.89,-14.43 0,-2.88 0,-8.66 0,-14.43 0,-23.09 -5.78,-43.3 -17.32,-57.73 -11.55,-14.43 -28.87,-23.09 -49.07,-23.09l-124.12 0 -20.21 83.71zm1079.55 -121.23l89.48 -28.86c-8.66,-31.75 -28.86,-63.51 -66.38,-89.49 -37.53,-25.98 -83.71,-37.52 -141.44,-37.52 -54.84,0 -103.91,17.32 -144.32,51.96 -40.41,34.64 -66.39,83.71 -80.83,141.44l-95.25 395.45 98.15 0 95.25 -395.45c8.66,-23.09 17.32,-40.41 23.09,-54.84 25.98,-34.64 57.73,-54.84 92.37,-54.84 46.18,0 80.82,11.54 103.91,37.52 8.66,8.66 17.32,20.2 25.98,34.64zm-103.91 129.89c-28.86,8.66 -54.84,25.98 -83.71,51.96 -25.98,25.98 -43.3,60.62 -49.07,98.14 -5.78,17.32 -5.78,31.75 -5.78,46.19 0,49.07 17.32,86.59 51.96,115.46 34.64,23.09 75.05,34.64 127.01,34.64 49.07,0 92.36,-8.66 132.78,-28.86l23.09 -89.49c-14.43,8.66 -28.87,14.43 -37.53,17.32 -34.64,14.43 -72.16,20.21 -109.68,20.21 -23.09,0 -43.3,-8.66 -60.62,-23.09 -14.43,-14.43 -23.09,-34.64 -23.09,-63.5 0,-2.89 0,-8.66 2.88,-17.32 0,-5.78 2.89,-14.43 2.89,-20.21 5.77,-25.98 20.2,-46.18 40.41,-63.5 8.66,-2.88 20.21,-8.66 28.87,-14.43l57.73 8.66c14.43,2.89 23.09,5.78 28.87,8.66 11.54,2.89 17.32,11.55 17.32,20.21 0,2.88 -2.89,5.77 -2.89,11.54 0,5.78 -5.77,8.66 -14.43,11.54 -8.66,2.89 -20.21,2.89 -31.75,2.89 -11.54,0 -23.09,0 -34.64,-5.78 -5.78,0 -8.66,-2.88 -14.43,-5.78l-20.2 86.59c8.66,2.89 17.32,5.78 23.09,5.78 17.32,2.88 34.64,2.88 49.07,2.88 31.75,0 60.62,-5.77 80.83,-17.32 28.86,-14.43 46.18,-43.3 57.73,-80.82 0,-8.66 0,-14.43 0,-20.2 0,-25.98 -8.66,-43.3 -28.86,-60.62 -17.32,-11.55 -34.64,-17.32 -54.84,-20.21 -25.98,-2.88 -43.3,-5.77 -51.96,-5.77 -11.55,-2.89 -14.43,-8.66 -11.55,-17.32 0,-8.66 5.78,-14.43 11.55,-17.32 8.66,-2.89 23.09,-5.78 43.3,-5.78 11.54,0 25.98,2.88 46.18,5.78 5.78,2.88 14.43,5.77 23.09,8.66l20.2 -77.94c-5.78,0 -17.32,-2.89 -40.41,-8.66 -23.09,-2.89 -37.52,-2.89 -43.3,-2.89 -49.07,0 -86.59,8.66 -112.57,25.98 -25.98,17.32 -37.52,43.3 -37.52,75.05 0,2.88 0,5.78 0,5.78 0,2.88 0,2.88 0,2.88zm548.43 66.39l20.21 -86.59 -121.23 0c-34.64,0 -69.28,17.32 -103.91,46.18 -31.75,31.75 -54.85,66.39 -63.51,109.69 -5.77,20.2 -8.66,37.52 -8.66,54.84 0,46.18 17.32,77.94 51.96,95.25 20.21,14.43 46.19,20.2 72.17,20.2 5.77,-2.88 8.66,-2.88 11.54,-2.88l46.18 -92.37c-2.88,0 -11.54,2.89 -25.98,2.89 -14.43,0 -28.86,-2.89 -37.52,-8.66 -14.43,-8.66 -20.2,-20.21 -20.2,-37.53 0,-8.66 0,-17.32 5.77,-31.75 2.89,-17.32 11.55,-31.75 28.87,-46.19 14.43,-14.43 31.75,-23.09 49.07,-23.09l95.25 0zm63.51 -158.76l-95.25 395.45 98.14 0 95.25 -395.45 -98.14 0zm-95.25 -196.28l124.12 196.28 98.14 0 -86.59 -196.28 -135.66 0zm502.25 528.23l25.98 -103.91c-14.43,14.43 -31.75,25.98 -57.73,40.41 -23.09,11.55 -40.41,17.32 -51.96,17.32 -23.09,0 -37.52,-5.77 -49.07,-14.43 -5.77,-5.78 -8.66,-17.32 -14.43,-37.53 23.09,8.66 51.96,0 92.36,-25.98 28.87,-20.2 49.07,-51.96 57.73,-92.36 2.88,-14.43 5.78,-25.98 5.78,-34.64 0,-23.09 -5.78,-40.41 -17.32,-57.73 -11.55,-14.43 -28.87,-23.09 -49.07,-23.09l-132.78 0 -20.21 80.83 98.15 0c8.66,0 14.43,2.88 17.32,8.66 5.77,5.77 5.77,11.54 5.77,20.2 0,8.66 -2.88,20.2 -8.66,28.86 -8.66,5.78 -17.32,11.55 -28.86,11.55l-121.23 0 -20.2 83.7 37.52 0c0,5.78 0,11.55 0,17.32 0,28.87 5.78,51.96 17.32,72.17 20.2,28.86 51.96,43.3 98.14,43.3 17.32,0 37.53,-2.89 57.73,-8.66 20.2,-5.78 40.41,-14.43 57.73,-25.98zm230.91 -331.95l-95.25 0c-20.2,0 -37.52,8.66 -57.73,28.87 -20.21,17.32 -31.75,40.41 -37.53,63.5 -2.88,14.43 -5.77,20.2 -5.77,23.09 0,2.88 0,5.77 0,8.66 0,20.2 5.77,34.64 17.32,46.18 5.77,2.88 11.54,8.66 20.2,11.54 -11.54,8.66 -20.2,17.32 -25.98,23.09 -20.2,17.32 -31.75,37.52 -34.64,60.62 -2.88,5.78 -2.88,11.54 -2.88,14.43 -2.89,5.77 -2.89,8.66 -2.89,17.32 0,37.52 20.21,63.5 54.85,80.82 28.86,14.43 66.38,20.2 115.46,20.2 63.5,0 118.35,-20.2 164.53,-57.73 46.18,-40.41 77.94,-92.37 95.25,-158.76 8.66,-34.64 11.54,-63.5 11.54,-86.59 0,-34.64 -5.77,-57.73 -20.2,-75.04 -14.43,-17.32 -31.75,-25.98 -57.73,-25.98 -28.86,0 -57.73,14.43 -86.59,40.41 -25.98,28.87 -43.3,60.62 -51.96,95.25 -2.88,8.66 -2.88,17.32 -5.77,23.09 0,8.66 0,14.43 0,20.2 0,28.87 8.66,46.19 25.98,57.73 11.54,8.66 28.86,14.43 49.07,14.43 5.78,0 11.55,-2.89 17.32,-2.89 2.89,0 8.66,0 11.55,-2.88 -14.43,17.32 -28.87,31.75 -37.53,40.41 -31.75,23.09 -63.5,37.52 -95.25,37.52 -28.86,0 -49.07,-2.88 -66.38,-8.66 -17.32,-5.78 -25.98,-17.32 -25.98,-34.64 0,0 0,-5.78 0,-11.54 2.88,-11.55 8.66,-20.21 14.43,-28.87 5.78,-5.77 14.43,-8.66 25.98,-8.66l31.75 0 20.2 -86.59 -51.96 0c-14.43,0 -20.2,-5.77 -20.2,-20.2 0,-8.66 2.88,-17.32 11.54,-23.09 5.78,-8.66 14.43,-14.43 23.09,-14.43l51.96 0 20.2 -80.83zm95.25 178.96c-8.66,0 -14.43,-2.88 -17.32,-8.66 -5.77,-2.88 -5.77,-11.54 -5.77,-20.2 0,-2.89 0,-5.78 0,-11.55 0,-5.77 2.88,-11.54 2.88,-14.43 2.88,-11.55 8.66,-25.98 17.32,-34.64 5.78,-11.55 17.32,-17.32 25.98,-17.32 17.32,0 25.98,11.54 25.98,34.64 0,17.32 -2.88,34.64 -11.54,46.18 -11.55,17.32 -23.09,25.98 -37.53,25.98zm124.12 308.86c0,-8.66 2.88,-20.21 2.88,-28.87 0,-23.09 -8.66,-40.41 -25.98,-54.84 -17.32,-14.43 -37.52,-20.2 -60.62,-20.2 -23.09,0 -46.18,2.88 -69.28,8.66 -31.75,8.66 -51.96,14.43 -54.84,20.2l23.09 69.28c8.66,-5.78 14.43,-11.54 17.32,-14.43 17.32,-8.66 28.87,-14.43 40.41,-14.43 14.43,0 23.09,2.88 28.86,5.77 2.89,5.78 5.78,11.55 5.78,17.32 0,5.78 0,11.55 -2.88,20.21 0,8.66 -8.66,17.32 -20.21,25.98 -14.43,8.66 -31.75,11.54 -54.84,11.54 -34.64,0 -66.39,-8.66 -89.48,-25.98 -25.98,-17.32 -40.41,-40.41 -43.3,-63.5l-86.59 28.86c8.66,37.52 28.86,69.28 63.5,98.14 34.64,28.87 77.94,43.3 129.89,43.3 43.3,0 83.71,-8.66 115.46,-28.86 43.3,-23.09 69.28,-54.84 80.83,-98.14z"/>
   <path class="fil0" d="M271.33 1809.83l0 -28.86c-2.89,2.88 -5.78,2.88 -8.66,5.78 -5.78,0 -8.66,0 -11.55,0 -8.66,0 -20.2,-5.78 -37.52,-17.32 -17.32,-11.55 -31.75,-14.43 -40.41,-14.43 -17.32,0 -28.86,2.88 -40.41,14.43 -8.66,8.66 -14.43,20.2 -14.43,34.64 0,17.32 8.66,31.75 23.09,40.41 8.66,2.89 20.2,5.78 34.64,5.78 2.88,0 5.77,0 8.66,0 5.77,0 8.66,0 8.66,0 5.77,0 11.54,0 14.43,2.88 2.89,0 2.89,2.89 2.89,5.78 0,8.66 -5.78,14.43 -17.32,17.32 -14.43,5.78 -20.21,5.78 -23.09,5.78 0,-2.89 -2.88,-5.78 -2.88,-5.78 -5.78,-5.78 -11.55,-8.66 -17.32,-8.66 -8.66,0 -17.32,0 -20.21,5.78 -5.77,2.88 -8.66,8.66 -8.66,17.32 0,8.66 8.66,17.32 20.21,23.09 5.77,0 11.54,0 23.09,2.89 2.89,8.66 8.66,14.43 11.55,17.32 8.66,14.43 20.2,20.2 31.75,20.2 2.89,0 11.55,-2.88 20.21,-5.78 2.88,0 8.66,-2.88 11.54,-5.77l-14.43 -23.09c-2.88,5.78 -8.66,5.78 -17.32,5.78 -11.54,0 -20.2,-2.89 -25.98,-11.55 11.55,-2.88 23.09,-8.66 34.64,-20.2 8.66,-8.66 14.43,-20.2 14.43,-34.64 0,-14.43 -8.66,-25.98 -23.09,-31.75 -11.54,-5.77 -25.98,-8.66 -43.3,-8.66 -8.66,0 -14.43,-2.88 -20.2,-5.77 -2.88,-2.89 -5.78,-8.66 -5.78,-14.43 0,-5.78 0,-8.66 5.78,-11.54 5.78,-5.78 11.54,-8.66 17.32,-8.66 5.78,0 14.43,2.88 20.2,8.66 8.66,2.88 14.43,5.77 20.21,11.54 2.88,0 11.54,5.78 23.09,14.43 8.66,5.77 17.32,8.66 25.98,8.66 2.89,0 5.78,-2.89 11.55,-2.89 2.88,-2.88 8.66,-5.77 8.66,-8.66zm0 -60.62l0 164.53c0,8.66 5.77,20.21 14.43,28.87 11.55,8.66 20.21,11.54 31.75,11.54 5.78,0 14.43,-2.88 20.2,-8.66 2.89,0 5.78,-2.88 8.66,-5.78l-8.66 -34.64c0,2.89 0,2.89 -2.88,5.78 0,2.88 -2.88,8.66 -5.78,11.54 -2.88,2.89 -5.77,5.78 -11.54,11.55 0,0 -2.88,0 -5.78,2.88l0 -167.41 -40.41 -20.21zm89.48 0l0 164.53c0,8.66 5.78,20.21 14.43,28.87 11.54,8.66 20.2,11.54 31.75,11.54 5.78,0 14.43,-2.88 20.21,-8.66 2.88,0 5.77,-2.88 8.66,-5.78l-8.66 -34.64c0,2.89 -2.89,2.89 -2.89,5.78 0,2.88 -2.88,8.66 -5.77,11.54 -2.89,2.89 -5.78,5.78 -11.55,11.55 0,0 -2.88,0 -5.77,2.88l0 -167.41 -40.41 -20.21zm170.31 -72.16c17.32,0 40.41,5.78 63.5,17.32 17.32,8.66 37.52,20.2 57.73,34.64 5.77,5.78 14.43,11.54 23.09,17.32l14.43 -8.66c0,-2.88 -11.54,-11.54 -28.86,-23.09 -23.09,-17.32 -46.19,-31.75 -69.28,-40.41 -31.75,-14.43 -57.73,-23.09 -80.83,-23.09 -25.98,0 -40.41,8.66 -49.07,20.2 -2.89,11.55 -5.78,28.87 -5.78,57.73l0 20.2 0 164.53c0,8.66 2.88,20.21 14.43,28.87 8.66,8.66 20.2,11.54 28.86,11.54 8.66,0 14.43,-2.88 23.09,-8.66 0,0 2.88,-2.88 8.66,-5.78l-11.55 -34.64c0,2.89 0,2.89 0,5.78 -2.88,2.88 -5.77,8.66 -8.66,11.54 -2.88,2.89 -5.77,5.78 -8.66,11.55 -2.88,0 -5.77,0 -8.66,2.88l0 -187.62c0,-5.77 0,-8.66 0,-11.54 0,-5.78 0,-8.66 0,-14.43 0,-14.43 2.89,-25.98 5.78,-31.75 5.78,-8.66 17.32,-14.43 31.75,-14.43zm127 170.31l0 -37.53 -63.5 0c-14.43,0 -25.98,5.78 -34.64,14.43 -8.66,11.54 -11.54,23.09 -11.54,37.52 0,17.32 5.77,37.53 23.09,60.62 5.78,8.66 14.43,17.32 25.98,28.87l11.55 -5.78c-5.78,-8.66 -11.55,-17.32 -14.43,-20.2 -11.54,-17.32 -17.32,-31.75 -17.32,-46.19 0,-8.66 2.88,-14.43 8.66,-20.2 2.88,-8.66 11.54,-11.54 17.32,-11.54l54.84 0zm0 -98.15l0 164.53c0,8.66 2.89,20.21 14.43,28.87 8.66,8.66 20.2,11.54 31.75,11.54 5.77,0 11.54,-2.88 20.2,-8.66 0,0 2.88,-2.88 8.66,-5.78l-11.54 -34.64c0,2.89 0,2.89 0,5.78 -2.89,2.88 -5.78,8.66 -8.66,11.54 0,2.89 -5.78,5.78 -8.66,11.55 -2.89,0 -5.78,0 -8.66,2.88l0 -167.41 -37.53 -20.21zm216.49 89.49l0 -31.75 -121.23 0c-2.88,0 -5.77,0 -5.77,2.88 -2.89,2.89 -2.89,2.89 -2.89,5.78 0,5.78 8.66,20.2 23.09,37.52 14.43,17.32 23.09,25.98 28.86,25.98 2.89,0 5.78,0 8.66,-2.88 0,0 2.89,-2.88 2.89,-5.78l0 -31.75 66.38 0zm-5.77 -89.49l0 164.53c0,8.66 5.77,20.21 14.43,28.87 11.55,8.66 20.21,11.54 31.75,11.54 5.78,0 14.43,-2.88 20.2,-8.66 2.89,0 5.78,-2.88 8.66,-5.78l-8.66 -34.64c0,2.89 -2.88,2.89 -2.88,5.78 0,2.88 -2.88,8.66 -5.78,11.54 -2.88,2.89 -5.77,5.78 -11.54,11.55 0,0 -2.88,0 -5.78,2.88l0 -167.41 -40.41 -20.21zm95.25 0l0 164.53c0,8.66 2.88,20.21 14.43,28.87 8.66,8.66 20.21,11.54 31.75,11.54 5.78,0 11.54,-2.88 20.2,-8.66 0,0 2.89,-2.88 8.66,-5.78l-11.54 -34.64c0,2.89 0,2.89 0,5.78 -2.88,2.88 -5.78,8.66 -8.66,11.54 0,2.89 -5.78,5.78 -8.66,11.55 -2.88,0 -5.78,0 -5.78,2.88l0 -167.41 -40.41 -20.21zm360.81 106.8l0 -34.64c-5.77,2.88 -14.43,5.77 -20.2,8.66 -5.78,2.88 -14.43,2.88 -20.2,2.88 -5.78,0 -8.66,0 -11.55,0 2.89,-5.78 2.89,-11.54 2.89,-17.32 0,-17.32 -5.78,-34.64 -17.32,-49.07 -11.55,-11.54 -28.87,-20.2 -46.19,-20.2 -11.54,0 -17.32,0 -25.98,2.88 -8.66,2.89 -14.43,2.89 -14.43,5.78l14.43 34.64c0,-2.88 2.89,-2.88 8.66,-5.78 14.43,-5.77 25.98,-8.66 34.64,-8.66 8.66,0 17.32,2.89 20.21,8.66 0,5.78 2.88,11.55 2.88,20.21 0,11.54 -5.78,23.09 -20.2,31.75 -2.89,2.89 -8.66,5.78 -17.32,11.55 -2.89,-5.78 -5.78,-8.66 -11.55,-8.66 -2.88,-2.89 -8.66,-5.78 -14.43,-5.78 -5.78,0 -11.55,2.88 -14.43,8.66 -2.88,5.78 -5.78,11.54 -5.78,17.32 0,11.54 5.78,17.32 11.55,23.09 8.66,2.88 17.32,5.77 28.86,5.77 0,5.78 5.78,14.43 17.32,31.75 11.54,20.2 25.98,28.86 40.41,31.75 2.88,0 5.77,0 8.66,0 5.77,0 11.54,0 20.2,0 0,0 2.88,0 5.78,-2.89l-14.43 -40.41c-2.88,2.88 -5.78,2.88 -8.66,5.77 -8.66,2.89 -17.32,2.89 -20.2,2.89 -8.66,0 -14.43,-5.78 -23.09,-17.32 -2.88,-2.89 -5.78,-8.66 -8.66,-17.32 8.66,-2.89 17.32,-5.78 25.98,-11.55 5.78,-8.66 11.54,-14.43 17.32,-23.09 0,2.88 2.88,2.88 8.66,5.77 5.78,2.89 11.54,5.78 17.32,8.66 0,0 2.88,0 5.78,0 5.77,0 11.54,-2.88 20.2,-2.88 0,0 0,0 2.88,-2.88zm0 -106.8l0 164.53c0,8.66 5.78,20.21 14.43,28.87 8.66,8.66 20.2,11.54 31.75,11.54 5.77,0 11.54,-2.88 20.2,-8.66 2.88,0 5.78,-2.88 8.66,-5.78l-8.66 -34.64c-2.88,2.89 -2.88,2.89 -2.88,5.78 -2.89,2.88 -5.78,8.66 -8.66,11.54 0,2.89 -2.89,5.78 -8.66,11.55 -2.89,0 -2.89,0 -5.78,2.88l0 -167.41 -40.41 -20.21zm184.74 25.98c0,0 -2.89,0 -8.66,0 -2.89,0 -5.78,-2.88 -8.66,-2.88 -20.21,0 -37.53,5.78 -49.07,11.54 -20.2,8.66 -28.86,25.98 -28.86,49.07 0,20.2 5.77,34.64 23.09,49.07 14.43,14.43 28.87,20.2 46.19,20.2 8.66,0 20.2,0 31.75,-2.88 5.78,-2.89 11.55,-5.78 17.32,-5.78l0 20.2c0,8.66 2.89,20.21 14.43,28.87 8.66,8.66 17.32,11.54 28.86,11.54 5.78,0 14.43,-2.88 20.21,-8.66 2.88,0 5.77,-2.88 8.66,-5.78l-8.66 -34.64c0,2.89 -2.89,2.89 -2.89,5.78 0,2.88 -2.88,8.66 -5.77,11.54 -2.89,2.89 -5.78,5.78 -11.55,11.55 0,0 -2.88,0 -5.77,2.88l0 -167.41 -40.41 -20.21 0 106.8c0,0 -5.78,2.88 -17.32,5.77 -14.43,5.78 -25.98,8.66 -34.64,8.66 -11.54,0 -23.09,-2.88 -31.75,-8.66 -8.66,-5.77 -11.54,-14.43 -11.54,-23.09 0,-11.55 5.78,-20.21 17.32,-25.98 8.66,-5.78 20.2,-8.66 37.52,-8.66 11.55,0 20.21,2.88 28.87,5.77l-8.66 -34.64zm112.57 -25.98l0 164.53c0,8.66 2.88,20.21 14.43,28.87 8.66,8.66 20.21,11.54 31.75,11.54 5.78,0 11.54,-2.88 20.2,-8.66 0,0 5.78,-2.88 8.66,-5.78l-8.66 -34.64c-2.88,2.89 -2.88,2.89 -2.88,5.78 -2.88,2.88 -5.78,8.66 -8.66,11.54 0,2.89 -5.78,5.78 -8.66,11.55 -2.88,0 -2.88,0 -5.78,2.88l0 -167.41 -40.41 -20.21zm25.98 0l11.54 0c-2.88,-2.88 -5.78,-5.77 -8.66,-17.32 -5.78,-11.54 -8.66,-25.98 -8.66,-37.52 0,-14.43 2.88,-23.09 14.43,-25.98 8.66,-5.78 17.32,-5.78 28.86,-5.78 5.78,0 11.54,0 11.54,0 2.89,0 2.89,0 5.78,0l0 -14.43c-11.54,-2.89 -20.2,-2.89 -28.86,-2.89 -17.32,0 -28.87,2.89 -37.53,8.66 -11.54,5.78 -17.32,17.32 -17.32,31.75 0,8.66 2.89,23.09 11.55,40.41 8.66,14.43 14.43,23.09 17.32,23.09zm40.41 -66.38c-5.77,0 -11.54,2.88 -14.43,5.77 -2.89,2.89 -2.89,8.66 -2.89,11.55 0,5.77 0,8.66 2.89,11.54 2.88,5.78 8.66,5.78 14.43,5.78 5.78,0 8.66,0 14.43,-5.78 2.88,-2.88 2.88,-5.78 2.88,-11.54 0,-2.89 0,-8.66 -2.88,-11.55 -5.78,-2.88 -8.66,-5.77 -14.43,-5.77zm60.62 103.91c5.78,-5.78 8.66,-8.66 11.55,-8.66 8.66,-8.66 17.32,-11.55 23.09,-11.55 11.55,0 17.32,5.78 23.09,14.43 5.78,5.78 8.66,14.43 8.66,25.98 0,14.43 -2.88,25.98 -11.54,34.64 -5.78,11.54 -14.43,14.43 -28.87,14.43 -8.66,0 -17.32,-5.78 -28.86,-17.32 -2.88,-2.89 -5.78,-8.66 -11.54,-17.32l-14.43 5.77c0,5.78 5.78,17.32 20.2,31.75 17.32,20.2 31.75,31.75 46.19,31.75 17.32,0 28.86,-5.78 40.41,-20.21 8.66,-11.54 11.55,-28.86 11.55,-49.07 0,-20.21 -5.78,-40.41 -17.32,-54.85 -14.43,-20.2 -31.75,-28.86 -51.96,-28.86 -8.66,0 -17.32,2.88 -25.98,5.78 -8.66,5.77 -14.43,8.66 -14.43,8.66l20.2 34.64zm124.12 -37.53l0 164.53c0,8.66 2.88,20.21 14.43,28.87 8.66,8.66 20.21,11.54 31.75,11.54 5.78,0 11.54,-2.88 20.2,-8.66 0,0 2.89,-2.88 8.66,-5.78l-11.54 -34.64c0,2.89 0,2.89 0,5.78 -2.88,2.88 -5.78,8.66 -8.66,11.54 0,2.89 -5.78,5.78 -8.66,11.55 -2.88,0 -5.78,0 -5.78,2.88l0 -167.41 -40.41 -20.21zm-2.89 0l34.64 17.32c-2.88,-5.77 -5.77,-8.66 -8.66,-14.43 -5.77,-11.55 -8.66,-25.98 -8.66,-37.53 0,-11.54 2.89,-20.2 11.55,-25.98 5.77,-8.66 14.43,-11.54 23.09,-11.54 11.55,0 20.21,5.78 28.87,14.43 8.66,11.54 14.43,31.75 14.43,57.73l0 164.53c0,8.66 5.78,20.21 14.43,28.87 11.54,8.66 20.2,11.54 31.75,11.54 5.77,0 14.43,-2.88 20.2,-8.66 2.88,0 5.78,-2.88 8.66,-5.78l-8.66 -34.64c0,2.89 -2.88,2.89 -2.88,5.78 0,2.88 -2.89,8.66 -5.78,11.54 -2.88,2.89 -5.78,5.78 -11.54,11.55 0,0 -2.89,0 -5.78,2.88l0 -187.62c0,-20.2 -8.66,-37.52 -23.09,-57.73 -17.32,-23.09 -37.52,-34.64 -60.62,-34.64 -23.09,0 -40.41,5.77 -51.96,14.43 -11.54,8.66 -17.32,23.09 -17.32,43.3 0,5.78 2.89,14.43 8.66,23.09 2.89,5.78 5.78,8.66 8.66,11.54zm378.13 -72.16c20.2,0 43.3,5.78 66.39,17.32 17.32,8.66 37.52,20.2 54.84,34.64 8.66,5.78 17.32,11.54 23.09,17.32l14.43 -8.66c0,-2.88 -8.66,-11.54 -28.86,-23.09 -23.09,-17.32 -46.18,-31.75 -66.39,-40.41 -31.75,-14.43 -60.62,-23.09 -83.7,-23.09 -23.09,0 -37.53,8.66 -46.19,20.2 -5.77,11.55 -8.66,28.87 -8.66,57.73l0 20.2 0 164.53c0,8.66 5.78,20.21 14.43,28.87 11.54,8.66 20.2,11.54 31.75,11.54 5.77,0 14.43,-2.88 20.2,-8.66 2.88,0 5.78,-2.88 8.66,-5.78l-8.66 -34.64c0,2.89 -2.88,2.89 -2.88,5.78 0,2.88 -2.89,8.66 -5.78,11.54 -2.88,2.89 -5.78,5.78 -11.54,11.55 0,0 -2.89,0 -5.78,2.88l0 -187.62c0,-5.77 0,-8.66 0,-11.54 0,-5.78 0,-8.66 0,-14.43 0,-14.43 2.88,-25.98 5.78,-31.75 5.77,-8.66 14.43,-14.43 28.86,-14.43zm112.57 98.14c-2.88,0 -5.78,0 -8.66,0 -2.88,0 -5.78,-2.88 -8.66,-2.88 -20.2,0 -37.52,5.78 -51.96,11.54 -17.32,8.66 -28.86,25.98 -28.86,49.07 0,20.2 8.66,34.64 23.09,49.07 14.43,14.43 31.75,20.2 49.07,20.2 8.66,0 17.32,0 28.86,-2.88 8.66,-2.89 14.43,-5.78 17.32,-5.78l0 20.2c0,8.66 5.78,20.21 14.43,28.87 8.66,8.66 20.2,11.54 31.75,11.54 5.77,0 11.54,-2.88 20.2,-8.66 0,0 5.78,-2.88 8.66,-5.78l-11.54 -34.64c0,2.89 0,2.89 0,5.78 -2.89,2.88 -5.78,8.66 -8.66,11.54 0,2.89 -5.78,5.78 -8.66,11.55 -2.89,0 -2.89,0 -5.78,2.88l0 -167.41 -40.41 -20.21 0 106.8c-2.88,0 -8.66,2.88 -17.32,5.77 -14.43,5.78 -25.98,8.66 -37.52,8.66 -11.54,0 -20.2,-2.88 -28.86,-8.66 -8.66,-5.77 -14.43,-14.43 -14.43,-23.09 0,-11.55 5.78,-20.21 17.32,-25.98 11.54,-5.78 23.09,-8.66 37.52,-8.66 11.55,0 23.09,2.88 31.75,5.77l-8.66 -34.64zm170.31 -37.52l14.43 14.43c-2.88,0 -11.54,2.88 -23.09,14.43 -14.43,11.55 -20.21,20.21 -20.21,28.87 0,11.54 2.89,20.2 8.66,25.98 8.66,11.54 17.32,17.32 25.98,20.2l-54.84 20.2 28.86 28.87 54.85 -25.98c2.88,2.88 5.77,5.77 8.66,5.77 5.77,5.78 8.66,14.43 8.66,20.21 0,14.43 -5.78,23.09 -17.32,31.75 -8.66,5.78 -23.09,8.66 -37.53,8.66 -11.54,0 -23.09,-2.88 -37.52,-5.77 -5.78,-2.89 -11.54,-2.89 -20.2,-8.66l-2.89 14.43c5.78,5.78 17.32,11.55 40.41,17.32 14.43,5.78 28.86,8.66 43.3,8.66 17.32,0 31.75,-5.77 43.3,-11.54 11.54,-8.66 20.2,-23.09 20.2,-37.52 0,-8.66 -5.77,-20.21 -14.43,-34.64 -2.89,-2.89 -8.66,-8.66 -14.43,-17.32l43.3 -17.32 -28.86 -25.98 -49.07 20.2c-2.88,-2.88 -5.78,-5.78 -8.66,-8.66 -2.88,-5.78 -5.78,-11.54 -5.78,-14.43 0,-8.66 8.66,-20.2 20.21,-28.86 11.54,-5.78 17.32,-8.66 23.09,-8.66l-34.64 -40.41 -14.43 5.78zm121.23 11.54l0 164.53c0,8.66 5.77,20.21 14.43,28.87 11.55,8.66 20.21,11.54 31.75,11.54 5.78,0 14.43,-2.88 20.2,-8.66 2.89,0 5.78,-2.88 8.66,-5.78l-8.66 -34.64c0,2.89 0,2.89 -2.88,5.78 0,2.88 -2.88,8.66 -5.78,11.54 -2.88,2.89 -5.77,5.78 -11.54,11.55 0,0 -2.88,0 -5.78,2.88l0 -167.41 -40.41 -20.21zm248.23 106.8l0 -34.64c-5.77,2.88 -14.43,5.77 -20.2,8.66 -5.78,2.88 -14.43,2.88 -20.2,2.88 -5.78,0 -8.66,0 -11.55,0 2.89,-5.78 2.89,-11.54 2.89,-17.32 0,-17.32 -5.78,-34.64 -17.32,-49.07 -11.55,-11.54 -28.87,-20.2 -46.19,-20.2 -11.54,0 -20.2,0 -25.98,2.88 -8.66,2.89 -14.43,2.89 -14.43,5.78l14.43 34.64c0,-2.88 2.89,-2.88 8.66,-5.78 14.43,-5.77 25.98,-8.66 34.64,-8.66 8.66,0 17.32,2.89 20.21,8.66 0,5.78 2.88,11.55 2.88,20.21 0,11.54 -5.78,23.09 -20.2,31.75 -2.89,2.89 -8.66,5.78 -17.32,11.55 -2.89,-5.78 -5.78,-8.66 -11.55,-8.66 -2.88,-2.89 -8.66,-5.78 -14.43,-5.78 -5.78,0 -11.55,2.88 -14.43,8.66 -2.88,5.78 -5.78,11.54 -5.78,17.32 0,11.54 5.78,17.32 11.55,23.09 8.66,2.88 17.32,5.77 28.86,5.77 0,5.78 5.78,14.43 17.32,31.75 11.54,20.2 25.98,28.86 40.41,31.75 2.88,0 5.77,0 8.66,0 5.77,0 11.54,0 20.2,0 0,0 2.88,0 5.78,-2.89l-14.43 -40.41c-2.88,2.88 -5.78,2.88 -8.66,5.77 -8.66,2.89 -17.32,2.89 -20.2,2.89 -8.66,0 -14.43,-5.78 -23.09,-17.32 -2.88,-2.89 -5.78,-8.66 -8.66,-17.32 8.66,-2.89 17.32,-5.78 25.98,-11.55 5.78,-8.66 11.54,-14.43 17.32,-23.09 0,2.88 2.88,2.88 8.66,5.77 5.78,2.89 11.54,5.78 17.32,8.66 0,0 2.88,0 5.78,0 5.77,0 11.54,-2.88 20.2,-2.88 0,0 0,0 2.88,-2.88zm0 -106.8l0 164.53c0,8.66 5.78,20.21 14.43,28.87 8.66,8.66 20.2,11.54 31.75,11.54 5.77,0 11.54,-2.88 20.2,-8.66 2.88,0 5.78,-2.88 8.66,-5.78l-8.66 -34.64c-2.88,2.89 -2.88,2.89 -2.88,5.78 -2.89,2.88 -5.78,8.66 -8.66,11.54 0,2.89 -5.78,5.78 -8.66,11.55 -2.89,0 -2.89,0 -5.78,2.88l0 -167.41 -40.41 -20.21zm199.17 20.21l25.98 31.75c0,-8.66 2.89,-14.43 11.55,-23.09 5.77,-5.78 11.54,-11.55 20.2,-14.43l0 72.16 -31.75 0c-5.77,0 -8.66,2.89 -8.66,11.55 0,2.88 8.66,14.43 25.98,31.75 20.21,20.21 31.75,28.87 40.41,25.98 5.78,0 8.66,0 8.66,-5.77l0 -28.87 63.5 0 0 43.3c0,8.66 5.78,20.21 14.43,28.87 11.54,8.66 20.2,11.54 31.75,11.54 5.77,0 11.54,-2.88 20.2,-8.66 2.88,0 5.78,-2.88 8.66,-5.78l-8.66 -34.64c-2.88,2.89 -2.88,2.89 -2.88,5.78 -2.89,5.78 -5.78,8.66 -5.78,11.54 -2.88,2.89 -5.78,5.78 -11.54,11.55 0,0 -2.89,0 -5.78,2.88l0 -167.41 -40.41 -20.21 0 86.59 -63.5 0 0 -57.73c0,-8.66 -2.88,-14.43 -11.54,-20.21 -8.66,-8.66 -20.21,-11.54 -28.87,-11.54 -8.66,0 -17.32,2.88 -25.98,8.66 -11.54,5.78 -17.32,8.66 -25.98,14.43zm248.24 -20.21l0 164.53c0,8.66 5.78,20.21 17.32,28.87 8.66,8.66 20.2,11.54 28.86,11.54 8.66,0 14.43,-2.88 20.21,-8.66 2.88,0 5.77,-2.88 11.54,-5.78l-11.54 -34.64c0,2.89 0,2.89 0,5.78 -2.89,2.88 -5.78,8.66 -8.66,11.54 -2.89,2.89 -5.78,5.78 -11.55,11.55 0,0 -2.88,0 -5.77,2.88l0 -167.41 -40.41 -20.21zm132.78 34.64c2.89,0 5.78,-2.88 8.66,-5.77 14.43,-5.78 25.98,-8.66 40.41,-8.66 8.66,0 14.43,0 17.32,2.88 2.88,2.88 5.78,5.78 5.78,11.54 0,8.66 -5.78,17.32 -17.32,23.09 -5.78,2.88 -17.32,8.66 -37.53,17.32 -20.2,8.66 -34.64,17.32 -43.3,23.09 -8.66,8.66 -14.43,20.2 -14.43,34.64 0,20.2 8.66,34.64 23.09,46.18 17.32,11.54 34.64,17.32 57.73,17.32 8.66,0 23.09,0 34.64,-5.78 17.32,-5.77 31.75,-8.66 40.41,-14.43l-28.87 -31.75c-5.77,5.78 -14.43,11.54 -20.2,14.43 -14.43,8.66 -31.75,14.43 -49.07,14.43 -8.66,0 -17.32,-2.88 -23.09,-8.66 -5.78,-5.77 -11.55,-11.54 -11.55,-20.2 0,-11.54 11.55,-23.09 28.87,-31.75 11.54,-2.88 20.2,-8.66 31.75,-11.54 20.21,-11.54 34.64,-20.2 40.41,-28.86 5.78,-5.78 8.66,-17.32 8.66,-28.87 0,-14.43 -5.78,-25.98 -17.32,-34.64 -11.54,-11.54 -25.98,-17.32 -43.3,-17.32 -8.66,0 -20.2,2.89 -31.75,5.78 -14.43,2.88 -20.2,5.78 -23.09,8.66l23.09 28.86zm-37.52 -132.78l11.54 31.75c5.78,0 8.66,0 11.55,0 11.54,-2.89 20.2,-2.89 25.98,-2.89 11.54,0 25.98,11.55 37.52,34.64 11.54,17.32 17.32,28.87 17.32,34.64l20.2 0c-11.54,-23.09 -20.2,-37.52 -28.86,-49.07 -20.2,-34.64 -34.64,-49.07 -43.3,-49.07l-51.96 0zm305.97 187.62l0 -31.75 -121.23 0c-2.88,0 -2.88,0 -5.77,2.88 -2.89,2.89 -2.89,2.89 -2.89,5.78 0,5.78 8.66,20.2 23.09,37.52 14.43,17.32 25.98,25.98 31.75,25.98 0,0 2.88,0 5.77,-2.88 2.89,0 2.89,-2.88 2.89,-5.78l0 -31.75 66.38 0zm0 -89.49l0 164.53c0,8.66 5.78,20.21 14.43,28.87 8.66,8.66 20.2,11.54 31.75,11.54 5.77,0 11.54,-2.88 20.2,-8.66 2.88,0 5.78,-2.88 8.66,-5.78l-8.66 -34.64c-2.88,2.89 -2.88,2.89 -2.88,5.78 -2.89,2.88 -5.78,8.66 -8.66,11.54 0,2.89 -5.78,5.78 -8.66,11.55 -2.89,0 -2.89,0 -5.78,2.88l0 -167.41 -40.41 -20.21zm83.71 242.47c0,-14.43 -5.78,-25.98 -14.43,-34.64 -11.54,-5.77 -23.09,-11.54 -37.52,-11.54 -11.54,0 -23.09,2.88 -37.52,5.78 -2.89,2.88 -8.66,2.88 -14.43,5.77l14.43 31.75c5.77,-2.88 11.54,-5.78 14.43,-8.66 11.55,-2.88 20.21,-5.78 28.87,-5.78 14.43,0 23.09,5.78 23.09,14.43 0,8.66 -5.77,14.43 -17.32,20.2 -8.66,2.89 -20.2,5.78 -34.64,5.78 -20.2,0 -40.41,-5.78 -57.73,-17.32 -23.09,-14.43 -34.64,-25.98 -37.53,-37.52l-17.32 5.77c0,2.89 5.78,11.55 14.43,23.09 14.43,14.43 28.86,25.98 46.18,37.52 20.21,11.55 40.41,17.32 57.73,17.32 20.2,0 37.52,-2.88 49.07,-14.43 14.43,-8.66 20.2,-20.21 20.2,-37.53zm-54.84 -331.94c-11.55,0 -17.32,2.88 -23.09,5.78 -5.78,5.77 -5.78,11.54 -5.78,20.2 0,8.66 0,14.43 5.78,20.2 5.78,2.89 11.54,5.78 23.09,5.78 8.66,0 14.43,-2.88 20.2,-5.78 5.78,-5.77 8.66,-11.54 8.66,-20.2 0,-8.66 -2.88,-14.43 -8.66,-20.2 -5.78,-2.89 -11.54,-5.78 -20.2,-5.78zm181.85 109.69l23.09 31.75c0,-8.66 5.78,-14.43 11.55,-23.09 5.77,-5.78 11.54,-11.55 20.2,-14.43l0 72.16 -31.75 0c-5.77,0 -5.77,2.89 -5.77,11.55 0,2.88 5.77,14.43 23.09,31.75 20.21,20.21 31.75,28.87 40.41,25.98 5.78,0 8.66,0 8.66,-5.77l0 -28.87 63.5 0 0 43.3c0,8.66 5.78,20.21 14.43,28.87 11.54,8.66 20.2,11.54 31.75,11.54 5.77,0 11.54,-2.88 20.2,-8.66 2.88,0 5.78,-2.88 8.66,-5.78l-8.66 -34.64c-2.88,2.89 -2.88,2.89 -2.88,5.78 -2.89,5.78 -2.89,8.66 -5.78,11.54 -2.88,2.89 -5.78,5.78 -11.54,11.55 0,0 -2.89,0 -5.78,2.88l0 -167.41 -40.41 -20.21 0 86.59 -63.5 0 0 -57.73c0,-8.66 -2.88,-14.43 -11.54,-20.21 -8.66,-8.66 -20.21,-11.54 -28.87,-11.54 -8.66,0 -17.32,2.88 -25.98,8.66 -11.54,5.78 -17.32,8.66 -23.09,14.43zm236.69 222.26c0,-14.43 -2.88,-25.98 -14.43,-34.64 -8.66,-5.77 -23.09,-11.54 -37.52,-11.54 -8.66,0 -23.09,2.88 -34.64,5.78 -5.78,2.88 -11.54,2.88 -17.32,5.77l17.32 31.75c5.78,-2.88 11.54,-5.78 14.43,-8.66 11.54,-2.88 20.2,-5.78 25.98,-5.78 17.32,0 23.09,5.78 23.09,14.43 0,8.66 -5.77,14.43 -17.32,20.2 -8.66,2.89 -20.2,5.78 -34.64,5.78 -20.2,0 -37.52,-5.78 -54.84,-17.32 -23.09,-14.43 -37.52,-25.98 -40.41,-37.52l-17.32 5.77c0,2.89 5.78,11.55 17.32,23.09 14.43,14.43 28.87,25.98 43.3,37.52 20.21,11.55 40.41,17.32 60.62,17.32 20.21,0 34.64,-2.88 49.07,-14.43 11.54,-8.66 17.32,-20.21 17.32,-37.53zm2.88 -242.47l0 46.19c0,-5.78 2.89,-11.55 5.78,-17.32 5.78,-5.78 11.54,-11.55 17.32,-14.43l0 72.16c0,14.43 5.78,28.87 20.2,37.53 11.55,8.66 25.98,14.43 43.3,14.43 14.43,0 28.87,-5.77 40.41,-17.32 5.78,-2.88 11.54,-8.66 17.32,-17.32 2.88,2.89 8.66,2.89 11.54,5.78 5.78,0 8.66,2.88 11.55,2.88 2.88,0 8.66,-2.88 17.32,-2.88 0,0 2.88,0 2.88,-2.88l0 57.73c0,8.66 5.78,20.21 14.43,28.87 11.54,8.66 20.2,11.54 31.75,11.54 5.78,0 14.43,-2.88 20.21,-8.66 2.88,0 5.77,-2.88 8.66,-5.78l-8.66 -34.64c0,2.89 -2.89,2.89 -2.89,5.78 0,2.88 -2.88,8.66 -5.77,11.54 -2.89,2.89 -5.78,5.78 -11.55,11.55 0,0 -2.88,0 -5.77,2.88l0 -167.41 -40.41 -20.21 0 69.28c-2.88,5.78 -8.66,11.55 -14.43,14.43 -8.66,2.88 -14.43,5.78 -23.09,5.78 0,-2.89 0,-2.89 0,-5.78 2.88,-5.78 2.88,-8.66 2.88,-8.66 0,-8.66 -2.88,-17.32 -8.66,-23.09 -2.88,-5.77 -11.54,-8.66 -20.2,-8.66 -8.66,0 -14.43,2.89 -20.21,8.66 -5.77,5.78 -8.66,11.55 -8.66,20.21 0,8.66 5.78,17.32 14.43,20.2 2.88,2.88 -2.88,11.54 -14.43,20.2 -5.77,5.78 -14.43,8.66 -20.2,8.66 -2.88,0 -5.78,0 -8.66,-2.88 -2.88,-2.88 -2.88,-8.66 -2.88,-11.54l0 -72.17c0,-11.54 -2.89,-20.2 -14.43,-28.86 -8.66,-5.78 -17.32,-8.66 -28.86,-8.66 -8.66,0 -14.43,0 -20.21,2.88zm398.34 135.67l0 -40.41c0,2.89 -2.88,5.78 -14.43,11.55 -8.66,8.66 -20.21,14.43 -28.87,14.43 -8.66,0 -11.54,-2.88 -17.32,-5.77 -2.88,-2.89 -5.77,-5.78 -5.77,-14.43l0 -66.39c0,-11.54 -2.89,-20.2 -11.55,-28.86 -11.54,-5.78 -20.2,-8.66 -31.75,-8.66 -8.66,0 -14.43,0 -20.21,2.88l0 46.19c0,-5.78 2.89,-11.55 8.66,-17.32 2.89,-5.78 8.66,-11.55 14.43,-14.43l0 69.28c0,14.43 11.54,28.86 28.86,43.3 17.32,11.54 31.75,17.32 46.19,17.32 8.66,0 17.32,-2.88 23.09,-2.88 2.89,-2.89 5.78,-2.89 8.66,-5.78zm0 -135.67l0 164.53c0,8.66 5.78,20.21 14.43,28.87 8.66,8.66 20.2,11.54 31.75,11.54 5.77,0 11.54,-2.88 20.2,-8.66 2.88,0 5.78,-2.88 8.66,-5.78l-8.66 -34.64c-2.88,2.89 -2.88,2.89 -2.88,5.78 -2.89,2.88 -2.89,8.66 -5.78,11.54 -2.88,2.89 -5.78,5.78 -11.54,11.55 -2.89,0 -2.89,0 -5.78,2.88l0 -167.41 -40.41 -20.21zm141.44 176.08l89.48 -69.28 0 -31.75c-11.54,-8.66 -20.2,-14.43 -28.86,-20.2 -23.09,-14.43 -46.19,-20.21 -69.28,-20.21 -5.78,0 -11.55,0 -20.21,2.89 -11.54,2.88 -17.32,5.77 -23.09,8.66l14.43 34.64c5.78,-5.78 11.55,-11.55 23.09,-14.43 8.66,-5.78 17.32,-5.78 23.09,-5.78 11.54,0 25.98,0 37.52,5.78 17.32,5.78 28.86,11.54 34.64,20.2l-103.91 60.62 23.09 28.87zm86.59 -176.08l0 164.53c0,8.66 5.77,20.21 14.43,28.87 11.55,8.66 20.21,11.54 31.75,11.54 5.78,0 11.54,-2.88 20.2,-8.66 2.89,0 5.78,-2.88 8.66,-5.78l-8.66 -34.64c0,2.89 -2.88,2.89 -2.88,5.78 0,2.88 -2.88,8.66 -5.78,11.54 -2.88,2.89 -5.77,5.78 -11.54,11.55 0,0 -2.88,0 -5.78,2.88l0 -167.41 -40.41 -20.21z"/>
  </g>
 </g>
</svg>
